<?xml version="1.0" encoding="UTF-8"?>
<!DOCTYPE svg PUBLIC "-//W3C//DTD SVG 1.1//EN" "http://www.w3.org/Graphics/SVG/1.1/DTD/svg11.dtd">
<svg xmlns="http://www.w3.org/2000/svg" style="background: #ffffff; background-color: light-dark(#ffffff, #121212); color-scheme: light dark;" xmlns:xlink="http://www.w3.org/1999/xlink" version="1.1" width="542px" height="439px" viewBox="-0.5 -0.5 542 439"><defs/><rect fill="#ffffff" width="100%" height="100%" x="0" y="0" style="fill: light-dark(rgb(255, 255, 255), rgb(18, 18, 18));"/><g><g data-cell-id="0"><g data-cell-id="1"><g data-cell-id="3sGnDGBDs-SrtWcaNYYb-80"/><g data-cell-id="3sGnDGBDs-SrtWcaNYYb-79"/><g data-cell-id="3sGnDGBDs-SrtWcaNYYb-50"/><g data-cell-id="bqs7aqz5oVswFRp6lL_z-114"/><g data-cell-id="bqs7aqz5oVswFRp6lL_z-23"/><g data-cell-id="bqs7aqz5oVswFRp6lL_z-5"/><g data-cell-id="bqs7aqz5oVswFRp6lL_z-9"/><g data-cell-id="bqs7aqz5oVswFRp6lL_z-16"/><g data-cell-id="bqs7aqz5oVswFRp6lL_z-17"><g data-cell-id="bqs7aqz5oVswFRp6lL_z-14"/><g data-cell-id="bqs7aqz5oVswFRp6lL_z-15"/></g><g data-cell-id="bqs7aqz5oVswFRp6lL_z-18"><g data-cell-id="bqs7aqz5oVswFRp6lL_z-19"/><g data-cell-id="bqs7aqz5oVswFRp6lL_z-20"/></g><g data-cell-id="bqs7aqz5oVswFRp6lL_z-21"/><g data-cell-id="bqs7aqz5oVswFRp6lL_z-22"/><g data-cell-id="bqs7aqz5oVswFRp6lL_z-24"/><g data-cell-id="bqs7aqz5oVswFRp6lL_z-25"/><g data-cell-id="bqs7aqz5oVswFRp6lL_z-73"><g data-cell-id="bqs7aqz5oVswFRp6lL_z-77"><g data-cell-id="bqs7aqz5oVswFRp6lL_z-75"/><g data-cell-id="bqs7aqz5oVswFRp6lL_z-76"/></g></g><g data-cell-id="bqs7aqz5oVswFRp6lL_z-78"><g data-cell-id="bqs7aqz5oVswFRp6lL_z-79"><g data-cell-id="bqs7aqz5oVswFRp6lL_z-80"/><g data-cell-id="bqs7aqz5oVswFRp6lL_z-81"/></g></g><g data-cell-id="bqs7aqz5oVswFRp6lL_z-82"/><g data-cell-id="bqs7aqz5oVswFRp6lL_z-83"/><g data-cell-id="bqs7aqz5oVswFRp6lL_z-84"/><g data-cell-id="bqs7aqz5oVswFRp6lL_z-85"><g data-cell-id="bqs7aqz5oVswFRp6lL_z-86"><g data-cell-id="bqs7aqz5oVswFRp6lL_z-87"/><g data-cell-id="bqs7aqz5oVswFRp6lL_z-88"/></g></g><g data-cell-id="bqs7aqz5oVswFRp6lL_z-89"><g data-cell-id="bqs7aqz5oVswFRp6lL_z-90"><g data-cell-id="bqs7aqz5oVswFRp6lL_z-91"/><g data-cell-id="bqs7aqz5oVswFRp6lL_z-92"/></g></g><g data-cell-id="bqs7aqz5oVswFRp6lL_z-93"/><g data-cell-id="bqs7aqz5oVswFRp6lL_z-94"/><g data-cell-id="bqs7aqz5oVswFRp6lL_z-95"/><g data-cell-id="bqs7aqz5oVswFRp6lL_z-96"/><g data-cell-id="bqs7aqz5oVswFRp6lL_z-98"/><g data-cell-id="bqs7aqz5oVswFRp6lL_z-99"/><g data-cell-id="bqs7aqz5oVswFRp6lL_z-100"/><g data-cell-id="bqs7aqz5oVswFRp6lL_z-101"/><g data-cell-id="bqs7aqz5oVswFRp6lL_z-102"/><g data-cell-id="bqs7aqz5oVswFRp6lL_z-103"/><g data-cell-id="bqs7aqz5oVswFRp6lL_z-104"><g data-cell-id="bqs7aqz5oVswFRp6lL_z-105"><g data-cell-id="bqs7aqz5oVswFRp6lL_z-106"/><g data-cell-id="bqs7aqz5oVswFRp6lL_z-107"/></g></g><g data-cell-id="bqs7aqz5oVswFRp6lL_z-108"><g data-cell-id="bqs7aqz5oVswFRp6lL_z-109"><g data-cell-id="bqs7aqz5oVswFRp6lL_z-110"/><g data-cell-id="bqs7aqz5oVswFRp6lL_z-111"/></g></g><g data-cell-id="bqs7aqz5oVswFRp6lL_z-115"/><g data-cell-id="bqs7aqz5oVswFRp6lL_z-116"/><g data-cell-id="bqs7aqz5oVswFRp6lL_z-117"/><g data-cell-id="bqs7aqz5oVswFRp6lL_z-118"/><g data-cell-id="bqs7aqz5oVswFRp6lL_z-128"/><g data-cell-id="bqs7aqz5oVswFRp6lL_z-129"/><g data-cell-id="bqs7aqz5oVswFRp6lL_z-130"/><g data-cell-id="bqs7aqz5oVswFRp6lL_z-131"/><g data-cell-id="bqs7aqz5oVswFRp6lL_z-132"/><g data-cell-id="bqs7aqz5oVswFRp6lL_z-133"/><g data-cell-id="bqs7aqz5oVswFRp6lL_z-144"/><g data-cell-id="bqs7aqz5oVswFRp6lL_z-145"/><g data-cell-id="bqs7aqz5oVswFRp6lL_z-146"/><g data-cell-id="bqs7aqz5oVswFRp6lL_z-147"/><g data-cell-id="bqs7aqz5oVswFRp6lL_z-156"/><g data-cell-id="bqs7aqz5oVswFRp6lL_z-157"/><g data-cell-id="bqs7aqz5oVswFRp6lL_z-172"/><g data-cell-id="bqs7aqz5oVswFRp6lL_z-173"/><g data-cell-id="bqs7aqz5oVswFRp6lL_z-174"/><g data-cell-id="bqs7aqz5oVswFRp6lL_z-175"/><g data-cell-id="bqs7aqz5oVswFRp6lL_z-176"><g data-cell-id="bqs7aqz5oVswFRp6lL_z-177"><g data-cell-id="bqs7aqz5oVswFRp6lL_z-178"/><g data-cell-id="bqs7aqz5oVswFRp6lL_z-179"/></g></g><g data-cell-id="bqs7aqz5oVswFRp6lL_z-180"><g data-cell-id="bqs7aqz5oVswFRp6lL_z-181"><g data-cell-id="bqs7aqz5oVswFRp6lL_z-182"/><g data-cell-id="bqs7aqz5oVswFRp6lL_z-183"/></g></g><g data-cell-id="bqs7aqz5oVswFRp6lL_z-184"/><g data-cell-id="bqs7aqz5oVswFRp6lL_z-185"/><g data-cell-id="bqs7aqz5oVswFRp6lL_z-186"/><g data-cell-id="bqs7aqz5oVswFRp6lL_z-187"/><g data-cell-id="bqs7aqz5oVswFRp6lL_z-197"/><g data-cell-id="bqs7aqz5oVswFRp6lL_z-198"/><g data-cell-id="bqs7aqz5oVswFRp6lL_z-205"><g data-cell-id="bqs7aqz5oVswFRp6lL_z-217"><g data-cell-id="bqs7aqz5oVswFRp6lL_z-216"/><g data-cell-id="bqs7aqz5oVswFRp6lL_z-202"/></g></g><g data-cell-id="bqs7aqz5oVswFRp6lL_z-218"><g data-cell-id="bqs7aqz5oVswFRp6lL_z-219"><g data-cell-id="bqs7aqz5oVswFRp6lL_z-220"/></g><g data-cell-id="3sGnDGBDs-SrtWcaNYYb-38"/></g><g data-cell-id="bqs7aqz5oVswFRp6lL_z-222"><g data-cell-id="bqs7aqz5oVswFRp6lL_z-223"><g data-cell-id="bqs7aqz5oVswFRp6lL_z-224"/><g data-cell-id="bqs7aqz5oVswFRp6lL_z-225"/></g></g><g data-cell-id="bqs7aqz5oVswFRp6lL_z-234"><g data-cell-id="bqs7aqz5oVswFRp6lL_z-235"><g data-cell-id="bqs7aqz5oVswFRp6lL_z-236"/><g data-cell-id="bqs7aqz5oVswFRp6lL_z-237"/></g></g><g data-cell-id="bqs7aqz5oVswFRp6lL_z-134"><g data-cell-id="bqs7aqz5oVswFRp6lL_z-135"><g data-cell-id="bqs7aqz5oVswFRp6lL_z-136"/><g data-cell-id="bqs7aqz5oVswFRp6lL_z-137"/></g></g><g data-cell-id="3sGnDGBDs-SrtWcaNYYb-6"><g data-cell-id="3sGnDGBDs-SrtWcaNYYb-7"><g data-cell-id="3sGnDGBDs-SrtWcaNYYb-8"/><g data-cell-id="3sGnDGBDs-SrtWcaNYYb-9"/></g></g><g data-cell-id="3sGnDGBDs-SrtWcaNYYb-10"><g data-cell-id="3sGnDGBDs-SrtWcaNYYb-11"><g data-cell-id="3sGnDGBDs-SrtWcaNYYb-12"/><g data-cell-id="3sGnDGBDs-SrtWcaNYYb-13"/></g></g><g data-cell-id="3sGnDGBDs-SrtWcaNYYb-14"><g data-cell-id="3sGnDGBDs-SrtWcaNYYb-15"><g data-cell-id="3sGnDGBDs-SrtWcaNYYb-16"/><g data-cell-id="3sGnDGBDs-SrtWcaNYYb-17"/></g></g><g data-cell-id="3sGnDGBDs-SrtWcaNYYb-18"><g data-cell-id="3sGnDGBDs-SrtWcaNYYb-19"><g data-cell-id="3sGnDGBDs-SrtWcaNYYb-20"/><g data-cell-id="3sGnDGBDs-SrtWcaNYYb-21"/></g></g><g data-cell-id="3sGnDGBDs-SrtWcaNYYb-22"><g data-cell-id="3sGnDGBDs-SrtWcaNYYb-23"><g data-cell-id="3sGnDGBDs-SrtWcaNYYb-24"/><g data-cell-id="3sGnDGBDs-SrtWcaNYYb-25"/></g></g><g data-cell-id="3sGnDGBDs-SrtWcaNYYb-26"><g data-cell-id="3sGnDGBDs-SrtWcaNYYb-27"><g data-cell-id="3sGnDGBDs-SrtWcaNYYb-28"/><g data-cell-id="3sGnDGBDs-SrtWcaNYYb-29"/></g></g><g data-cell-id="3sGnDGBDs-SrtWcaNYYb-30"><g data-cell-id="3sGnDGBDs-SrtWcaNYYb-31"><g data-cell-id="3sGnDGBDs-SrtWcaNYYb-32"/><g data-cell-id="3sGnDGBDs-SrtWcaNYYb-33"/></g></g><g data-cell-id="3sGnDGBDs-SrtWcaNYYb-34"><g data-cell-id="3sGnDGBDs-SrtWcaNYYb-35"><g data-cell-id="3sGnDGBDs-SrtWcaNYYb-36"/><g data-cell-id="3sGnDGBDs-SrtWcaNYYb-37"/></g></g><g data-cell-id="3sGnDGBDs-SrtWcaNYYb-39"/><g data-cell-id="3sGnDGBDs-SrtWcaNYYb-40"/><g data-cell-id="3sGnDGBDs-SrtWcaNYYb-41"/><g data-cell-id="3sGnDGBDs-SrtWcaNYYb-42"><g data-cell-id="3sGnDGBDs-SrtWcaNYYb-43"/><g data-cell-id="3sGnDGBDs-SrtWcaNYYb-44"/></g><g data-cell-id="3sGnDGBDs-SrtWcaNYYb-45"><g data-cell-id="3sGnDGBDs-SrtWcaNYYb-46"/><g data-cell-id="3sGnDGBDs-SrtWcaNYYb-47"/></g><g data-cell-id="3sGnDGBDs-SrtWcaNYYb-48"/><g data-cell-id="3sGnDGBDs-SrtWcaNYYb-49"/><g data-cell-id="3sGnDGBDs-SrtWcaNYYb-52"/><g data-cell-id="3sGnDGBDs-SrtWcaNYYb-53"/><g data-cell-id="3sGnDGBDs-SrtWcaNYYb-54"/><g data-cell-id="3sGnDGBDs-SrtWcaNYYb-55"/><g data-cell-id="3sGnDGBDs-SrtWcaNYYb-56"/><g data-cell-id="3sGnDGBDs-SrtWcaNYYb-57"><g data-cell-id="3sGnDGBDs-SrtWcaNYYb-58"><g data-cell-id="3sGnDGBDs-SrtWcaNYYb-59"/><g data-cell-id="3sGnDGBDs-SrtWcaNYYb-60"/></g></g><g data-cell-id="3sGnDGBDs-SrtWcaNYYb-61"><g data-cell-id="3sGnDGBDs-SrtWcaNYYb-62"><g data-cell-id="3sGnDGBDs-SrtWcaNYYb-63"/><g data-cell-id="3sGnDGBDs-SrtWcaNYYb-64"/></g></g><g data-cell-id="3sGnDGBDs-SrtWcaNYYb-65"/><g data-cell-id="3sGnDGBDs-SrtWcaNYYb-66"/><g data-cell-id="3sGnDGBDs-SrtWcaNYYb-67"/><g data-cell-id="3sGnDGBDs-SrtWcaNYYb-68"><g data-cell-id="3sGnDGBDs-SrtWcaNYYb-69"><g data-cell-id="3sGnDGBDs-SrtWcaNYYb-70"/><g data-cell-id="3sGnDGBDs-SrtWcaNYYb-71"/></g></g><g data-cell-id="3sGnDGBDs-SrtWcaNYYb-72"><g data-cell-id="3sGnDGBDs-SrtWcaNYYb-73"><g data-cell-id="3sGnDGBDs-SrtWcaNYYb-74"/><g data-cell-id="3sGnDGBDs-SrtWcaNYYb-75"/></g></g><g data-cell-id="3sGnDGBDs-SrtWcaNYYb-76"/><g data-cell-id="3sGnDGBDs-SrtWcaNYYb-77"/><g data-cell-id="3sGnDGBDs-SrtWcaNYYb-78"/><g data-cell-id="3sGnDGBDs-SrtWcaNYYb-81"/><g data-cell-id="3sGnDGBDs-SrtWcaNYYb-82"/><g data-cell-id="3sGnDGBDs-SrtWcaNYYb-83"/><g data-cell-id="3sGnDGBDs-SrtWcaNYYb-84"><g data-cell-id="3sGnDGBDs-SrtWcaNYYb-85"><g data-cell-id="3sGnDGBDs-SrtWcaNYYb-86"/><g data-cell-id="3sGnDGBDs-SrtWcaNYYb-87"/></g></g><g data-cell-id="3sGnDGBDs-SrtWcaNYYb-88"><g data-cell-id="3sGnDGBDs-SrtWcaNYYb-89"><g data-cell-id="3sGnDGBDs-SrtWcaNYYb-90"/><g data-cell-id="3sGnDGBDs-SrtWcaNYYb-91"/></g></g><g data-cell-id="3sGnDGBDs-SrtWcaNYYb-92"><g data-cell-id="3sGnDGBDs-SrtWcaNYYb-93"><g data-cell-id="3sGnDGBDs-SrtWcaNYYb-94"/><g data-cell-id="3sGnDGBDs-SrtWcaNYYb-95"/></g></g><g data-cell-id="3sGnDGBDs-SrtWcaNYYb-97"/><g data-cell-id="3sGnDGBDs-SrtWcaNYYb-98"/><g data-cell-id="3sGnDGBDs-SrtWcaNYYb-96"/><g data-cell-id="3sGnDGBDs-SrtWcaNYYb-116"/><g data-cell-id="3sGnDGBDs-SrtWcaNYYb-117"/><g data-cell-id="3sGnDGBDs-SrtWcaNYYb-118"/><g data-cell-id="3sGnDGBDs-SrtWcaNYYb-119"/><g data-cell-id="3sGnDGBDs-SrtWcaNYYb-120"><g data-cell-id="3sGnDGBDs-SrtWcaNYYb-121"><g data-cell-id="3sGnDGBDs-SrtWcaNYYb-122"/><g data-cell-id="3sGnDGBDs-SrtWcaNYYb-123"/></g></g><g data-cell-id="3sGnDGBDs-SrtWcaNYYb-124"><g data-cell-id="3sGnDGBDs-SrtWcaNYYb-125"><g data-cell-id="3sGnDGBDs-SrtWcaNYYb-126"/><g data-cell-id="3sGnDGBDs-SrtWcaNYYb-127"/></g></g><g data-cell-id="3sGnDGBDs-SrtWcaNYYb-128"/><g data-cell-id="3sGnDGBDs-SrtWcaNYYb-129"/><g data-cell-id="3sGnDGBDs-SrtWcaNYYb-130"/><g data-cell-id="3sGnDGBDs-SrtWcaNYYb-131"/><g data-cell-id="3sGnDGBDs-SrtWcaNYYb-132"/><g data-cell-id="3sGnDGBDs-SrtWcaNYYb-133"/><g data-cell-id="3sGnDGBDs-SrtWcaNYYb-134"/><g data-cell-id="3sGnDGBDs-SrtWcaNYYb-135"><g data-cell-id="3sGnDGBDs-SrtWcaNYYb-136"><g data-cell-id="3sGnDGBDs-SrtWcaNYYb-137"/><g data-cell-id="3sGnDGBDs-SrtWcaNYYb-138"/></g></g><g data-cell-id="3sGnDGBDs-SrtWcaNYYb-139"><g data-cell-id="3sGnDGBDs-SrtWcaNYYb-140"><g data-cell-id="3sGnDGBDs-SrtWcaNYYb-141"/><g data-cell-id="3sGnDGBDs-SrtWcaNYYb-142"/></g></g><g data-cell-id="3sGnDGBDs-SrtWcaNYYb-143"/><g data-cell-id="3sGnDGBDs-SrtWcaNYYb-144"/><g data-cell-id="3sGnDGBDs-SrtWcaNYYb-145"/><g data-cell-id="3sGnDGBDs-SrtWcaNYYb-146"/><g data-cell-id="3sGnDGBDs-SrtWcaNYYb-147"/><g data-cell-id="3sGnDGBDs-SrtWcaNYYb-148"/><g data-cell-id="3sGnDGBDs-SrtWcaNYYb-149"/><g data-cell-id="3sGnDGBDs-SrtWcaNYYb-150"><g data-cell-id="3sGnDGBDs-SrtWcaNYYb-151"><g data-cell-id="3sGnDGBDs-SrtWcaNYYb-152"/><g data-cell-id="3sGnDGBDs-SrtWcaNYYb-153"/></g></g><g data-cell-id="3sGnDGBDs-SrtWcaNYYb-154"><g data-cell-id="3sGnDGBDs-SrtWcaNYYb-155"><g data-cell-id="3sGnDGBDs-SrtWcaNYYb-156"/><g data-cell-id="3sGnDGBDs-SrtWcaNYYb-157"/></g></g><g data-cell-id="3sGnDGBDs-SrtWcaNYYb-158"><g><g><svg height="122.96" width="251.55" id="svg-image-UFH9sCs-ixY-CID1QMbB" data-name="Capa 2" viewBox="0.002176910638809204 0 207.14781188964844 101.41598510742188" xmlns="http://www.w3.org/2000/svg" x="169.58" y="50.04" style="font-family: initial;">&#xa;  <defs>&#xa;    <style>#svg-image-UFH9sCs-ixY-CID1QMbB .cls-1 { fill: rgb(255, 255, 255); }&#xa;</style>&#xa;  </defs>&#xa;  <g id="Capa_1-2" data-name="Capa 1">&#xa;    <g>&#xa;      <rect class="cls-1" x="4.64" y="5.01" width="196.21" height="90.95"/>&#xa;      <g>&#xa;        <path d="M206.4.22c.24.16.74.87.75,1.19v26c-.54,2.62-1.73,5.08-3.66,7.13-.4,21.37-.07,42.84-.17,64.24.03,1.18-.76,1.76-1.63,2.48-64.92.32-129.89.03-194.83.14-1.18.06-1.89-.82-2.45-1.57l-.11-64.68c-1.56-2.41-3.32-4.52-3.8-7.39C.59,19.64-.45,10.65.24,2.58c.09-1.06.27-1.93,1.28-2.58l204.88.22ZM200.85,5.01H6.76v20.65c0,8.6,14.51,12.33,20.21,4.8,1.72-2.27,1.32-3.99,2.08-6.3s5.18-2.52,6.11-.14c.89,2.25.28,3.97,2.09,6.34,4.82,6.32,16.31,5.29,19.46-1.72.7-1.56.42-2.88.86-4.3.87-2.77,5.59-2.77,6.44.17.68,2.36.14,3.38,1.86,5.76,4.95,6.85,17.57,5.14,19.9-2.73.39-1.32.21-3.83,1.57-4.71,1.55-1.02,4.31-.6,5.06,1.03.43.94.37,2.61.63,3.53,2.45,8.78,17.03,9.77,20.97,1.25.69-1.49.53-3.04,1.1-4.48.73-1.87,3.11-2.45,4.95-1.28,1.72,1.08,1.18,2.32,1.56,3.89,2.45,10.17,18.72,10.24,21.4.93.62-2.15.1-5.5,3.8-5.44,2.66.04,2.98,1.84,3.44,3.64s.39,2.87,1.63,4.56c4.01,5.46,14.32,5.4,18.41,0,1.7-2.25,1.35-3.98,2.08-6.31.78-2.48,5.21-2.43,6.12-.14s.23,3.87,2.09,6.34c5.77,7.7,20.27,3.95,20.27-4.9V5.01ZM57.98,36.52v48.97h5.62v-48.97c0-.18-2.6-2.07-2.81-2.62-.28.67-2.69,2.27-2.81,2.62ZM125.37,75.21v-36.17c-2.96-1.26-5.3-2.97-7.41-5.14-5,6.56-15.59,8.15-23.35,4.15-.71-.36-1.99-1.17-2.6-1.64-.48-.37-2.42-2.39-2.69-2.32-4.52,5.22-11.93,7.15-19.21,5.62v45.77h67.39v-40.82c0-.08.98-1.21,1.06-1.27,1.2-.79,3.18-.76,4.31.11.23.18.91,1,.91,1.15v40.82h5.84v-48.77c0-.19-2.73-2.15-2.81-2.81-1.95,2.16-4.27,3.93-7.18,5.05-2.66,1.03-4.85,1.19-7.75,1.36v37.51c-.04,1.31-1.07,2.32-2.38,2.8l-51.76-.09c-.85-.46-1.9-1.21-2.04-2.12l.02-31.61c.84-2.09,3.41-2.93,5.38-1.37.46.36,1.12,1.23,1.12,1.75v28.02h43.13ZM172.54,36.72v48.77h5.84v-48.77c0-.2-2.77-2.36-3.14-2.81-.02.88-2.56,2.39-2.7,2.81ZM35.07,85.49v-48.77c-.64-.29-2.57-2.67-3-2.6-.32.05-2.22,2.33-2.84,2.6v48.77h5.84ZM22.93,39.53c-2.33.78-5.88.84-8.37.53-1.28-.16-2.47-.9-3.77-.92v46.35h12.13v-45.96ZM196.8,39.14c-1.46.13-2.7.77-4.18.95-2.5.29-5.48.04-7.95-.36v45.77h12.13v-46.35ZM166.25,85.49v-45.96c-3.14,1.01-7.05.65-10.33.19v45.77h10.33ZM51.46,39.72c-3.29.58-6.81.58-10.11,0v45.77h10.11v-45.77ZM196.8,91.12H10.8v4.85h186v-4.85Z"/>&#xa;        <path d="M131.82,22.31c3.75-.56,5.41,3.92,2.06,5.27-4.6,1.85-6.64-4.59-2.06-5.27Z"/>&#xa;        <path d="M163.25,22.92c.37.28,1.23,1.76,1.23,2.16,0,.29-.71,1.64-.96,1.91-.99,1.07-3.3,1.15-4.51.32-.39-.26-1.23-1.66-1.3-2.06-.11-.68,1.01-2.24,1.68-2.6,1.06-.58,2.92-.45,3.86.27Z"/>&#xa;        <path d="M192.68,26.47s-.77.69-.83.73c-3.65,2.32-7.18-1.84-4.37-4.16,2.69-2.22,6.78.63,5.2,3.43Z"/>&#xa;        <path d="M15.19,26.62c-.05-.06-.22-.06-.32-.24-1.7-2.92,3.04-5.61,5.34-3.21,2.97,3.1-2.46,6.72-5.01,3.45Z"/>&#xa;        <path d="M49.1,23.54c.06.07.22.07.32.24,1.74,2.99-3.23,5.59-5.47,3.13-2.73-2.99,2.4-6.63,5.15-3.38Z"/>&#xa;        <path d="M106.38,23.54c.05.06.22.06.32.24,1.7,2.92-3.04,5.61-5.34,3.21-2.97-3.1,2.46-6.72,5.01-3.45Z"/>&#xa;        <path d="M72.48,26.62c-2.45-2.88,2.76-6,5.15-3.38,2.7,2.96-2.35,6.67-5.15,3.38Z"/>&#xa;      </g>&#xa;    </g>&#xa;  </g>&#xa;</svg></g></g></g><g data-cell-id="3sGnDGBDs-SrtWcaNYYb-159"><g><g><svg height="178" width="120" id="svg-image-z94qhjfMe-hDF-kYraA_" data-name="Capa 2" viewBox="0.00936877727508545 -0.004801273345947266 108.28974151611328 159.5882110595703" xmlns="http://www.w3.org/2000/svg" x="-0.42" y="55.4" style="font-family: initial;">&#xa;  <defs>&#xa;    <style>#svg-image-z94qhjfMe-hDF-kYraA_ .cls-1 { fill: rgb(255, 255, 255); }&#xa;</style>&#xa;  </defs>&#xa;  <g id="Capa_1-2" data-name="Capa 1">&#xa;    <g>&#xa;      <path d="M97.47,143.93c4.18-.38,10.01-.21,10.74,6.65.12,1.16.15,7.15-.11,7.94-.23.68-.97,1.15-1.55,1.05l-105.25-.03c-1.68-.42-1.29-6.17-1.15-7.93.63-7.83,6.04-8.09,10.99-7.68v-6.28c0-1.66,3.23-5.6,4.59-5.6h6.69V19.03h-5.64L9.88,2.17C10,.43,11.44-.06,12.56,0l84.45.09c1.41.37,1.77,1.18,1.38,2.99-2.36,4.18-3.65,10.78-5.85,14.83-.19.34-.69,1.11-.98,1.11h-5.25v113.02h6.3c.76,0,2.73,1.71,3.29,2.54.39.58,1.57,3.18,1.57,3.74v5.6ZM94.59,3.75H13.75l4.17,11.33,72.07.21c.34,0,.45-.25.63-.55.53-.88,3.56-8.8,3.84-9.96.08-.35.17-.65.12-1.03ZM25.3,132.05h57.6l.39-.51V19.54l-.39-.51H25.3v113.02ZM94.59,143.93v-5.26c0-1.01-1.79-3.06-2.75-2.89H16.76c-1.06-.38-3.01,2.17-3.01,3.23v4.92h80.83ZM2.99,150.89c-.21,1.51.15,3.66,0,5.26h101.96l.39-.51v-5.09c0-.82-1.88-3.11-2.75-2.89H6c-1.19-.22-2.82,1.9-3.01,3.23Z"/>&#xa;      <path class="cls-1" d="M25.3,132.05V19.03h57.6l.39.51v112.01l-.39.51H25.3ZM53.84,28.24l-19.49,20.99-.6,1.27.06,70.72c.24,1.26.62,1.53,1.59,1.68l38-.08c.93-.28,1.28-1.3,1.25-2.46l-.07-70.2c-.11-.47-1.16-1.67-1.52-2.11-4.57-5.66-11.35-12.76-16.41-17.81-.8-.8-1.8-2.24-2.82-1.99Z"/>&#xa;      <path class="cls-1" d="M94.59,3.75c.05.38-.04.68-.12,1.03-.28,1.17-3.31,9.08-3.84,9.96-.18.3-.29.54-.63.55l-72.07-.21L13.75,3.75h80.83Z"/>&#xa;      <path class="cls-1" d="M2.99,150.89c.18-1.34,1.82-3.45,3.01-3.24h96.6c.87-.21,2.75,2.08,2.75,2.9v5.09l-.39.51H2.99c.15-1.6-.21-3.75,0-5.26Z"/>&#xa;      <path class="cls-1" d="M94.59,143.93H13.75v-4.92c0-1.06,1.95-3.61,3.01-3.24h75.08c.96-.16,2.75,1.89,2.75,2.9v5.26Z"/>&#xa;      <path d="M53.84,28.24c1.02-.24,2.02,1.2,2.82,1.99,5.06,5.05,11.85,12.15,16.41,17.81.36.44,1.41,1.65,1.52,2.11l.07,70.2c.03,1.16-.32,2.18-1.25,2.46l-38,.08c-.97-.15-1.35-.42-1.59-1.68l-.06-70.72.6-1.27,19.49-20.99ZM71.75,119.15V51.44l-17.45-18.84-17.72,18.84v67.71h35.17Z"/>&#xa;      <path class="cls-1" d="M71.75,119.15h-35.17V51.44l17.72-18.84,17.45,18.84v67.71Z"/>&#xa;      <path d="M60.73,62.19h5.9c.81,0,1.13,1.32,1.19,1.98.18,1.91.3,8.69-.02,10.36-.07.35-.74,1.2-.91,1.2h-6.17v26.69c-.04,1.06-.56,1.11-1.43,1.2-2.29.23-8.31.29-10.52,0-.45-.06-.8-.1-1.04-.54l-.13-27.35h-5.9c-.81,0-1.13-1.32-1.19-1.98-.19-2.11-.28-8.12.03-10.08.08-.52.65-1.48,1.16-1.48h5.9c.25-2.62-.34-5.84-.01-8.37.06-.45.1-.81.54-1.05,3.48.12,8.07-.6,11.43-.14.35.05,1.17.34,1.17.68v8.89ZM58.11,55.29h-7.61v8.36c0,.38-.77,1.46-1.18,1.46h-5.9v7.7h5.64c.56,0,1.44.89,1.44,1.46v26.68h7.61v-27.21c0-.11,1.04-.93,1.18-.93h5.64v-7.7h-5.9c-.27,0-.92-.65-.92-.93v-8.89Z"/>&#xa;    </g>&#xa;  </g>&#xa;</svg></g></g></g><g data-cell-id="3sGnDGBDs-SrtWcaNYYb-160"><g><g><svg height="123.47" width="70.72" id="svg-image-PgKLrkFfZZCTamhUMFm6" data-name="Capa 2" viewBox="-0.009570330381393433 -0.0000877082347869873 78.89234924316406 137.77328491210938" xmlns="http://www.w3.org/2000/svg" x="470.86" y="-0.16" style="font-family: initial;">&#xa;  <defs>&#xa;    <style>#svg-image-PgKLrkFfZZCTamhUMFm6 .cls-1 { fill: rgb(255, 255, 255); }&#xa;</style>&#xa;  </defs>&#xa;  <g id="Capa_1-2" data-name="Capa 1">&#xa;    <g>&#xa;      <path d="M11.44,136.14c-.45,1.95-4.98,2.8-5.56-1.2l-.07-44.83c-3.48.08-5.26.43-5.63-3.52-.69-7.38.14-16.58,8.71-18.59.95-.22,2.38.25,2.55-.83V12.25C11.71,5.18,16.1.77,23.12.28c11.44-.79,24.2.34,35.7.36,5.91,1.53,8.57,6.03,8.95,11.88v55.34c5.3-.54,10.51,4.57,10.98,9.7.15,1.68.25,9.61-.14,10.87-.65,2.13-3.34,1.62-5.04,1.71l-.46.66-.02,45.03c-.36,2.2-4,2.52-5.02.83-.11-.18-.59-1.81-.59-1.94v-44.62H11.87l-.42.42v45.61ZM62.12,67.58V11.7c0-.16-.4-1.75-.5-2.03-.85-2.42-3.09-3.57-5.54-3.75-10.68.83-22.99-1.09-33.48.05-2.1.23-3.82,1.14-4.79,3.09-.14.28-.73,1.94-.73,2.08v56.45h45.05ZM73.1,84.47v-6.9c0-.15-.57-1.26-.72-1.53-1.17-2.12-3.08-2.55-5.34-2.83H12.14c-2.6.19-4.9,1.09-5.83,3.73-.1.29-.5,1.87-.5,2.03v5.07l.42.42h66.87Z"/>&#xa;      <path class="cls-1" d="M62.12,67.58H17.08V11.13c0-.15.59-1.81.73-2.08.97-1.94,2.69-2.86,4.79-3.09,10.49-1.13,22.79.78,33.48-.05,2.45.17,4.69,1.32,5.54,3.75.1.29.5,1.87.5,2.03v55.89Z"/>&#xa;      <path class="cls-1" d="M73.1,84.47H6.24l-.42-.42v-5.07c0-.16.4-1.75.5-2.03.93-2.64,3.23-3.54,5.83-3.75h54.91c2.25.29,4.17.72,5.34,2.84.15.27.72,1.38.72,1.53v6.9Z"/>&#xa;    </g>&#xa;  </g>&#xa;</svg></g></g></g><g data-cell-id="3sGnDGBDs-SrtWcaNYYb-182"><g/><g data-cell-id="3sGnDGBDs-SrtWcaNYYb-180"><g><g><svg height="230.31" width="25.37" id="svg-image-e7g3fO4M9olUd7NjZmTK" data-name="Capa 2" viewBox="0.4925566613674164 0.5 12.560580253601074 117.5" xmlns="http://www.w3.org/2000/svg" x="283.03" y="83" style="font-family: initial;">&#xa;  <defs>&#xa;    <style>#svg-image-e7g3fO4M9olUd7NjZmTK .cls-1 { fill: rgb(243, 146, 0); }&#xa;#svg-image-e7g3fO4M9olUd7NjZmTK .cls-1, #svg-image-e7g3fO4M9olUd7NjZmTK .cls-2 { stroke: rgb(29, 29, 27); }&#xa;#svg-image-e7g3fO4M9olUd7NjZmTK .cls-1, #svg-image-e7g3fO4M9olUd7NjZmTK .cls-2, #svg-image-e7g3fO4M9olUd7NjZmTK .cls-3 { stroke-miterlimit: 10; }&#xa;#svg-image-e7g3fO4M9olUd7NjZmTK .cls-2 { fill: rgb(255, 255, 255); }&#xa;#svg-image-e7g3fO4M9olUd7NjZmTK .cls-3 { fill: rgb(14, 18, 32); stroke: rgb(60, 60, 59); }&#xa;</style>&#xa;  </defs>&#xa;  <g id="Capa_1-2" data-name="Capa 1">&#xa;    <g>&#xa;      <rect class="cls-2" x="5.32" y="25.37" width="2.92" height="92.63"/>&#xa;      <polygon class="cls-1" points="12.05 5.6 8.22 5.6 8.22 .5 5.34 .5 5.34 3.24 5.34 5.6 1.31 5.6 1.31 8.48 3.39 8.48 5.34 8.48 5.34 21.98 8.22 21.98 8.22 8.48 12.05 8.48 12.05 5.6"/>&#xa;      <path class="cls-3" d="M11.85,25.8H1.7c-.08,0-.15-.06-.19-.15l-1-2.71c-.03-.08-.02-.16.02-.23.04-.07.1-.11.17-.11h12.15c.07,0,.13.04.17.11.04.07.04.16.02.23l-1,2.71c-.03.09-.11.15-.19.15ZM1.84,25.3h9.88l.82-2.22H1.02l.82,2.22Z"/>&#xa;    </g>&#xa;  </g>&#xa;</svg></g></g></g><g data-cell-id="3sGnDGBDs-SrtWcaNYYb-181"><g><g><svg height="155.26" width="67.43" id="svg-image-avFC77LM1FkGGftNvCIh" data-name="Capa 2" viewBox="0.24853229522705078 0.12691974639892578 43.306880950927734 98.50568389892578" xmlns="http://www.w3.org/2000/svg" x="262" y="183.3" style="font-family: initial;">&#xa;  <defs>&#xa;    <style>#svg-image-avFC77LM1FkGGftNvCIh .cls-1 { fill: rgb(67, 41, 24); stroke: rgb(67, 41, 24); }&#xa;#svg-image-avFC77LM1FkGGftNvCIh .cls-1, #svg-image-avFC77LM1FkGGftNvCIh .cls-2, #svg-image-avFC77LM1FkGGftNvCIh .cls-3, #svg-image-avFC77LM1FkGGftNvCIh .cls-4, #svg-image-avFC77LM1FkGGftNvCIh .cls-5, #svg-image-avFC77LM1FkGGftNvCIh .cls-6, #svg-image-avFC77LM1FkGGftNvCIh .cls-7 { stroke-miterlimit: 10; }&#xa;#svg-image-avFC77LM1FkGGftNvCIh .cls-1, #svg-image-avFC77LM1FkGGftNvCIh .cls-3, #svg-image-avFC77LM1FkGGftNvCIh .cls-7 { stroke-width: 0.25px; }&#xa;#svg-image-avFC77LM1FkGGftNvCIh .cls-8, #svg-image-avFC77LM1FkGGftNvCIh .cls-2 { fill: rgb(255, 255, 255); }&#xa;#svg-image-avFC77LM1FkGGftNvCIh .cls-2, #svg-image-avFC77LM1FkGGftNvCIh .cls-4, #svg-image-avFC77LM1FkGGftNvCIh .cls-5 { stroke-width: 0.5px; }&#xa;#svg-image-avFC77LM1FkGGftNvCIh .cls-2, #svg-image-avFC77LM1FkGGftNvCIh .cls-4, #svg-image-avFC77LM1FkGGftNvCIh .cls-5, #svg-image-avFC77LM1FkGGftNvCIh .cls-6 { stroke: rgb(29, 29, 27); }&#xa;#svg-image-avFC77LM1FkGGftNvCIh .cls-3 { fill: none; stroke: rgb(112, 111, 111); }&#xa;#svg-image-avFC77LM1FkGGftNvCIh .cls-4, #svg-image-avFC77LM1FkGGftNvCIh .cls-6 { fill: rgb(210, 27, 50); }&#xa;#svg-image-avFC77LM1FkGGftNvCIh .cls-5 { fill: rgb(244, 207, 160); }&#xa;#svg-image-avFC77LM1FkGGftNvCIh .cls-6 { stroke-width: 0.75px; }&#xa;#svg-image-avFC77LM1FkGGftNvCIh .cls-7 { fill: rgb(29, 29, 27); stroke: rgb(60, 60, 59); }&#xa;</style>&#xa;  </defs>&#xa;  <g id="Capa_1-2" data-name="Capa 1">&#xa;    <path class="cls-2" d="M4.48,31.46c-11.34,24.04,2.74,19.04,11.53,21.04-.97-.08,1.86-7.5,1.54-7.53-6.87-.68-11.9-.86-6.87-10.05"/>&#xa;    <path class="cls-2" d="M37.79,30.16c15.22,24.87-3.65,21.72-11.28,22.34.97-.08-1.34-7.5-1.02-7.53,6.87-.68,11.9,3.79,5.84-10.64"/>&#xa;    <path class="cls-5" d="M20.35,47.3c-.04,2.24-1.55,3.12-3.04,3.06-1.75-.06-2.98-.79-3.04-3.06-.04-1.69,1.36-3.06,3.04-3.06s3.07,1.37,3.04,3.06Z"/>&#xa;    <path class="cls-5" d="M27.08,47.3c-.04,2.24-1.55,3.12-3.04,3.06-1.75-.06-2.98-.79-3.04-3.06-.04-1.69,1.36-3.06,3.04-3.06s3.07,1.37,3.04,3.06Z"/>&#xa;    <path class="cls-5" d="M16.93,21.26v2.32c3.94,2.75,6.04,1.3,8.22,0v-2c-2.42,1.29-5.37,1.14-8.22-.31"/>&#xa;    <ellipse class="cls-7" cx="11.95" cy="94.11" rx="1.95" ry="6.96" transform="translate(-81.57 78.17) rotate(-73.09)"/>&#xa;    <ellipse class="cls-7" cx="29.27" cy="95.14" rx="6.96" ry="1.95" transform="translate(-20.97 9.21) rotate(-13.21)"/>&#xa;    <path class="cls-6" d="M6.54,72.58c-.48,11.24-1.74,17.42-1.79,21.02,9.9,2.21,33.03,2.27,34.34.37-.34-5.6-2.51-14.15-2.6-21.39H6.54Z"/>&#xa;    <path class="cls-5" d="M32.11,11.56c-.15,8.12-5.61,11.29-11,11.1-6.34-.22-10.8-2.88-11-11.1C9.95,5.43,15.03.46,21.11.46s11.12,4.97,11,11.1Z"/>&#xa;    <path class="cls-2" d="M39.56,74.58l-5.98-36.83c0-1.49,4.45-6.65,4.17-8.17-.39-2.13-3.43-3.81-5.92-3.81H11.41c-8.12,1.34-8.07,6.99-8.06,8.56.01,1.13,1.45,12.1,4.99,2.94l-4.61,37.3h35.84Z"/>&#xa;    <path class="cls-4" d="M14.17,25.91c-3.67,8.8,19.06,9.19,14.08-.17l-3.11-.08v-2.42c-1.21.41-2.42.68-3.62.76-.08,0-.9.02-.96.02-1.22-.02-2.43-.25-3.65-.73l.07,2.47-2.82.14Z"/>&#xa;    <line class="cls-3" x1="14.69" y1="37.28" x2="12.72" y2="72.58"/>&#xa;    <line class="cls-3" x1="27.08" y1="36.94" x2="32.67" y2="72.64"/>&#xa;    <path class="cls-1" d="M10.01,11.07c-1.02,1.83,3.08,13.69,7.57,10.84,13.17,5.81,15.38-10.39,14.31-12.95C25.87-5.56,10.61-.26,10.01,11.07Z"/>&#xa;    <ellipse class="cls-8" cx="5.22" cy="37.84" rx="2.81" ry="4.13"/>&#xa;    <ellipse class="cls-8" cx="35.73" cy="34.04" rx="2.81" ry="5.12"/>&#xa;  </g>&#xa;</svg></g></g></g></g><g data-cell-id="3sGnDGBDs-SrtWcaNYYb-165"><g/><g data-cell-id="3sGnDGBDs-SrtWcaNYYb-166"><g/><g data-cell-id="3sGnDGBDs-SrtWcaNYYb-167"><g><g><svg height="223.38" width="25.47" id="svg-image-Fu5fMszkiXoARHYLu8Rz" data-name="Capa 2" viewBox="0.4925566613674164 -0.009999990463256836 12.560580253601074 113.69999694824219" xmlns="http://www.w3.org/2000/svg" x="322.68" y="193" style="font-family: initial;">&#xa;  <defs>&#xa;    <style>#svg-image-Fu5fMszkiXoARHYLu8Rz .cls-1 { fill: rgb(255, 255, 255); stroke: rgb(29, 29, 27); }&#xa;#svg-image-Fu5fMszkiXoARHYLu8Rz .cls-1, #svg-image-Fu5fMszkiXoARHYLu8Rz .cls-2 { stroke-miterlimit: 10; }&#xa;#svg-image-Fu5fMszkiXoARHYLu8Rz .cls-3, #svg-image-Fu5fMszkiXoARHYLu8Rz .cls-2 { fill: rgb(14, 18, 32); }&#xa;#svg-image-Fu5fMszkiXoARHYLu8Rz .cls-2 { stroke: rgb(60, 60, 59); }&#xa;#svg-image-Fu5fMszkiXoARHYLu8Rz .cls-4 { fill: rgb(230, 51, 42); }&#xa;</style>&#xa;  </defs>&#xa;  <g id="Capa_1-2" data-name="Capa 1">&#xa;    <g>&#xa;      <g>&#xa;        <path class="cls-3" d="M8.67,18.6h-3.79c-.07,0-.12-.11-.12-.25V7.84c0-.87.34-1.58.76-1.58h2.52c.42,0,.76.71.76,1.58v10.52c0,.14-.05.25-.12.25ZM5,18.11h3.56V7.84c0-.6-.23-1.08-.52-1.08h-2.52c-.29,0-.52.49-.52,1.08v10.27Z"/>&#xa;        <path class="cls-4" d="M7.77,1.54c-.17-.4-.36-.78-.52-1.05-.26-.44-.38-.5-.47-.5s-.21.06-.47.5c-.16.27-.35.64-.52,1.05-.16.36-.66,1.59-.66,2.3,0,1.1.74,2,1.65,2s1.65-.9,1.65-2c0-.71-.51-1.94-.66-2.3ZM6.78,5.12c-.49,0-.88-.48-.88-1.07,0-.38.25-1,.33-1.18.35-.82.5-.82.55-.82s.21,0,.55.82c.08.18.33.81.33,1.18,0,.59-.4,1.07-.88,1.07Z"/>&#xa;        <path class="cls-2" d="M11.85,21.32H1.7c-.08,0-.15-.06-.19-.15l-1-2.71c-.03-.08-.02-.16.02-.23.04-.07.1-.11.17-.11h12.15c.07,0,.13.04.17.11.04.07.04.16.02.23l-1,2.71c-.03.09-.11.15-.19.15ZM1.84,20.82h9.88l.82-2.22H1.02l.82,2.22Z"/>&#xa;        <path class="cls-3" d="M7.57,10.04c-.15,0-.33-.09-.49-.37-.11-.18-.18-.38-.25-.58-.03-.08-.06-.16-.09-.24-.12-.29-.24-.46-.37-.51-.19-.06-.39.12-.56.3l-.04.04c-.19.21-.4.44-.66.44-.09,0-.19-.03-.28-.09-.04-.03-.07-.1-.07-.17v-1.4c0-.66.34-1.2.76-1.2h2.52c.42,0,.76.54.76,1.2v.86c0,.06-.02.12-.05.16-.03.04-.07.04-.11.02-.01,0-.03-.02-.04-.02-.07-.04-.13-.08-.18-.07-.11.02-.18.28-.2.36-.02.08-.03.17-.05.26-.02.13-.05.26-.08.39-.05.2-.16.47-.34.58-.05.03-.11.05-.18.05ZM6.29,7.96s.09,0,.13.02c.2.07.37.3.52.68.03.08.06.17.09.26.07.19.13.37.22.51.1.17.27.31.41.22.11-.07.18-.27.21-.38.03-.11.05-.22.07-.34.02-.09.03-.19.05-.28.08-.36.22-.58.39-.61.06-.01.12,0,.17.02v-.59c0-.45-.23-.82-.52-.82h-2.52c-.29,0-.52.37-.52.82v1.27s.08.02.12.02c.18,0,.36-.2.53-.38l.04-.04c.18-.19.39-.38.61-.38Z"/>&#xa;      </g>&#xa;      <rect class="cls-1" x="5.32" y="21.06" width="2.92" height="92.63"/>&#xa;    </g>&#xa;  </g>&#xa;</svg></g></g></g><g data-cell-id="3sGnDGBDs-SrtWcaNYYb-168"><g><g><svg height="155.26" width="67.43" id="svg-image-Z1hvyVOAereLzJVhRrez" data-name="Capa 2" viewBox="0.24853229522705078 0.12691974639892578 43.306880950927734 98.50568389892578" xmlns="http://www.w3.org/2000/svg" x="303.99" y="283.3" style="font-family: initial;">&#xa;  <defs>&#xa;    <style>#svg-image-Z1hvyVOAereLzJVhRrez .cls-1 { fill: rgb(67, 41, 24); stroke: rgb(67, 41, 24); }&#xa;#svg-image-Z1hvyVOAereLzJVhRrez .cls-1, #svg-image-Z1hvyVOAereLzJVhRrez .cls-2, #svg-image-Z1hvyVOAereLzJVhRrez .cls-3, #svg-image-Z1hvyVOAereLzJVhRrez .cls-4, #svg-image-Z1hvyVOAereLzJVhRrez .cls-5, #svg-image-Z1hvyVOAereLzJVhRrez .cls-6, #svg-image-Z1hvyVOAereLzJVhRrez .cls-7 { stroke-miterlimit: 10; }&#xa;#svg-image-Z1hvyVOAereLzJVhRrez .cls-1, #svg-image-Z1hvyVOAereLzJVhRrez .cls-3, #svg-image-Z1hvyVOAereLzJVhRrez .cls-7 { stroke-width: 0.25px; }&#xa;#svg-image-Z1hvyVOAereLzJVhRrez .cls-8, #svg-image-Z1hvyVOAereLzJVhRrez .cls-2 { fill: rgb(255, 255, 255); }&#xa;#svg-image-Z1hvyVOAereLzJVhRrez .cls-2, #svg-image-Z1hvyVOAereLzJVhRrez .cls-4, #svg-image-Z1hvyVOAereLzJVhRrez .cls-5 { stroke-width: 0.5px; }&#xa;#svg-image-Z1hvyVOAereLzJVhRrez .cls-2, #svg-image-Z1hvyVOAereLzJVhRrez .cls-4, #svg-image-Z1hvyVOAereLzJVhRrez .cls-5, #svg-image-Z1hvyVOAereLzJVhRrez .cls-6 { stroke: rgb(29, 29, 27); }&#xa;#svg-image-Z1hvyVOAereLzJVhRrez .cls-3 { fill: none; stroke: rgb(112, 111, 111); }&#xa;#svg-image-Z1hvyVOAereLzJVhRrez .cls-4, #svg-image-Z1hvyVOAereLzJVhRrez .cls-6 { fill: rgb(210, 27, 50); }&#xa;#svg-image-Z1hvyVOAereLzJVhRrez .cls-5 { fill: rgb(244, 207, 160); }&#xa;#svg-image-Z1hvyVOAereLzJVhRrez .cls-6 { stroke-width: 0.75px; }&#xa;#svg-image-Z1hvyVOAereLzJVhRrez .cls-7 { fill: rgb(29, 29, 27); stroke: rgb(60, 60, 59); }&#xa;</style>&#xa;  </defs>&#xa;  <g id="Capa_1-2" data-name="Capa 1">&#xa;    <path class="cls-2" d="M4.48,31.46c-11.34,24.04,2.74,19.04,11.53,21.04-.97-.08,1.86-7.5,1.54-7.53-6.87-.68-11.9-.86-6.87-10.05"/>&#xa;    <path class="cls-2" d="M37.79,30.16c15.22,24.87-3.65,21.72-11.28,22.34.97-.08-1.34-7.5-1.02-7.53,6.87-.68,11.9,3.79,5.84-10.64"/>&#xa;    <path class="cls-5" d="M20.35,47.3c-.04,2.24-1.55,3.12-3.04,3.06-1.75-.06-2.98-.79-3.04-3.06-.04-1.69,1.36-3.06,3.04-3.06s3.07,1.37,3.04,3.06Z"/>&#xa;    <path class="cls-5" d="M27.08,47.3c-.04,2.24-1.55,3.12-3.04,3.06-1.75-.06-2.98-.79-3.04-3.06-.04-1.69,1.36-3.06,3.04-3.06s3.07,1.37,3.04,3.06Z"/>&#xa;    <path class="cls-5" d="M16.93,21.26v2.32c3.94,2.75,6.04,1.3,8.22,0v-2c-2.42,1.29-5.37,1.14-8.22-.31"/>&#xa;    <ellipse class="cls-7" cx="11.95" cy="94.11" rx="1.95" ry="6.96" transform="translate(-81.57 78.17) rotate(-73.09)"/>&#xa;    <ellipse class="cls-7" cx="29.27" cy="95.14" rx="6.96" ry="1.95" transform="translate(-20.97 9.21) rotate(-13.21)"/>&#xa;    <path class="cls-6" d="M6.54,72.58c-.48,11.24-1.74,17.42-1.79,21.02,9.9,2.21,33.03,2.27,34.34.37-.34-5.6-2.51-14.15-2.6-21.39H6.54Z"/>&#xa;    <path class="cls-5" d="M32.11,11.56c-.15,8.12-5.61,11.29-11,11.1-6.34-.22-10.8-2.88-11-11.1C9.95,5.43,15.03.46,21.11.46s11.12,4.97,11,11.1Z"/>&#xa;    <path class="cls-2" d="M39.56,74.58l-5.98-36.83c0-1.49,4.45-6.65,4.17-8.17-.39-2.13-3.43-3.81-5.92-3.81H11.41c-8.12,1.34-8.07,6.99-8.06,8.56.01,1.13,1.45,12.1,4.99,2.94l-4.61,37.3h35.84Z"/>&#xa;    <path class="cls-4" d="M14.17,25.91c-3.67,8.8,19.06,9.19,14.08-.17l-3.11-.08v-2.42c-1.21.41-2.42.68-3.62.76-.08,0-.9.02-.96.02-1.22-.02-2.43-.25-3.65-.73l.07,2.47-2.82.14Z"/>&#xa;    <line class="cls-3" x1="14.69" y1="37.28" x2="12.72" y2="72.58"/>&#xa;    <line class="cls-3" x1="27.08" y1="36.94" x2="32.67" y2="72.64"/>&#xa;    <path class="cls-1" d="M10.01,11.07c-1.02,1.83,3.08,13.69,7.57,10.84,13.17,5.81,15.38-10.39,14.31-12.95C25.87-5.56,10.61-.26,10.01,11.07Z"/>&#xa;    <ellipse class="cls-8" cx="5.22" cy="37.84" rx="2.81" ry="4.13"/>&#xa;    <ellipse class="cls-8" cx="35.73" cy="34.04" rx="2.81" ry="5.12"/>&#xa;  </g>&#xa;</svg></g></g></g></g></g><g data-cell-id="3sGnDGBDs-SrtWcaNYYb-161"><g/><g data-cell-id="3sGnDGBDs-SrtWcaNYYb-162"><g/><g data-cell-id="3sGnDGBDs-SrtWcaNYYb-163"><g><g><svg height="223.38" width="25.47" id="svg-image-9K4crx4_d1e1vJdNfsYQ" data-name="Capa 2" viewBox="0.4925566613674164 -0.009999990463256836 12.560580253601074 113.69999694824219" xmlns="http://www.w3.org/2000/svg" x="234.52" y="193" style="font-family: initial;">&#xa;  <defs>&#xa;    <style>#svg-image-9K4crx4_d1e1vJdNfsYQ .cls-1 { fill: rgb(255, 255, 255); stroke: rgb(29, 29, 27); }&#xa;#svg-image-9K4crx4_d1e1vJdNfsYQ .cls-1, #svg-image-9K4crx4_d1e1vJdNfsYQ .cls-2 { stroke-miterlimit: 10; }&#xa;#svg-image-9K4crx4_d1e1vJdNfsYQ .cls-3, #svg-image-9K4crx4_d1e1vJdNfsYQ .cls-2 { fill: rgb(14, 18, 32); }&#xa;#svg-image-9K4crx4_d1e1vJdNfsYQ .cls-2 { stroke: rgb(60, 60, 59); }&#xa;#svg-image-9K4crx4_d1e1vJdNfsYQ .cls-4 { fill: rgb(230, 51, 42); }&#xa;</style>&#xa;  </defs>&#xa;  <g id="Capa_1-2" data-name="Capa 1">&#xa;    <g>&#xa;      <g>&#xa;        <path class="cls-3" d="M8.67,18.6h-3.79c-.07,0-.12-.11-.12-.25V7.84c0-.87.34-1.58.76-1.58h2.52c.42,0,.76.71.76,1.58v10.52c0,.14-.05.25-.12.25ZM5,18.11h3.56V7.84c0-.6-.23-1.08-.52-1.08h-2.52c-.29,0-.52.49-.52,1.08v10.27Z"/>&#xa;        <path class="cls-4" d="M7.77,1.54c-.17-.4-.36-.78-.52-1.05-.26-.44-.38-.5-.47-.5s-.21.06-.47.5c-.16.27-.35.64-.52,1.05-.16.36-.66,1.59-.66,2.3,0,1.1.74,2,1.65,2s1.65-.9,1.65-2c0-.71-.51-1.94-.66-2.3ZM6.78,5.12c-.49,0-.88-.48-.88-1.07,0-.38.25-1,.33-1.18.35-.82.5-.82.55-.82s.21,0,.55.82c.08.18.33.81.33,1.18,0,.59-.4,1.07-.88,1.07Z"/>&#xa;        <path class="cls-2" d="M11.85,21.32H1.7c-.08,0-.15-.06-.19-.15l-1-2.71c-.03-.08-.02-.16.02-.23.04-.07.1-.11.17-.11h12.15c.07,0,.13.04.17.11.04.07.04.16.02.23l-1,2.71c-.03.09-.11.15-.19.15ZM1.84,20.82h9.88l.82-2.22H1.02l.82,2.22Z"/>&#xa;        <path class="cls-3" d="M7.57,10.04c-.15,0-.33-.09-.49-.37-.11-.18-.18-.38-.25-.58-.03-.08-.06-.16-.09-.24-.12-.29-.24-.46-.37-.51-.19-.06-.39.12-.56.3l-.04.04c-.19.21-.4.44-.66.44-.09,0-.19-.03-.28-.09-.04-.03-.07-.1-.07-.17v-1.4c0-.66.34-1.2.76-1.2h2.52c.42,0,.76.54.76,1.2v.86c0,.06-.02.12-.05.16-.03.04-.07.04-.11.02-.01,0-.03-.02-.04-.02-.07-.04-.13-.08-.18-.07-.11.02-.18.28-.2.36-.02.08-.03.17-.05.26-.02.13-.05.26-.08.39-.05.2-.16.47-.34.58-.05.03-.11.05-.18.05ZM6.29,7.96s.09,0,.13.02c.2.07.37.3.52.68.03.08.06.17.09.26.07.19.13.37.22.51.1.17.27.31.41.22.11-.07.18-.27.21-.38.03-.11.05-.22.07-.34.02-.09.03-.19.05-.28.08-.36.22-.58.39-.61.06-.01.12,0,.17.02v-.59c0-.45-.23-.82-.52-.82h-2.52c-.29,0-.52.37-.52.82v1.27s.08.02.12.02c.18,0,.36-.2.53-.38l.04-.04c.18-.19.39-.38.61-.38Z"/>&#xa;      </g>&#xa;      <rect class="cls-1" x="5.32" y="21.06" width="2.92" height="92.63"/>&#xa;    </g>&#xa;  </g>&#xa;</svg></g></g></g><g data-cell-id="3sGnDGBDs-SrtWcaNYYb-164"><g><g><svg height="155.26" width="67.43" id="svg-image-c6886lKyvZvgYRr0qDG_" data-name="Capa 2" viewBox="0.24853229522705078 0.12691974639892578 43.306880950927734 98.50568389892578" xmlns="http://www.w3.org/2000/svg" x="215.83" y="283.3" style="font-family: initial;">&#xa;  <defs>&#xa;    <style>#svg-image-c6886lKyvZvgYRr0qDG_ .cls-1 { fill: rgb(67, 41, 24); stroke: rgb(67, 41, 24); }&#xa;#svg-image-c6886lKyvZvgYRr0qDG_ .cls-1, #svg-image-c6886lKyvZvgYRr0qDG_ .cls-2, #svg-image-c6886lKyvZvgYRr0qDG_ .cls-3, #svg-image-c6886lKyvZvgYRr0qDG_ .cls-4, #svg-image-c6886lKyvZvgYRr0qDG_ .cls-5, #svg-image-c6886lKyvZvgYRr0qDG_ .cls-6, #svg-image-c6886lKyvZvgYRr0qDG_ .cls-7 { stroke-miterlimit: 10; }&#xa;#svg-image-c6886lKyvZvgYRr0qDG_ .cls-1, #svg-image-c6886lKyvZvgYRr0qDG_ .cls-3, #svg-image-c6886lKyvZvgYRr0qDG_ .cls-7 { stroke-width: 0.25px; }&#xa;#svg-image-c6886lKyvZvgYRr0qDG_ .cls-8, #svg-image-c6886lKyvZvgYRr0qDG_ .cls-2 { fill: rgb(255, 255, 255); }&#xa;#svg-image-c6886lKyvZvgYRr0qDG_ .cls-2, #svg-image-c6886lKyvZvgYRr0qDG_ .cls-4, #svg-image-c6886lKyvZvgYRr0qDG_ .cls-5 { stroke-width: 0.5px; }&#xa;#svg-image-c6886lKyvZvgYRr0qDG_ .cls-2, #svg-image-c6886lKyvZvgYRr0qDG_ .cls-4, #svg-image-c6886lKyvZvgYRr0qDG_ .cls-5, #svg-image-c6886lKyvZvgYRr0qDG_ .cls-6 { stroke: rgb(29, 29, 27); }&#xa;#svg-image-c6886lKyvZvgYRr0qDG_ .cls-3 { fill: none; stroke: rgb(112, 111, 111); }&#xa;#svg-image-c6886lKyvZvgYRr0qDG_ .cls-4, #svg-image-c6886lKyvZvgYRr0qDG_ .cls-6 { fill: rgb(210, 27, 50); }&#xa;#svg-image-c6886lKyvZvgYRr0qDG_ .cls-5 { fill: rgb(244, 207, 160); }&#xa;#svg-image-c6886lKyvZvgYRr0qDG_ .cls-6 { stroke-width: 0.75px; }&#xa;#svg-image-c6886lKyvZvgYRr0qDG_ .cls-7 { fill: rgb(29, 29, 27); stroke: rgb(60, 60, 59); }&#xa;</style>&#xa;  </defs>&#xa;  <g id="Capa_1-2" data-name="Capa 1">&#xa;    <path class="cls-2" d="M4.48,31.46c-11.34,24.04,2.74,19.04,11.53,21.04-.97-.08,1.86-7.5,1.54-7.53-6.87-.68-11.9-.86-6.87-10.05"/>&#xa;    <path class="cls-2" d="M37.79,30.16c15.22,24.87-3.65,21.72-11.28,22.34.97-.08-1.34-7.5-1.02-7.53,6.87-.68,11.9,3.79,5.84-10.64"/>&#xa;    <path class="cls-5" d="M20.35,47.3c-.04,2.24-1.55,3.12-3.04,3.06-1.75-.06-2.98-.79-3.04-3.06-.04-1.69,1.36-3.06,3.04-3.06s3.07,1.37,3.04,3.06Z"/>&#xa;    <path class="cls-5" d="M27.08,47.3c-.04,2.24-1.55,3.12-3.04,3.06-1.75-.06-2.98-.79-3.04-3.06-.04-1.69,1.36-3.06,3.04-3.06s3.07,1.37,3.04,3.06Z"/>&#xa;    <path class="cls-5" d="M16.93,21.26v2.32c3.94,2.75,6.04,1.3,8.22,0v-2c-2.42,1.29-5.37,1.14-8.22-.31"/>&#xa;    <ellipse class="cls-7" cx="11.95" cy="94.11" rx="1.95" ry="6.96" transform="translate(-81.57 78.17) rotate(-73.09)"/>&#xa;    <ellipse class="cls-7" cx="29.27" cy="95.14" rx="6.96" ry="1.95" transform="translate(-20.97 9.21) rotate(-13.21)"/>&#xa;    <path class="cls-6" d="M6.54,72.58c-.48,11.24-1.74,17.42-1.79,21.02,9.9,2.21,33.03,2.27,34.34.37-.34-5.6-2.51-14.15-2.6-21.39H6.54Z"/>&#xa;    <path class="cls-5" d="M32.11,11.56c-.15,8.12-5.61,11.29-11,11.1-6.34-.22-10.8-2.88-11-11.1C9.95,5.43,15.03.46,21.11.46s11.12,4.97,11,11.1Z"/>&#xa;    <path class="cls-2" d="M39.56,74.58l-5.98-36.83c0-1.49,4.45-6.65,4.17-8.17-.39-2.13-3.43-3.81-5.92-3.81H11.41c-8.12,1.34-8.07,6.99-8.06,8.56.01,1.13,1.45,12.1,4.99,2.94l-4.61,37.3h35.84Z"/>&#xa;    <path class="cls-4" d="M14.17,25.91c-3.67,8.8,19.06,9.19,14.08-.17l-3.11-.08v-2.42c-1.21.41-2.42.68-3.62.76-.08,0-.9.02-.96.02-1.22-.02-2.43-.25-3.65-.73l.07,2.47-2.82.14Z"/>&#xa;    <line class="cls-3" x1="14.69" y1="37.28" x2="12.72" y2="72.58"/>&#xa;    <line class="cls-3" x1="27.08" y1="36.94" x2="32.67" y2="72.64"/>&#xa;    <path class="cls-1" d="M10.01,11.07c-1.02,1.83,3.08,13.69,7.57,10.84,13.17,5.81,15.38-10.39,14.31-12.95C25.87-5.56,10.61-.26,10.01,11.07Z"/>&#xa;    <ellipse class="cls-8" cx="5.22" cy="37.84" rx="2.81" ry="4.13"/>&#xa;    <ellipse class="cls-8" cx="35.73" cy="34.04" rx="2.81" ry="5.12"/>&#xa;  </g>&#xa;</svg></g></g></g></g></g></g></g></g></svg>