<?xml version="1.0" encoding="UTF-8"?>
<!DOCTYPE svg PUBLIC "-//W3C//DTD SVG 1.1//EN" "http://www.w3.org/Graphics/SVG/1.1/DTD/svg11.dtd">
<svg xmlns="http://www.w3.org/2000/svg" style="background: #ffffff; background-color: light-dark(#ffffff, #121212); color-scheme: light dark;" xmlns:xlink="http://www.w3.org/1999/xlink" version="1.1" width="818px" height="326px" viewBox="-0.5 -0.5 818 326"><defs/><rect fill="#ffffff" width="100%" height="100%" x="0" y="0" style="fill: light-dark(rgb(255, 255, 255), rgb(18, 18, 18));"/><g><g data-cell-id="0"><g data-cell-id="1"><g data-cell-id="bqs7aqz5oVswFRp6lL_z-114"/><g data-cell-id="bqs7aqz5oVswFRp6lL_z-23"/><g data-cell-id="bqs7aqz5oVswFRp6lL_z-5"/><g data-cell-id="bqs7aqz5oVswFRp6lL_z-9"/><g data-cell-id="bqs7aqz5oVswFRp6lL_z-13"/><g data-cell-id="bqs7aqz5oVswFRp6lL_z-16"/><g data-cell-id="bqs7aqz5oVswFRp6lL_z-17"><g data-cell-id="bqs7aqz5oVswFRp6lL_z-14"/><g data-cell-id="bqs7aqz5oVswFRp6lL_z-15"/></g><g data-cell-id="bqs7aqz5oVswFRp6lL_z-18"><g data-cell-id="bqs7aqz5oVswFRp6lL_z-19"/><g data-cell-id="bqs7aqz5oVswFRp6lL_z-20"/></g><g data-cell-id="bqs7aqz5oVswFRp6lL_z-21"/><g data-cell-id="bqs7aqz5oVswFRp6lL_z-22"/><g data-cell-id="bqs7aqz5oVswFRp6lL_z-24"/><g data-cell-id="bqs7aqz5oVswFRp6lL_z-25"/><g data-cell-id="bqs7aqz5oVswFRp6lL_z-73"><g data-cell-id="bqs7aqz5oVswFRp6lL_z-77"><g data-cell-id="bqs7aqz5oVswFRp6lL_z-75"/><g data-cell-id="bqs7aqz5oVswFRp6lL_z-76"/></g></g><g data-cell-id="bqs7aqz5oVswFRp6lL_z-78"><g data-cell-id="bqs7aqz5oVswFRp6lL_z-79"><g data-cell-id="bqs7aqz5oVswFRp6lL_z-80"/><g data-cell-id="bqs7aqz5oVswFRp6lL_z-81"/></g></g><g data-cell-id="bqs7aqz5oVswFRp6lL_z-82"/><g data-cell-id="bqs7aqz5oVswFRp6lL_z-83"/><g data-cell-id="bqs7aqz5oVswFRp6lL_z-84"/><g data-cell-id="bqs7aqz5oVswFRp6lL_z-85"><g data-cell-id="bqs7aqz5oVswFRp6lL_z-86"><g data-cell-id="bqs7aqz5oVswFRp6lL_z-87"/><g data-cell-id="bqs7aqz5oVswFRp6lL_z-88"/></g></g><g data-cell-id="bqs7aqz5oVswFRp6lL_z-89"><g data-cell-id="bqs7aqz5oVswFRp6lL_z-90"><g data-cell-id="bqs7aqz5oVswFRp6lL_z-91"/><g data-cell-id="bqs7aqz5oVswFRp6lL_z-92"/></g></g><g data-cell-id="bqs7aqz5oVswFRp6lL_z-93"/><g data-cell-id="bqs7aqz5oVswFRp6lL_z-94"/><g data-cell-id="bqs7aqz5oVswFRp6lL_z-95"/><g data-cell-id="bqs7aqz5oVswFRp6lL_z-96"/><g data-cell-id="bqs7aqz5oVswFRp6lL_z-98"/><g data-cell-id="bqs7aqz5oVswFRp6lL_z-99"/><g data-cell-id="bqs7aqz5oVswFRp6lL_z-100"/><g data-cell-id="bqs7aqz5oVswFRp6lL_z-101"/><g data-cell-id="bqs7aqz5oVswFRp6lL_z-102"/><g data-cell-id="bqs7aqz5oVswFRp6lL_z-103"/><g data-cell-id="bqs7aqz5oVswFRp6lL_z-104"><g data-cell-id="bqs7aqz5oVswFRp6lL_z-105"><g data-cell-id="bqs7aqz5oVswFRp6lL_z-106"/><g data-cell-id="bqs7aqz5oVswFRp6lL_z-107"/></g></g><g data-cell-id="bqs7aqz5oVswFRp6lL_z-108"><g data-cell-id="bqs7aqz5oVswFRp6lL_z-109"><g data-cell-id="bqs7aqz5oVswFRp6lL_z-110"/><g data-cell-id="bqs7aqz5oVswFRp6lL_z-111"/></g></g><g data-cell-id="bqs7aqz5oVswFRp6lL_z-115"/><g data-cell-id="bqs7aqz5oVswFRp6lL_z-116"/><g data-cell-id="bqs7aqz5oVswFRp6lL_z-117"/><g data-cell-id="bqs7aqz5oVswFRp6lL_z-118"/><g data-cell-id="bqs7aqz5oVswFRp6lL_z-128"/><g data-cell-id="bqs7aqz5oVswFRp6lL_z-129"/><g data-cell-id="bqs7aqz5oVswFRp6lL_z-130"/><g data-cell-id="bqs7aqz5oVswFRp6lL_z-131"/><g data-cell-id="bqs7aqz5oVswFRp6lL_z-132"/><g data-cell-id="bqs7aqz5oVswFRp6lL_z-133"/><g data-cell-id="bqs7aqz5oVswFRp6lL_z-144"/><g data-cell-id="bqs7aqz5oVswFRp6lL_z-145"/><g data-cell-id="bqs7aqz5oVswFRp6lL_z-146"/><g data-cell-id="bqs7aqz5oVswFRp6lL_z-147"/><g data-cell-id="bqs7aqz5oVswFRp6lL_z-156"/><g data-cell-id="bqs7aqz5oVswFRp6lL_z-157"/><g data-cell-id="bqs7aqz5oVswFRp6lL_z-172"/><g data-cell-id="bqs7aqz5oVswFRp6lL_z-173"/><g data-cell-id="bqs7aqz5oVswFRp6lL_z-174"/><g data-cell-id="bqs7aqz5oVswFRp6lL_z-175"/><g data-cell-id="bqs7aqz5oVswFRp6lL_z-176"><g data-cell-id="bqs7aqz5oVswFRp6lL_z-177"><g data-cell-id="bqs7aqz5oVswFRp6lL_z-178"/><g data-cell-id="bqs7aqz5oVswFRp6lL_z-179"/></g></g><g data-cell-id="bqs7aqz5oVswFRp6lL_z-180"><g data-cell-id="bqs7aqz5oVswFRp6lL_z-181"><g data-cell-id="bqs7aqz5oVswFRp6lL_z-182"/><g data-cell-id="bqs7aqz5oVswFRp6lL_z-183"/></g></g><g data-cell-id="bqs7aqz5oVswFRp6lL_z-184"><g><g><svg height="235.26" width="113" id="svg-image-ng-E9RBxtspgk6wLj2ST" data-name="Capa 2" viewBox="-0.002373918890953064 -0.0005201101303100586 183.20350646972656 381.3153076171875" xmlns="http://www.w3.org/2000/svg" x="335.22" y="0" style="font-family: initial;">&#xa;  <defs>&#xa;    <style>#svg-image-ng-E9RBxtspgk6wLj2ST .cls-1 { fill: rgb(29, 29, 27); }&#xa;#svg-image-ng-E9RBxtspgk6wLj2ST .cls-2 { fill: rgb(255, 255, 255); }&#xa;#svg-image-ng-E9RBxtspgk6wLj2ST .cls-3 { fill: rgb(7, 105, 82); }&#xa;#svg-image-ng-E9RBxtspgk6wLj2ST .cls-4 { fill: rgb(174, 126, 111); }&#xa;#svg-image-ng-E9RBxtspgk6wLj2ST .cls-5 { fill: rgb(3, 74, 62); }&#xa;#svg-image-ng-E9RBxtspgk6wLj2ST .cls-6 { fill: rgb(149, 180, 141); }&#xa;#svg-image-ng-E9RBxtspgk6wLj2ST .cls-7 { fill: rgb(209, 208, 208); }&#xa;</style>&#xa;  </defs>&#xa;  <g id="Capa_1-2" data-name="Capa 1">&#xa;    <g>&#xa;      <path class="cls-3" d="M94.09,66.51s-.15.79.25.86c.87.16,2.76-1.5,3.86-.81.88.55-.49,3.85,1.94,3.67,1.82-.14,2.23-4.81,5.18-3.72.29.28-1.19,3.71.62,3.33.25-.05,3.27-3.29,3.54-3.66,2.19-2.97,3.75-7.39,4.81-10.9.16-.54.19-1.11.2-1.68l7.49,8.74c-.11.38-.31.58-.42.83-.83-.71-.95.07-1.45.41-6.61,4.6-15.13,10.47-23.33,11.24-2.32.22-11.77.42-13.65,0-.31-.07-.33-.69-.62-.79-4.78-1.56-8.82-3.29-13.21-5.86-2.48-1.45-4.88-3.14-7.08-4.99-.81-.16-.49.13-.71.52-.83,1.51.37,1.13,1.45,1.96.44.34.6,1.23,1.15,1.26-1.48,7.98-1.37,15.89-1.65,23.95-.25,7.21.46,23.46-1.27,29.33-.27.93-1.19,1.86-1.22,1.97-2.04,6.57-1.84,14.65-2.96,21.52-1.2,7.35-1.19,15.37-1.65,22.91-.97,15.68-.88,31.44-1.26,47.02-.74,29.77-1.51,59.37-3.72,89.1-.15,1.99.18,8.58-.79,9.95-.32.45-.99.32-1.46.22-3.06-.67-9.13-2.3-11.91-3.52-1.55-.68-5.48-3.16-5.43-4.98,0-.22.78-.18.85-.5.21-.86-.11-2.07.11-3.16,1.06-5.17,2-11.09,2.38-16.39.11-1.58-.72-3.34-.38-5.34.22-1.28,1.94-3.75,2.06-4.63s-.45-2.15-.46-3.29c0-3.84.12-7.5.29-11.32.37-7.98.89-16.26,1.83-24.06.19-1.55-.51-3.54-.35-4.51.1-.64.97-1.52,1.25-2.51.93-3.28.12-4.23-.06-6.75-.11-1.49.82-4.53.78-6.18-.03-1.47-.86-3.6-.83-5.05.01-.56,1.61-1.07,1.33-3.76-.08-.78-.83-.56-.89-.87-.26-1.36,1.41-2.59,1.65-4.13.69-4.41-.19-10.35.96-14.86,1.4-5.48,1.12-8.81,2.08-14.15.43-2.4,1.83-5.69,1.99-8.02.23-3.3.04-5.57.91-9.05,1.03-4.1,2.35-8.02,1.07-12.5-.23-.81-1.45-1.1-1.6-2.19-.2-1.54.38-6.37.45-8.29.25-6.89.95-13.68,1.6-20.46.57-5.93,1.64-11.68,2.44-17.54.73-5.3,1.67-10.55,1.34-15.93-1.06-.07-1.7,1.03-2.1,1.85-3.21,6.66-3.41,18.4-4.6,25.79-.54,3.31-3.02,7.41-3.92,11.9-4.15,20.63-4.52,42.92-5.61,63.9-1.35,25.92-2.59,51.9-3.76,77.83-.08,1.82.48,3.44.01,5.22-2.66-1.91-8.13-6.5-8.71-9.81-.63-3.63.82-7.61,1.22-11.22.16-1.47-.22-3.22-.03-4.6.11-.8.87-.56.88-.83.21-6.19.15-12.87.56-18.63.2-2.8,0-3.53-.16-5.69-.51-7.22,1.84-16.81,2.11-24.34.03-.87.07-1.99-.44-2.72,1.12.39.76-1.66.8-2.28,1.41-19.09,4.18-37.61,6.24-56.24.83-7.54,1.11-15.29,2.12-22.85.43-3.22,1.57-5.34,1.69-9.18.03-1.09-.42-1.97-.44-2.9-.02-1.01,1.21-3.76-.21-4.37-1.49-.64-.81.9-1.05,1.35-1.75,3.28-2.95,15.51-3.31,20.09-.31,3.9.34,5.3-.87,9.13-.42,1.34-.86,4.75-1.11,6.37-2.16,13.74-2.78,27.7-4.27,41.52-.58,5.34-1.27,10.72-2.09,16.02l-18.73-11c.5-1.83.56-4.47,1.37-6.15.45-.93,1.3-1.31,1.76-2.4,1.31-3.05.42-6.75,3.52-10.23.52-.58,1.37-.42,1.72-.87.18-.23,1.89-5.07,1.98-5.45.21-.86-.37-1.75-.32-2.75.1-2.23,2.14-4.71,2.41-6.83.23-1.86-.11-.94.46-2.49.42-1.15.35-3.06,1.7-3.66,1.25-.55,2.57,1.12,3.28.61.24-.17,2.23-4.95,2.34-5.37.56-2.18-.15-4.66.29-6.79s2.71-5.33,3.15-6.84c.47-1.6-.21-4.03.11-5.72.16-.84,1.1-1.94,1.45-3.13,2.56-8.75,2.63-16.63,7.05-25.01.56-1.07,2.21-2.34,1.48-3.72,5.56-7.04,12.71-10.48,21.23-12.91.18-.18-.68-.71-.76-1.1-.1-.47,4.38-6.7,5.11-7.66.49-.64,1.4-.72,1.47-.81-.33,1.3,1.41.63,1.65,1.5.14.5-.46,1.44-.21,2.66.07.35,3.09,5.51,3.48,6.11,1.37,2.13,3.05,2.94,4.27,4.49.79,1.01-.25,1.91,2.47,1.47.42-1.43-2.18-4.19.2-3.74,2.53.48,3.36,4.58,6.04,4.16-.83-4.04-.33-4.6,3.75-4.58.77,0,5.59.25,5.83.42Z"/>&#xa;      <path class="cls-3" d="M152.37,95.64c-1.56-1.34-2.03-4.27-2.5-6.25l-.82.2c.61,1.67.53,3.6.87,5.37.49,2.59,2.21,10.03,3.4,11.81.06.09,1.36.13.69.91-.05.06-1.43-.12-.8.84.02.04.56-.12.8.32,1.3,2.35.45,4.32.94,6.47.45,1.98,1.21,3.2,1.72,5.85s1.41,5.11,1.16,7.92l4.42,2.68c.48.21,1.6-.5,1.77-.34.27.25.71,4.04.93,4.7.81,2.4,1.13,1.11,1.66,4.97.46,3.39,1.98,7.97,3.01,11.18.45,1.39,2.45,2.29,3.04,3.62,1.17,2.61,1.08,5.91,1.99,8.42.57,1.58,1.84,3.98,2.61,5.72.32.72,1.3,1.21,1.33,1.98.06,1.88-1.88,1.88-2.86,2.55-3,2.04-5.9,3.71-9.14,5.42l-7.54,5.14c-.55-2.1-.24-4.29-.46-6.41-1.95-18.17-3.73-37.06-6.6-55.01-1.08-6.73-1.74-12.61-2.52-19.54-.19-1.66-1.58-13.07-2.08-13.53-.09-.08-.91.05-1.24,0-.17.16.12,3.23.02,3.98-.13.93-.7,1.38-.83,2.08-.41,2.19,2,11,2.43,14.18,1.45,10.94,1.89,24.74,4.22,35.26.53,2.38.55,3.19.83,5.9,1.21,11.86,2.55,23.76,3.74,35.59.54,5.32.71,10.71,1.25,16.02.26,2.5.89,10.5,1.66,12.28.05.13-.06.37,0,.42-1.75-.09-.55,3.67-.42,5s.36,1.04.42,1.25c.27,1.1-.46,4-.43,5.64.08,4.72.66,9.86.84,14.52,0,.24.73.17.83.53.48,1.69.97,11.82.52,13.33-.25.83-2.78,4.51-2.59,4.69.99.92,2.12-2.21,2.91-2.5-.65,1.8-.94,2.01-2.28,3.34l-6.46,5.4c.43-1.18.13-13.03.02-15.21-.9-17.98-2.34-36.1-3.36-54.08-1.42-24.8-1.78-50.4-5.92-74.84-1.11-6.55-3.29-10.71-4.84-16.39-1.18-4.3-.79-9.48-1.72-13.61-.5-2.23-1.09-5.41-1.69-7.95-.49-2.07-2.27-4.6-2.47-6.9h-1.23c-.4.37.19,9.61.51,10.93,2.73,11.57,3.46,22.26,4.81,33.9.37,3.17.07,5.33.14,8.19.06,2.49.92,4.51.37,7.53-.31,1.69-2.86,2.22-2.9,3.31-.05,1.34,1.43,2.71,1.64,3.79.46,2.39-.48,6.23.04,9.53,1.11,7.01,2.11,14.37,3.26,21.3.79,4.74,1.35,7.88,1.8,12.77.12,1.31,1.46,2.71,1.57,3.88.12,1.29-.76,2.97-.44,4.52.1.5,1.21-.04,1.31.46.53,2.72-.95,4.99-.88,7.04.01.33.94,6.16,1.03,6.48.3,1.11,1.78,2.22,1.07,4.15-2.35.61-.21-1.76-2.08-1.67-.85,2.73,1.71,3.82,2.05,6.06.56,3.65-.13,7.82.55,11.94,1.78,10.83,1.46,21.67,3.46,32.34,1.03,5.49-.08,10.68.59,15.57.04.3.75.23.84.55.39,1.51-.52,3.04-.43,4.1.08.99,1.16.84,1.28,1.32.3,1.21-.07,4.23-.03,5.76.05,2-.12,4.51,0,6.22.16,2.24,2.13,6.14,2.11,7.9,0,.34-1,.24-1.48.62-2.49,1.98-6.18,3.55-9.26,4.49-.91.28-4.87.96-5.63.86-3.03-.42-1.51-7.83-1.67-10.06-.62-8.63-1.21-17.77-2.33-26.33-.55-4.21.41-8.25-.04-12.03-.97-8.23-1.32-16.58-1.69-24.94-1.51-33.89-1.12-68.16-5-101.98-.81-7.04-3.36-13.77-4.14-20.63-1.45-12.83-.52-26.01-1.67-38.92-.15-1.69-1.85-10.03-1.66-10.62.11-.33,2.31-2.27,2.91-3.33,11.28,3.29,21.21,8.59,26.3,19.7,1.53,3.35,3.61,8.81,4.51,12.35ZM158.19,262.14c.3-.58-.26-1.11-.41-.83-.3.58.26,1.11.41.83Z"/>&#xa;      <path class="cls-7" d="M43.31,314.6l.84,1.66c.76.16.26-.7.41-.83.84-.72.9,1.05,1.5,1.22.32.09,4.96-.51,5.58-.81.41.02.84-.03,1.25,0-.14,1.68-.04,1.02,1.01,1.26,2.24.51,3.99,2.17,6.06,1.24.35.46-.33,5.99,0,7.21.12.44.81.24.84.28.09.16-.21.89.08,1.17s1.07,0,1.17.08c.12.1-.18,1.45.01,1.65.11.12,2.84.8,3.14.84,1.35.18,2.28-.44,3.29-.4,1.98.07,4.35,1.04,6.3,1.2,11.04.88,23.47.25,34.49-.79,2.28-.21,4.58-.74,6.87-.83l-.83-.82c1.54.32,2.91-.23,4.16-.42.55-.08,1.11-.31,1.67-.42.26-.05.58.05.83,0,.83-.17,1,.03,2.08-.42.2-.08.73.25.85-.26.13-.53.13-1.97-.43-2.24.19-.97.35-1.92.42-2.91s-.05-1.95,0-2.91c.21-.16.34-.76.61-.76.49,0,1.15.44,2.07.36,3.82-.33,7.64-.99,11.47-1.27.48,6.23.68,12.69.85,18.92.23,8.3.21,16.63.34,24.93-.14.54-.5.6-.98.68-1.56.27-10.24.45-10.62.83-.18.18.42,2.01-.41,2.71-.95.8-3.58.32-4.58,1.45-1.64-1.18-6.12-.03-8.1.02-4.49.1-9.22.32-13.55.4-7.13.13-14.61.4-21.65-.83-3.82-.67-10.63-3.54-13.58-3.73-1.66-.11-4.63.69-6.4.82-5.96.43-11.95.85-17.85-.46.01-3.65-.17-7.35-.06-11s.78-7.95.87-11.62c.19-8.21-.59-17.12-.02-25.2Z"/>&#xa;      <path class="cls-5" d="M121.98,116.46c.78,6.86,3.33,13.59,4.14,20.63,3.88,33.82,3.49,68.09,5,101.98.37,8.36.72,16.71,1.69,24.94.45,3.78-.51,7.82.04,12.03,1.12,8.56,1.71,17.7,2.33,26.33.16,2.24-1.36,9.64,1.67,10.06.76.11,4.72-.58,5.63-.86,3.08-.94,6.77-2.51,9.26-4.49.48-.38,1.47-.28,1.48-.62.02-1.76-1.95-5.66-2.11-7.9-.12-1.71.05-4.21,0-6.22-.04-1.53.33-4.56.03-5.76-.12-.48-1.2-.33-1.28-1.32-.09-1.06.82-2.59.43-4.1-.08-.32-.8-.25-.84-.55-.66-4.9.44-10.09-.59-15.57-2-10.67-1.68-21.51-3.46-32.34-.68-4.11.01-8.29-.55-11.94-.35-2.24-2.9-3.33-2.05-6.06,1.86-.1-.27,2.28,2.08,1.67.7-1.92-.77-3.04-1.07-4.15-.09-.32-1.02-6.15-1.03-6.48-.07-2.05,1.41-4.32.88-7.04-.1-.5-1.2.04-1.31-.46-.31-1.55.56-3.23.44-4.52-.11-1.17-1.45-2.57-1.57-3.88-.45-4.89-1.01-8.03-1.8-12.77-1.15-6.92-2.16-14.29-3.26-21.3-.52-3.3.41-7.14-.04-9.53-.21-1.09-1.69-2.46-1.64-3.79.04-1.09,2.59-1.62,2.9-3.31.55-3.02-.31-5.04-.37-7.53-.07-2.86.23-5.01-.14-8.19-1.35-11.64-2.08-22.33-4.81-33.9-.31-1.32-.9-10.56-.51-10.94h1.23c.2,2.3,1.98,4.83,2.47,6.91.61,2.54,1.19,5.72,1.69,7.95.93,4.13.54,9.31,1.72,13.61,1.55,5.68,3.74,9.84,4.84,16.39,4.13,24.44,4.5,50.04,5.92,74.84,1.03,17.98,2.46,36.1,3.36,54.08.11,2.18.41,14.03-.02,15.21-.25.69-1.15,1.45-1.2,2.27l4.04,35.3c-.2.92-1.66,2.43-2.41,3.02-2.81,2.23-10.09,4.47-13.75,5.19-.87.17-3.44.83-3.95.83h-6.24c-.38,0-1.86,1.12-2.71.83-.66-.08-1.41.05-2.08,0v3.33s-.19.8-.42.21c.15-1.19-.19-2.64-.03-3.77s.45-.24.43-2.91c-.09-12.54-.11-24.58-.42-37.01-.29-11.72-.18-23.47-.4-35.19l-.83.61c-.3,10.39.41,20.86,0,31.25-.03.8.43,1.67-.83,1.44-.13-42.67.45-85.37-.02-127.98-.1-9.51.11-19.03.02-28.53ZM150.49,279.63v.42c.27-.14.27-.28,0-.42Z"/>&#xa;      <path class="cls-5" d="M25.41,214.69c.15,2.16.36,2.89.16,5.69-.41,5.76-.35,12.44-.56,18.63,0,.27-.77.03-.88.83-.19,1.38.19,3.13.03,4.6-.39,3.61-1.85,7.59-1.22,11.22.58,3.31,6.05,7.9,8.71,9.81.47-1.78-.09-3.4-.01-5.22,1.17-25.92,2.41-51.91,3.76-77.83,1.1-20.98,1.46-43.27,5.61-63.9.9-4.49,3.38-8.59,3.92-11.9,1.2-7.38,1.39-19.12,4.6-25.79.4-.82,1.04-1.92,2.1-1.85.32,5.37-.61,10.63-1.34,15.93-.81,5.86-1.87,11.61-2.44,17.54-.66,6.78-1.35,13.56-1.6,20.46-.07,1.92-.65,6.75-.45,8.29.14,1.08,1.36,1.37,1.6,2.19,1.28,4.48-.05,8.4-1.07,12.5-.87,3.48-.68,5.75-.91,9.05-.17,2.33-1.56,5.62-1.99,8.02-.96,5.34-.69,8.67-2.08,14.15-1.15,4.51-.27,10.44-.96,14.86-.24,1.54-1.91,2.77-1.65,4.13.06.31.81.08.89.87.27,2.69-1.32,3.2-1.33,3.76-.03,1.45.8,3.58.83,5.05.04,1.65-.89,4.69-.78,6.18.18,2.52.99,3.47.06,6.75-.28.99-1.14,1.87-1.25,2.51-.16.97.54,2.96.35,4.51-.95,7.8-1.47,16.08-1.83,24.06-.18,3.82-.3,7.48-.29,11.32,0,1.14.57,2.39.46,3.29s-1.84,3.35-2.06,4.63c-.34,2.01.49,3.76.38,5.34-.38,5.29-1.32,11.22-2.38,16.39-.22,1.09.1,2.3-.11,3.16-.08.32-.85.28-.85.5-.04,1.82,3.89,4.3,5.43,4.98,2.77,1.22,8.85,2.85,11.91,3.52.47.1,1.14.22,1.46-.22.97-1.37.64-7.96.79-9.95,2.22-29.73,2.99-59.33,3.72-89.1.38-15.58.3-31.34,1.26-47.02.46-7.54.45-15.56,1.65-22.91,1.12-6.87.92-14.95,2.96-21.52.04-.11.95-1.04,1.22-1.97.92,24.17.18,48.44.4,72.65.24,26.58,1.11,53.47,1.27,80.11-1.13.4-1.09-2.3-1.09-2.78-.03-5.32.92-12.25.26-17.42-.08-.61-.32-1.29-.83-.61-.18,1.64.24,3.65.02,5.22-1.54,10.98-.89,22.85-.84,34.13.05,10.06-.57,23.14,1.24,32.87.21,1.1-.45,1.15,1.24,1.03-.07.75.06,1.4-.83,1.67-.1-.08-.88.2-1.17-.08s0-1.01-.08-1.17l-.42-10.41-.24-.37c-1.32-.09-2.62-.29-3.92-.47-3.87-.52-8.91-.52-12.49-1.25-.07-.01-.4-.52-.81-.63-4.92-1.24-11.63-2.97-13.67-8.02l3.69-34.86c-3.71-7.47-11.91-7.74-11.69-17.88.13-6.04,1.87-14.62,2.51-21.04,0-.08.43-.44.45-1.02.02-.47-.4-3.15-.57-3.45-.11-.2-2.43-3.17-2.81-3.62-.46-.54-1.82-.89-1.97-1.75-.09-.52.39-1.32.35-2.03-.08-1.4-1.23-2.55-.45-4.38.56.14,1.11.28,1.67.42-.77,1.91-.61,7.16,1.94,7.4,2.83.26,1.55-4.76,1.81-6.57,1.08.03.66-.29.83-.83.06-.17.25-.32.42-.42Z"/>&#xa;      <path class="cls-4" d="M80.77,4.07l2.19-2.22C88.2,0,93.76-.34,99.31.29c.26.03,3.79,2.71,4.21,3.08.53.46.7,1.5,1.43,2.11s3.3,1.32,3.61,1.62c.17.17.06.75.25.95,1.16,1.3,1.74,1.74,1.93,3.71.35,3.63-1.41,8.31-.83,12.02.07.41.97.34,1.18.93.78,2.2-.42,4.61-.77,6.4l-1.67-.2v3.53s1.67-1.66,1.67-1.66c0,.05.42.34.4.96-.05,1.43-.92,4.14-2.03,5.11-1.42,1.24-1.65-.23-2.11,2.67-.61.39-.75,1-.83,1.67-.07.58-.05,1.48,0,2.08l-.42.83c-.07.07.02.92,0,1.25-.07.87.1,1.72-.09,2.61-.53,2.41-9.48,11.15-11.77,12.79-.49.35-1.01.84-1.67.82-1.69-.06-9.07-7.43-10.37-9.17-.58-.79-2.57-3.83-2.74-4.54-.12-.52.03-1.45,0-2.08-.03-.67.27-1.73-.42-2.08,0-.28,0-.56,0-.83.02-.45.1-1.05-.42-1.25.15-1.72-.45-2.39-.83-3.75-.11-.39.13-1.55,0-1.67-.18-.16-1.83.17-2.08,0-.19-.12-.03-2.12-1.25-1.67-.03-.12.02-.27,0-.42v-.42c-.04-.69.03-1.39,0-2.08-.01-.28.01-.56,0-.83,2,1.06,1.76-1.46,2.09-2.7l-2.09-.21c0-.14,0-.28,0-.42-.02-.41.02-.83,0-1.25l1.66-1.66c-.14.5.92,3.22,1.66,2.5.16-.16,1.2-3.86,1.27-4.36.31-2.53-.6-5.02-.32-7.39.22-1.89,2.55-7.8,4.69-7.82.72,0,2.95,2.8,3.12.42.68-.23.2.84.64.86,1.36.05,1.23-.97,1.7-1.64.24-.35.9-.4.99-.76.22-.81-.16-2.12,0-3.03.71.15.84.85.87,1.47.06,1.14-1.49,2.62-.25,3.11.18.07,1.01-2.11,1.05-2.49.77-.41,1.27,1.67,2.07.83,1.19-1.24-3.2-7.2-5.82-5.82l.83,2.08c-.84.17-1.05-.76-1.84-.8-.67-.04-4.45.26-5.23.38ZM97.01,9.48c.27.25,1.38.02,1.6-.69.24-.77.19-3.55-.15-4.3-.99-2.17-3.36-1.75-5.19-2.5.64.84,1.99,1.84,2.31,2.89.3.96.18,1.95.19,2.94,1.96.39-.3-3.29,1.66-2.91-.16.89.5,1.9.42,2.7-.06.6-1.2,1.54-.83,1.88ZM99.09,2.82c-.05-.06.05-1.71-.83-.83s.77.78.83.83c.17.14.32,2.45,1.66,2.08.55-1.68-1.51-1.89-1.66-2.08ZM94.09,9.06c1.45-.91,1.24-4.41-.42-4.99l.42,4.99ZM110.32,25.29c-.42-1.43-1.67-.3-2.48-.61-.23-.09-1.88-1.74-2.09-1.46.25.95.59,6.43.83,6.66.05.04,1.2.04,1.24,0,.5-.5.3-5.32,2.5-4.59ZM100.33,24.89c-1.82.04-3.75-1.14-4.99.82.75.06,1.49,0,2.23-.05.52-.04,2.56-.23,2.76-.78ZM86.47,25.44c-.77-.51-1.45-.63-2.36-.56l1.24,1.04c-1.81,1.15-3.63,1.03-4.57,3.34,1.87-.88,3.19-2.13,5.39-.82.61.36.55,1.68,1.68,1.44-.36-.7.54-3.2.42-3.32-.07-.07-.81.05-1.21-.25-.33-.25-.43-.76-.58-.86ZM101.49,27.47c-.68-1.28-5.53-1.39-6.36.33-.64,1.33-.36,2.19,1.03,2.5,0-.94.31-1.89,1.05-2.5.78-.33.53.76.89.85,1.06.24,2.32-.78,3.47.4-.04-.51.15-1.12-.09-1.58ZM96.17,43.2c-.91.07-8.74-.23-8.75.21,2.74,1.4,5.94,1.47,8.75.21-.22,2.02,2.66-.94,3.33-.63.04-1.29-2.79.17-3.33.21Z"/>&#xa;      <path class="cls-5" d="M39.56,76.5c.73,1.39-.92,2.66-1.48,3.72-4.41,8.38-4.49,16.26-7.05,25.01-.35,1.19-1.29,2.3-1.45,3.13-.32,1.7.36,4.12-.11,5.72-.44,1.51-2.72,4.75-3.15,6.84s.28,4.61-.29,6.79c-.11.42-2.1,5.2-2.34,5.37-.71.51-2.03-1.16-3.28-.61-1.35.6-1.28,2.51-1.7,3.66-.57,1.55-.23.62-.46,2.49-.27,2.12-2.31,4.6-2.41,6.83-.04,1,.53,1.88.32,2.75-.09.38-1.8,5.22-1.98,5.45-.35.45-1.2.29-1.72.87-3.09,3.47-2.21,7.18-3.52,10.23-.46,1.09-1.31,1.47-1.76,2.4-.81,1.68-.87,4.32-1.37,6.15l18.73,11c.83-5.3,1.52-10.68,2.09-16.02,1.49-13.82,2.11-27.78,4.27-41.52.25-1.61.69-5.02,1.11-6.37,1.21-3.83.56-5.23.87-9.13.36-4.58,1.56-16.81,3.31-20.09.24-.44-.44-1.99,1.05-1.35s.19,3.36.21,4.37c.02.93.47,1.81.44,2.9-.12,3.84-1.26,5.96-1.69,9.18-1,7.56-1.28,15.31-2.12,22.85-2.06,18.63-4.83,37.15-6.24,56.24-.05.62.31,2.67-.8,2.28-.52-.73-1.95-.92-2.5-1.25-2.73-1.66-5.21-3.8-7.8-5.4-4.15-2.56-10.68-5.21-14.27-8.12-2.92-2.36-.73-2.76.52-5.34.28-.59.2-1.29.32-1.53,6.49-13.36,12.74-27.74,18.1-42.05,4.92-13.13,10.05-37.23,18.12-47.44Z"/>&#xa;      <path class="cls-7" d="M3.35,165.99c-.12.25-.04.95-.32,1.53-1.25,2.58-3.44,2.98-.52,5.34,3.59,2.91,10.12,5.55,14.27,8.12,2.59,1.6,5.06,3.75,7.8,5.4-.19,7.27.25,14.6.02,21.87-.06,1.81-.52,3.36-.43,5.41.03.8-.43,1.67.83,1.44-.18.54.25.86-.83.83-.52-.01-2.97-.64-3.75-.83-.55-.13-1.1-.28-1.67-.42-4.83-1.16-7.94-2.06-12.9-2.5-.71-.06-2.48-.29-2.84-.91-.57-.99,2.67-10.03,3.16-11.88.54-2.07,1.03-4.22,1.57-6.34,1.11-4.36,2.21-8.73,3.14-13.13-.11-1.86-1.76-1.83-3.09-2.77-.97-.68-1.79-2.17-2.98-2.04-.31.03.05,1.29-1.04.85.45-3.13-.7-1.57-1.69-2.27-.39-.28-.25-1.1-.51-1.36s-1.07-.14-1.38-.51c-.1-.12-.21-2.91-.19-3.06.04-.32.67-.34.83-.6.72-1.14.86-2.14,2.51-2.19Z"/>&#xa;      <path class="cls-5" d="M156.53,187.64c-1.19-11.84-2.53-23.74-3.74-35.59-.28-2.71-.3-3.52-.83-5.9-2.33-10.51-2.77-24.32-4.22-35.26-.42-3.18-2.84-11.99-2.43-14.18.13-.69.7-1.15.83-2.08.1-.75-.19-3.82-.02-3.98.34.05,1.16-.08,1.24,0,.5.47,1.89,11.87,2.08,13.53.78,6.93,1.44,12.81,2.52,19.54,2.87,17.95,4.64,36.83,6.6,55.01.23,2.12-.08,4.31.46,6.41l7.54-5.14c3.24-1.71,6.15-3.38,9.14-5.42.99-.67,2.92-.67,2.86-2.55-.03-.77-1.01-1.26-1.33-1.98-.76-1.74-2.04-4.14-2.61-5.72-.91-2.51-.82-5.81-1.99-8.42-.59-1.33-2.59-2.23-3.04-3.62-1.03-3.21-2.55-7.79-3.01-11.18-.53-3.85-.85-2.56-1.66-4.97-.22-.65-.65-4.45-.93-4.7-.17-.16-1.29.55-1.77.34l-4.42-2.68c.25-2.81-.64-5.26-1.16-7.92s-1.27-3.87-1.72-5.85c-.49-2.15.36-4.12-.94-6.47-.24-.44-.78-.28-.8-.32-.63-.96.75-.78.8-.84.67-.78-.63-.82-.69-.91-1.19-1.78-2.91-9.22-3.4-11.81-.34-1.77-.26-3.7-.87-5.37l.82-.2c.47,1.97.94,4.91,2.5,6.25.03.13-.03.28,0,.42.17.74-.04,1.6.83,2.08.02.14-.03.28,0,.42.42,2.09.58,2.02,1.25,3.75,7.4,19.25,13.89,39.09,22.82,57.72,1.72,3.6,3.6,7.13,5.83,10.45.36.75-.11.93-.35,1.34l-.83.83c-.1.14-.28.28-.42.42-.71.41-2.38.86-2.08,1.67-.22.08-.63-.08-.83,0-6.93,2.76-13.2,7.46-19.15,11.66-.65.46-2.11.87-2.91,1.25Z"/>&#xa;      <path class="cls-7" d="M178.59,174.73c.09,1.76-5.8,4.05-5.86,4.42,2.64,8.87,4.47,17.96,6.8,26.9.69,2.65,3,4.63-.11,6.14l-.21-.84c-1.63.56-3.03.89-4.78.84-1.12-.04-2.66-.74-4.36-.41-.85.16-1.21.97-2.09,1.24-2.48.76-5.2.6-7.69,1.25.17-2.29-.83-5.57-.83-7.7v-10.82c0-1.66-.05-3.28.01-5.02.05-1.31-.42-2.88-.01-4.35,5.95-4.2,12.22-8.89,19.15-11.66Z"/>&#xa;      <path class="cls-5" d="M80.35,365.79c.52,1.77-2.36,3.49-2.52,4.37-.36,2,1.03,2.15,1.27,3.34.92,4.71-5.51,6.46-9,6.8-2.06.2-9.89.09-11.39-.99-1.14-.83-1.02-8.33-.8-9.95.35-2.53,2.59-3.92,2.46-6.49,1.78-.13,4.74-.93,6.4-.82,2.94.2,9.76,3.07,13.58,3.73Z"/>&#xa;      <path class="cls-5" d="M123.64,366.21c.51.37,1.94,3.25,2.06,3.98.29,1.88.45,7.72-.06,9.46-.56,1.92-5.04.77-6.76,1.56-3.51.66-14.15-1.85-14.42-6.05-.08-1.21,1.64-4.81,1.29-5.2-.18-.2-3.96-.89-3.75-3.33,4.33-.08,9.06-.3,13.55-.4,1.98-.04,6.46-1.19,8.1-.02Z"/>&#xa;      <path class="cls-7" d="M105.33,47.36c1.08-.28.73.69,1.25,1.67.81,1.52,1.72,3.02,2.5,4.58-.07.15-.29,1.22-.42,1.67-4.17,4.89-8.5,8.82-14.57,11.24-.24-.17-5.06-.41-5.83-.42-3.91-2.29-9.64-4.68-12.49-8.33-.44-.56-1.13-2.75-1.25-2.91,1.01-1.63,2.31-3.45,2.5-5.41.15.08.52-.06.83.21.47.4.74,2.17.83.21.17.71,2.16,3.75,2.74,4.54,1.29,1.75,8.67,9.12,10.37,9.17.65.02,1.18-.47,1.67-.82,2.29-1.64,11.24-10.38,11.77-12.79.2-.89.03-1.74.09-2.61Z"/>&#xa;      <path class="cls-5" d="M121.56,63.18c-.05.12.06.32,0,.42-.61,1.06-2.81,3-2.91,3.33l-1.25-.41c.06.67-.1,1.44,0,2.08l-1.54-.51-13.5,8.99c-3.62.05-8.32,3.67-11.42,3.64-.49,0-3.54-1.8-4.53-2.15-2.17-.77-5.65-1.31-7.71-2.28-2.92-1.38-8.46-6-11.52-8.05-.7-.47-1.57-.33-1.81-.47-.29-.16-.37-1.2-.42-1.25-.1-.1-.69.43-.83.42-.54-.03-.71-.92-1.15-1.26-1.08-.83-2.28-.45-1.45-1.96.21-.38-.1-.68.71-.52,2.21,1.85,4.6,3.54,7.08,4.99,4.39,2.57,8.43,4.3,13.21,5.86.29.09.31.72.62.79,1.88.43,11.33.23,13.65,0,8.19-.77,16.72-6.64,23.33-11.24.5-.34.62-1.12,1.45-.41Z"/>&#xa;      <path class="cls-5" d="M113.65,50.27c.15.12.27.29.42.42,1.04,1.11,8.31,10.35,8.33,11.04.01.39-.4.55-.42.61l-7.49-8.74c0,.56-.03,1.13-.2,1.68-1.06,3.51-2.62,7.93-4.81,10.9-.27.37-3.29,3.6-3.54,3.66-1.81.38-.33-3.05-.62-3.33-2.96-1.09-3.36,3.58-5.18,3.72-2.43.18-1.07-3.12-1.94-3.67-1.1-.69-2.99.97-3.86.81-.4-.07-.21-.84-.25-.86,6.07-2.42,10.4-6.35,14.57-11.24,0,.03.38.27.31.55-.13.52-.93.79-.73,1.53,1.34.33.55-.8.91-1.16.2-.2.83.04,1.19-.35.26-.28,2.05-5.81,2.05-6.4.12.05.31-.06.42,0,.13.47.54.58.83.83Z"/>&#xa;      <path class="cls-5" d="M69.53,49.86c.9.36-.04,1.41-.01,1.85.02.26,1.48.16.44,1.28,2.02-.5.82.2,1.45,1.44.54,1.05,2.24,1.89,2.99,2.63.29.29.99,3.16,1.37.71,2.85,3.65,8.58,6.04,12.49,8.33-4.07-.02-4.58.54-3.75,4.58-2.68.43-3.51-3.67-6.04-4.16-2.38-.45.22,2.31-.2,3.74-2.72.44-1.68-.46-2.47-1.47-1.22-1.55-2.9-2.36-4.27-4.49-.39-.61-3.41-5.77-3.48-6.11-.24-1.23.35-2.17.21-2.66-.24-.87-1.98-.2-1.65-1.5.1-.11.12-.96.47-1.39.82-1.01,1.57-1.83,2.44-2.78Z"/>&#xa;      <path class="cls-1" d="M80.77,4.07c.78-.12,4.56-.42,5.23-.38.79.04,1,.97,1.84.8l-.83-2.08c2.63-1.37,7.01,4.58,5.82,5.82-.8.84-1.3-1.24-2.07-.83-.04.38-.86,2.57-1.05,2.49-1.24-.5.3-1.97.25-3.11-.03-.62-.16-1.32-.87-1.47-.15.91.22,2.22,0,3.03-.1.36-.75.42-.99.76-.47.67-.34,1.69-1.7,1.64-.43-.01.04-1.09-.64-.86-.17,2.38-2.39-.43-3.12-.42-2.14.02-4.47,5.93-4.69,7.82-.28,2.37.64,4.86.32,7.39-.06.5-1.1,4.2-1.27,4.36-.75.72-1.8-2-1.66-2.5l-1.66,1.66c-.04-.74-.36-1.81-.42-2.91.36-.38.77-1.18.83-1.67.16-1.24-.04-2.84,0-4.16s-.03-2.78,0-4.16c1.67-.43,0,2.45,1.85,1.64,1.21-.53,1.28-2.63,1.48-3.72-1.01-.22-1.37.17-2.11.6-.54.31-.86,1.41-.81-.18.11-.17.35-2.83.89-3.89.22-.44,2.75-4.18,3.03-4.46.52-.52,1.63-1.12,2.32-1.22ZM79.1,7.81c.21-1.73-.61-1.73-.41,0h.41ZM78.68,8.23c-1.08-1.01-.75,1.56-.83,1.66l-1.24-.42-.42,2.91h2.08c-1.23-2.6,1.3-2.13,1.67-2.5,1.01-1-.8-.59-.85-.64-.38-.3-.31-.93-.4-1.02Z"/>&#xa;      <path class="cls-4" d="M18.75,214.69c-.78,1.83.37,2.98.45,4.38.04.71-.44,1.51-.35,2.03.15.85,1.5,1.21,1.97,1.75.38.44,2.7,3.41,2.81,3.62.17.29.59,2.98.57,3.45-.02.58-.45.94-.45,1.02.68-3.3-1.29-2.38-3.47-3.82-.51-.34-4.46-3.45-4.64-3.68-1.15-1.53-1.57-5.5-2.7-6.88-1.33-1.64-5.67-2.52-7.09-4.35,4.96.44,8.08,1.33,12.9,2.5Z"/>&#xa;      <path class="cls-4" d="M174.43,212.2c1.75.05,3.16-.28,4.78-.84l.21.84c-2.22,1.08-4.2,2.3-6.36,3.42-.6.31-1.67.2-1.89.39-.29.25-1.47,5.85-2.56,7.22-1.4,1.76-5.63,4.73-7.92,5.19h-.42c.37-2.34.35-1.17,1.26-2.39.5-.67,1.6-2.71,2.08-3.2s1.94-1.01,2.02-1.14c.22-.37-.46-2.14-.4-3.05.07-1.07.9-2.63.87-3.96,1.37-.34,1.35-.75,1.56-.8,2.2-.57,4.68-.54,6.76-1.69Z"/>&#xa;      <path class="cls-5" d="M166.1,214.69c.04,1.33-.8,2.89-.87,3.96-.06.91.62,2.68.4,3.05-.07.13-1.55.66-2.02,1.14s-1.58,2.53-2.08,3.2c-.91,1.22-.89.04-1.26,2.39s.16,6.69.42,9.36c.68,7.11,3.17,13.64.83,20.61-.04.12.04.29,0,.42-.79.28-1.92,3.42-2.91,2.5-.2-.18,2.34-3.86,2.59-4.69.45-1.51-.04-11.64-.52-13.33-.1-.36-.82-.29-.83-.53-.18-4.66-.76-9.81-.84-14.52-.03-1.64.71-4.53.43-5.64,1.47-.6,3.09.58,4.12-1.08.81-1.3.86-4.88.46-6.41.71-.16,1.48-.27,2.08-.42Z"/>&#xa;      <path class="cls-4" d="M138.63,314.6h.42c0,.69-.05,1.4,0,2.08-3.83.27-7.64.94-11.47,1.27-.92.08-1.58-.36-2.07-.36-.27,0-.4.6-.61.76-.09.07-.31-.06-.42,0v-3.33c.68.05,1.42-.08,2.08,0,3.99.47,7.94-.08,12.07-.42Z"/>&#xa;      <path class="cls-6" d="M56.21,314.6c.27,1.88-3.36.02-4.58,1.25-.62.29-5.26.9-5.58.81-.6-.17-.65-1.94-1.5-1.22-.15.13.34.99-.41.83l-.84-1.66c.03-.44.2-.87.42-1.25,3.58.73,8.62.73,12.49,1.25Z"/>&#xa;      <path class="cls-5" d="M76.19,49.02l.42.42c.13.05.31-.05.42,0-.18,1.96-1.49,3.78-2.5,5.41-.03-.04-.58.07-.84-.3-1.22-1.74-2.53-3.54-3.33-5.53,1.61-.43,4.2-.4,5.83,0Z"/>&#xa;      <path class="cls-3" d="M160.69,228.43c.33,3.79.41,7.67.83,11.44.61,5.53,2.67,11.97,1.03,17.29-.21.68.07,1.47-1.03,1.23,2.35-6.96-.15-13.5-.83-20.61-.26-2.67-.8-6.95-.42-9.36h.42Z"/>&#xa;      <path class="cls-3" d="M70.36,49.02c.8,1.99,2.11,3.79,3.33,5.53.26.37.81.26.84.3.12.17.81,2.36,1.25,2.91-.38,2.45-1.07-.42-1.37-.71-.75-.74-2.45-1.57-2.99-2.63-.63-1.24.57-1.94-1.45-1.44,1.04-1.12-.42-1.02-.44-1.28-.03-.43.91-1.48.01-1.85.25-.27-.58-.45.83-.83Z"/>&#xa;      <path class="cls-5" d="M111.57,49.44c-.55,1.17-1.19,2.31-1.74,3.48-.18.38-.72.59-.76.68-.78-1.55-1.68-3.06-2.5-4.58.28,0,.56,0,.83,0,1.04.02,3.02-.41,3.51-.32.44.08.6.72.66.74Z"/>&#xa;      <path class="cls-4" d="M74.53,13.64c-.05,1.59.27.5.81.18.74-.43,1.09-.82,2.11-.6-.19,1.1-.27,3.2-1.48,3.72-1.86.81-.18-2.07-1.85-1.64-.03,1.38.04,2.78,0,4.16-1.22.24-.85-.66-.85-1.45.01-1,.15-3.2.44-4.08.16-.49.8-.26.82-.3Z"/>&#xa;      <path class="cls-6" d="M139.46,313.35c-.12.15-.29.27-.42.42-.22.26-.46.43-.42.83-4.13.34-8.08.89-12.07.42.85.29,2.32-.83,2.71-.83h6.24c.52,0,3.08-.66,3.95-.83Z"/>&#xa;      <path class="cls-1" d="M110.32,31.13c-.09.46.02,1.14,0,1.67l-1.66,1.66v-3.53s1.66.2,1.66.2Z"/>&#xa;      <path class="cls-7" d="M107.41,49.02c.6-.77,4.69-1.1,5-.83.05.05,0,.94,0,1.25-.18-.08-.59.07-.83,0-.06-.02-.22-.66-.66-.74-.49-.08-2.46.34-3.51.32Z"/>&#xa;      <path class="cls-7" d="M73.69,29.88c.04.97-.05,1.95,0,2.91.01.28-.01.56,0,.83-1.57.4-.88-3.22,0-4.16,0,.14,0,.28,0,.42Z"/>&#xa;      <path class="cls-7" d="M73.69,36.54c1.22-.46,1.06,1.54,1.25,1.67.25.17,1.91-.17,2.08,0,.13.12-.11,1.28,0,1.67-.3-1.15-1.56-.61-1.99-.93-.23-.17-.05-.69-.09-.73-.64-.55-.76.32-1.25-1.67Z"/>&#xa;      <path class="cls-3" d="M154.45,102.3c-.66-1.73-.83-1.65-1.25-3.75l1.25,3.75Z"/>&#xa;      <path class="cls-7" d="M74.11,23.63c-.06.49-.47,1.28-.83,1.67-.03-.55-.76-1.81.83-1.67Z"/>&#xa;      <path class="cls-7" d="M78.69,47.78c-1.11-.73-.4-1.73-.42-2.08.68.36.38,1.41.42,2.08Z"/>&#xa;      <path class="cls-7" d="M78.27,44.86c-1.69.2-.45-.87-.42-1.25.52.2.43.8.42,1.25Z"/>&#xa;      <path class="cls-7" d="M106.58,41.53c-.15.99.51,1.93-.83,1.67.08-.66.22-1.28.83-1.67Z"/>&#xa;      <path class="cls-7" d="M181.5,173.07s.13.51-.09.73c-.45.44-1.37.73-1.99.94-.3-.8,1.37-1.25,2.08-1.67Z"/>&#xa;      <path class="cls-7" d="M105.75,45.28s.58.39.41.83c-.24.05-.76-.07-.83,0l.42-.83Z"/>&#xa;      <path class="cls-3" d="M153.2,98.14c-.87-.49-.66-1.34-.83-2.08.57.52.72,1.35.83,2.08Z"/>&#xa;      <path class="cls-7" d="M139.05,314.6h-.42c-.04-.4.19-.57.42-.83v.83Z"/>&#xa;      <path class="cls-7" d="M73.69,36.12c-.04-.32,0-.36,0-.42v.42Z"/>&#xa;      <path class="cls-7" d="M181.92,172.65l.83-.83c-.3.53-.69.63-.83.83Z"/>&#xa;      <path class="cls-7" d="M76.61,49.44l-.42-.42c.31.08.39.41.42.42Z"/>&#xa;      <path class="cls-7" d="M113.65,50.27c-.3-.25-.7-.36-.83-.83.59.3.55.57.83.83Z"/>&#xa;      <path class="cls-3" d="M114.07,50.69c-.15-.12-.27-.29-.42-.42.14.14.28.27.42.42Z"/>&#xa;      <path class="cls-6" d="M65.37,67.76c-2.07,9.37-1.7,19-2.06,28.53-2.68,70.25,1.03,140.88.4,211.23-.05,6.08-.25,12.3.42,18.32.05.41-.04.84,0,1.25.27.04.57-.04.83,0,2.98.45,5.76.25,8.74.42.48.03,1.49.36,2.5.42.55.03,1.11-.03,1.67,0,.28.01.56-.01.83,0,.83.04,1.67-.03,2.5,0,.55.02,1.11-.02,1.67,0,2.75.09,5.51.4,8.33.42.55,0,1.11,0,1.67,0,1.11,0,2.22.01,3.33,0,.97,0,1.95.02,2.91,0,.83-.02,1.67.03,2.5,0,.42-.01.83.01,1.25,0,2.12-.08,4.48-.29,6.66-.42.67-.04,1.5-.54,2.27-.43l7.72.02c-1.25.19-2.62.74-4.16.42l.83.82c-2.29.09-4.59.62-6.87.83-11.03,1.03-23.46,1.66-34.49.79-1.94-.15-4.32-1.12-6.3-1.2-1.01-.04-1.95.58-3.29.4-.3-.04-3.03-.72-3.14-.84-.2-.2.11-1.55-.01-1.65.9-.27.76-.91.83-1.67.84-9.1,0-20.79-.02-30.2-.02-7.34.06-14.82.02-22.25-.15-26.64-1.03-53.53-1.27-80.11-.21-24.21.52-48.48-.4-72.65,1.73-5.87,1.02-22.12,1.27-29.33.27-8.06.17-15.98,1.65-23.95.14,0,.73-.52.83-.42.05.05.13,1.09.42,1.25Z"/>&#xa;      <path class="cls-6" d="M27.07,187.64c.52.73.47,1.85.44,2.72-.26,7.53-2.62,17.12-2.11,24.34-.16.09-.36.24-.42.42-1.26.23-.8-.63-.83-1.44-.09-2.06.38-3.61.43-5.41.23-7.27-.2-14.6-.02-21.87.55.33,1.98.51,2.5,1.25Z"/>&#xa;      <path class="cls-6" d="M118.65,66.92c-.19.59,1.51,8.93,1.66,10.62,1.15,12.9.22,26.08,1.67,38.92.1,9.5-.12,19.02-.02,28.53.46,42.61-.12,85.31.02,127.98.03,10.89-.15,21.8-.02,32.69.08,6.38,1.16,13.35.43,19.75-.05.4-.58,1.06-.42,1.67-.25.05-.58-.05-.83,0-.37-3.01.45-6.05.44-8.96-.08-35.01-.9-70.22-.88-105.32.03-42.78,1.97-86.38-1.06-128.87-.39-5.49-1.48-10.16-2.25-15.35-.1-.64.06-1.41,0-2.08l1.25.41Z"/>&#xa;      <path class="cls-6" d="M160.28,214.28c-.04.53-.34,1.12-.42,1.67h-.42c-.77-1.78-1.41-9.78-1.66-12.28-.54-5.32-.72-10.7-1.25-16.02.8-.38,2.27-.79,2.91-1.25-.41,1.47.06,3.04.01,4.35-.06,1.74-.01,3.36-.01,5.02v10.82c0,2.13,1,5.41.83,7.7Z"/>&#xa;      <path class="cls-4" d="M164.02,215.11c.4,1.53.35,5.11-.46,6.41-1.03,1.66-2.65.48-4.12,1.08-.05-.21-.27.13-.42-1.25,1.45.05,1.15.26,1.25-1.02.05-.61.12-3.82,0-3.98-.07-.1-.69.1-.83,0-.06-.05.05-.29,0-.42h.42c1.38-.24,2.79-.52,4.16-.83Z"/>&#xa;      <path class="cls-5" d="M159.44,216.36c.14.1.76-.1.83,0,.12.16.05,3.37,0,3.98-.1,1.28.2,1.07-1.25,1.02-.14-1.33-1.33-5.08.42-5Z"/>&#xa;      <path class="cls-5" d="M158.19,262.14c-.14.28-.71-.24-.41-.83.14-.28.71.24.41.83Z"/>&#xa;      <path class="cls-3" d="M121.98,272.97c1.26.23.8-.64.83-1.44.41-10.38-.31-20.85,0-31.25l.83-.61c.22,11.72.11,23.47.4,35.19.3,12.42.33,24.47.42,37.01.02,2.67-.29,1.82-.43,2.91s.18,2.58.03,3.77c.22.59.4-.19.42-.21.1-.06.33.07.42,0-.05.96.07,1.95,0,2.91-2.93-.66.43,4.82-2.5,4.16.73-6.4-.35-13.38-.43-19.75-.14-10.89.05-21.81.02-32.69Z"/>&#xa;      <path class="cls-6" d="M60.37,315.43l.42,10.41s-.72.17-.84-.28c-.33-1.23.35-6.76,0-7.21-2.07.92-3.82-.73-6.06-1.24-1.05-.24-1.15.42-1.01-1.26,1.17.09,5.7,1.32,5.99,1.23.89-.28.19-1.97,1.5-1.65Z"/>&#xa;      <path class="cls-4" d="M60.37,315.43c-1.31-.32-.61,1.36-1.5,1.65-.29.09-4.82-1.13-5.99-1.23-.41-.03-.84.02-1.25,0,1.22-1.23,4.85.63,4.58-1.25,1.3.17,2.6.38,3.92.47l.24.37Z"/>&#xa;      <path class="cls-5" d="M124.89,321.26c-.07.99-.23,1.94-.42,2.91-.16.83-.52,1.62-.42,2.5-1.08.45-1.25.25-2.08.42-.16-.6.37-1.26.42-1.67,2.93.66-.43-4.82,2.5-4.16Z"/>&#xa;      <path class="cls-4" d="M124.48,324.17c.56.27.57,1.7.43,2.24s-.65.17-.85.26c-.1-.88.26-1.67.42-2.5Z"/>&#xa;      <path class="cls-3" d="M150.49,279.63c.27.14.27.28,0,.42v-.42Z"/>&#xa;      <path class="cls-3" d="M62.87,325.42c-1.69.12-1.03.07-1.24-1.03-1.82-9.74-1.2-22.81-1.24-32.87-.05-11.28-.7-23.15.84-34.13.22-1.58-.2-3.58-.02-5.22.51-.68.75,0,.83.61.66,5.17-.28,12.09-.26,17.42,0,.47-.04,3.18,1.09,2.78.04,7.43-.03,14.91-.02,22.25.02,9.4.85,21.1.02,30.2Z"/>&#xa;      <path class="cls-4" d="M24.16,215.94c-.26,1.81,1.02,6.83-1.81,6.57-2.55-.24-2.71-5.49-1.94-7.4.78.19,3.23.82,3.75.83Z"/>&#xa;      <path class="cls-1" d="M86.47,25.44c.15.1.25.61.58.86.4.3,1.14.19,1.21.25.12.11-.77,2.62-.42,3.32-1.12.24-1.07-1.08-1.68-1.44-2.2-1.31-3.52-.05-5.39.82.94-2.31,2.76-2.18,4.57-3.34l-1.24-1.04c.91-.08,1.59.04,2.36.56Z"/>&#xa;      <path class="cls-1" d="M97.01,9.48c-.37-.34.78-1.28.83-1.88.07-.8-.59-1.81-.42-2.7-1.96-.38.3,3.3-1.66,2.91,0-.98.11-1.97-.19-2.94-.32-1.04-1.67-2.05-2.31-2.89,1.83.75,4.21.33,5.19,2.5.34.75.39,3.53.15,4.3-.22.71-1.33.94-1.6.69ZM96.58,4.48c.14-.61-.18-.87-.62-1.24-.18.41.43,1.64.62,1.24Z"/>&#xa;      <path class="cls-1" d="M110.32,25.29c-2.2-.74-2,4.08-2.5,4.59-.04.04-1.2.04-1.24,0-.24-.23-.58-5.71-.83-6.66.21-.28,1.86,1.37,2.09,1.46.81.31,2.06-.82,2.48.61Z"/>&#xa;      <path class="cls-1" d="M101.49,27.47c.24.46.05,1.07.09,1.58-1.16-1.18-2.42-.15-3.47-.4-.36-.08-.11-1.17-.89-.85-.74.61-1.05,1.56-1.05,2.5-1.4-.31-1.67-1.18-1.03-2.5.83-1.72,5.67-1.61,6.36-.33Z"/>&#xa;      <path class="cls-7" d="M96.17,43.2v.42c-2.8,1.27-6,1.2-8.75-.21,0-.44,7.84-.14,8.75-.21Z"/>&#xa;      <path class="cls-1" d="M73.69,29.88l2.09.21c-.33,1.24-.09,3.76-2.09,2.7-.05-.97.04-1.95,0-2.91Z"/>&#xa;      <path class="cls-1" d="M94.09,9.06l-.42-4.99c1.65.58,1.87,4.08.42,4.99Z"/>&#xa;      <path class="cls-1" d="M100.33,24.89c-.19.54-2.24.74-2.76.78-.75.06-1.49.1-2.23.05,1.24-1.97,3.17-.79,4.99-.82Z"/>&#xa;      <path class="cls-5" d="M96.17,43.2c.54-.04,3.37-1.51,3.33-.21-.67-.31-3.55,2.65-3.33.63v-.42Z"/>&#xa;      <path class="cls-1" d="M99.09,2.82c-.06-.05-1.71.05-.83-.83s.78.77.83.83c.15.19,2.21.4,1.66,2.08-1.34.37-1.49-1.94-1.66-2.08Z"/>&#xa;      <path class="cls-2" d="M174.43,212.2c-2.08,1.16-4.57,1.12-6.76,1.69-.21.06-.19.47-1.56.8-.6.15-1.37.25-2.08.42-1.37.31-2.78.59-4.16.83.08-.55.38-1.13.42-1.67,2.5-.66,5.21-.5,7.69-1.25.89-.27,1.25-1.07,2.09-1.24,1.7-.33,3.24.37,4.36.41Z"/>&#xa;      <path class="cls-3" d="M112.41,49.44c0,.59-1.79,6.12-2.05,6.4-.37.39-.99.15-1.19.35-.37.36.43,1.49-.91,1.16-.2-.74.6-1.01.73-1.53.07-.28-.32-.52-.31-.55.13-.44.34-1.51.42-1.67.04-.09.58-.3.76-.68.55-1.17,1.18-2.32,1.74-3.48.24.07.65-.08.83,0Z"/>&#xa;      <path class="cls-4" d="M78.68,8.23c.09.09.02.72.4,1.02.06.04,1.86-.37.85.64-.37.37-2.9-.1-1.67,2.5h-2.08s.42-2.91.42-2.91l1.24.42c.07-.1-.25-2.67.83-1.66Z"/>&#xa;      <path class="cls-4" d="M79.1,7.81h-.41c-.21-1.73.61-1.73.41,0Z"/>&#xa;      <path class="cls-5" d="M63.7,307.52c1.26-.23.81.64.83,1.44.19,5.59-.5,11.29.5,16.79,2.4.92,5.02.96,7.56,1.17.63.05,1.28-.89,1.1.58-2.98-.16-5.76.03-8.74-.42,0-.61-.24-1.07-.83-1.25-.67-6.02-.47-12.24-.42-18.32Z"/>&#xa;      <path class="cls-5" d="M91.18,328.33c-2.82-.02-5.57-.33-8.33-.42-.4-.52-1.43-.7-1.67,0-.83-.03-1.67.04-2.5,0,.52-.64,1.62-1.04,2.39-1.15,2.38-.33,6.18.03,8.66.29.94.1,1.44.16,1.43,1.27Z"/>&#xa;      <path class="cls-5" d="M99.09,328.33c-.17-2.98,3.85-1.24,5.61-1.22,1.38.02,2.49-.41,3.75-.46,1.36-.06,1.07.05,1.04,1.26-2.18.13-4.54.34-6.66.42.37-1.24-1.57-1.32-1.25,0-.83.03-1.67-.02-2.5,0Z"/>&#xa;      <path class="cls-5" d="M92.84,328.33c-.51-2.13,1.88-1.01,3.33-1.25v1.25c-1.11.01-2.22,0-3.33,0Z"/>&#xa;      <path class="cls-5" d="M76.19,327.92c-.5-1.94,2.21-1.85,1.67,0-.55-.03-1.11.03-1.67,0Z"/>&#xa;      <path class="cls-3" d="M101.58,328.33c-.32-1.32,1.61-1.24,1.25,0-.42.01-.83-.01-1.25,0Z"/>&#xa;      <path class="cls-3" d="M64.95,327.08c-.26-.04-.56.04-.83,0-.04-.41.04-.84,0-1.25.6.18.83.64.83,1.25Z"/>&#xa;      <path class="cls-3" d="M82.85,327.92c-.55-.02-1.11.02-1.67,0,.24-.7,1.26-.52,1.67,0Z"/>&#xa;      <path class="cls-6" d="M101.58,168.91c.37,0,1.17-.19,1.25.21-.31.65-1.65,1.04-1.88,1.44-.19.34.32,1.04.2,1.22-.17.24-3.92,2.95-4.56,3.38-.87-.05-1.68.18-2.5.42v-.83c1.22-.24,2.88-.69,3.33-1.66-.39.04-.89-.08-1.25,0v-.42c.55-.11,3.76-1.18,3.75-1.46-.73-.85-3.47.94-3.75.62v-1.25c2.59.47,3.53-.54,5.41-1.67Z"/>&#xa;      <path class="cls-6" d="M95.76,165.16c.06-.36.16-.58.42-.83-.13.21-.14.63-.42.83Z"/>&#xa;      <path class="cls-6" d="M96.17,119.79s.08-.73.4-1.04c4.55-4.44,10.15-10.21,10.42-16.86-1.53.85-1.75-.22-1.66-1.67-.98-1.31-1.02,2.74-.83,2.92.27.27,2.07-.65,1.67.83-.48.1-1.87-.16-2.06.02s-.88,3.96-1.38,5.07c-1.01,2.27-5.57,8.7-7.58,9.92-.6.36-.79.37-1.47.39.74-1.53,4.26-4.37,5.59-6.27,4.01-5.75,6.03-12.7,2.61-19.2-1.62-3.08-5.64-4.72-9.03-4.91v30.15c-.05.41.54.25.83.24-.14.29-.5,1.57-.42,1.66.39.07.9-.08,1.25,0,1.43.33,1.16.06,2.34.06,5.44-.04,10.93-.08,16.39-.05.44.42-2.38,5.83-2.7,5.83h-17.27l.42,37.46,1.66-.41c-.52,1.13-1.99,1.9-1.24,3.32l1.66-2.08c-.17.98.12,2.29,0,3.33,1.08-.27.68-1.66,1.04-2.5.26-.6,1.69-2.65,1.46-2.91l-2.08,1.25c.43-.66.61-1.92,1.46-2.5.79-.23.46.47.94.81.23.17.8-.06.93.02-.64-.64,1.34-1.84,2.08-2.08.15.78-1.63,2.53-2.08,2.08.04.02-.16.74.27.84,2.08.52,2.02-2.53,3.89-2.93.22.03,2.64-.19,1.66.83-.18.19-5.29,1.97-4.16,2.92,2.39.5,4.01-1.16,5.83-2.29s-.14,2.34-1.67,1.88l1.25.83c-1.49,1.84-3,2.96-5,4.16-1.8.03-2.91,1.11-4.03,1.15-.8.03-1.16-.8-2.09-.44-1.43.56-.45,1.13-.52,1.93-.03.33-1.17.26-.85,1.11-.94.11-1.77,0-1.66,1.25.24.07.73-.08.83,0,.15.12.26.62.42.83-.9.15-1.96-.02-2.91.42l.42.83c-1.3.16-2.55.8-.83.83-1.76.34-.7,1.58,1.06,1.6.29,0,.88-1.27,1.02-1.6.1-.23.43-.48.42-.83.42-.01.83.01,1.25,0,.04,0,.17.39.81.25.71-.15,1.17-.74,1.69-1.08,2.22.13-.05,1.04-.29,1.37-.33.45-.32,1.02-.65,1.43-.42.52-1.81.58-1.57,1.97.34,8.73.25,17.64,1.24,26.27,1.41,1.09,2.65,1.93,3.57,3.51,1.12.14.34-.42.19-1.02-2.03-7.93-8.08-25.79.43-31.03.98.91,1.63-.28,1.67,1.25-1.46.33-.5.3-.83.83-.82,1.33-1.59,2.42-2.06,3.98-3.07,10.21,4.19,19.73,2.48,29.74.64.69,2.2-2.88,3.33-2.08l-.84,5.2,1.26.43c.08,1.09-1.62,3.39-1.87,4.38-.14.55.66.71.32,1.51-.45,1.07-3.44,3.82-3.44,4.09-.04,1.35,2.65-.1,3.14-.19,3.47-.61,1.79.97,2.3,1.6.22.26,2.97.12,2.88,1.49,0,.46-2.77.97-2.87,1.09-.26.31.1,1.46-.04,1.62-.46.5-3.9-.7-4.5-.35-.12.07-1.49,2.18-1.32,2.42,1.29.3,4.75,3.17,5.2,4.18.6,1.34.79,3.27,1.23,4.6.24.75,1.07,1.23,1.39,1.94.53,1.19,1.21,4.54,1.33,5.74.56,5.79-3.78,9.16-3.32,13.31.19,1.72,1.83,4.38,3.34,2.07l-2.08-.62c2.02-3.56,4.44,1.64,1.79,2.43-2.22.66-3.91-2.18-4.12-4.08-.36-3.28,2.75-6.79,3.39-9.98.2-.98.26-1.94.19-2.93-1.27-.2-1,1.37-2.09,1.86-2.86,1.31-5.78-2.59-2.61-4.27,1.45-.77,2.37-.14,3.86-.09.1-1.52-.2-3.16-1.46-4.16-3.5,7.58-8.52-2.79-.62-2.08,1.41-1.37-4.32-6.78-5.85-7.3-.95-.32-3.29,1.86-3.23,2.87.01.23,1.59,3.39,1.81,3.59,1.08,1.06,2.23.11,2.31,2.71.13,4.3-4.72,2.8-4.21-.38.1-.64.79-1.11.82-1.69,0-.21-1.09-3.81-1.24-3.96-.71-.74-.72.33-.87.6-2.46,4.21.24,3.54.47,5.9.06.67-.35,2-.8,2.39-1.39,1.21-2.49-.62-3.37-.98.04,1.32,1.21,4.25-1.05,4.6-3.4.53-3.36-6.4,1.05-4.6-.1-3.28,1.54-2.96,2.08-5.82l-2.71,2.91c-.92.25-.74-.92-.61-1.37.22-.77,4.75-4.29,5.19-5.29s-.07-2.21.62-3.12c-1.34.35-2.68,3.82-3.43,4.28-.42.26-1.02.02-1.14.1v-1.46s-2.91,2.71-2.91,2.71c-.29.03-.79.53-1.25.42-.25-.3.55-1.97-.61-1.65-1.4.39-3.1,1.95-4.8,1.65v-.42c.04-.27-.05-.59,0-.83,1.28-.13,2.1-2.03,2.57-3.06.63-1.37-.17-.55-.9-.69.08-.18-.17-.71.1-1.14.54-.87,3.48-1.17,2.41-2.99l6.24-2.31c-1.13-.65-6.22-2.4-6.66-3.34-.38-.82,1.55-.52.83-1.44-.2-.26-2.04-1.3-2.49-2.3-.62-1.38,2.07.57,1.66-.82-.24-.78-2.45-5.25-2.07-5.63,1.45-.12,2.82,1.4,3.95,1.67,1.42.33-.62-1.56.84-1.26,1.1.23,2.09,1.61,3.11,1.9.55.16,1.12-.25,1.66-.02.6.26,1.92,2.01,2.37,2.65s.5,1.66.56,1.73c1.08,1.2,1.06-3.53,1.25-3.75,1.4,1.26,2.82-.92,2.95-2.28.22-2.31-1.77-6.26-4-7.29-.33,1.56.87,5.9.03,7.1-.44.63-4.61.63-5.05,0-.68-.98.15-8.51-.39-10.42-4.84-3.87-8.46-6.14-9.36-12.72-.48-3.51.16-9.13-1.16-12.16-.17-.39-2.36-2.54-.74-2.18,4.75,1.05,3.51,10.95,4.02,14.72.44,3.28,4.01,8.39,7.04,9.82.49-1.96-1.09-2.85-1.73-4.3-2.16-4.87-2.91-9.24-1.91-14.54.17-.92,1.04-2.15,1.07-2.67.04-.64-.97-1.38-1.15-2.45-1.05-6.31,3.2-8.36,3.26-12.51.05-3.01-.72-6.82-.8-9.92-.23-9.64-.3-19.31-.41-28.95h-17.48c-.34-.94,2.39-5.41,2.71-5.41h14.15s.62-.58.62-.62v-30.8c0-.06-.43-1.02-.66-1.04l-8.49,1.66c-.16-.67.13-.96.4-1.47.3-.55,3.22-4.88,3.46-5.07.62-.48,2.97-.87,3.84-.95,26.87-2.3,28.25,23.18,9.78,36.62ZM87.01,84.41c-.96.13-2.62.16-3.45.51-.18.07-1.93,1.61-1.54,1.98.75.71,1.19-1.19,1.25-1.24,1.03-.83.64,1.15,1.05,1.27,3.13.92,4.45-2.67,1.44-.44l-.42-1.24,1.66-.83ZM92.01,89.4h-3.33v31.01c0,.16.54.63.42,1.04,1.65-.14,1.33-2.02,2.91-.41.36-1.83-.67-1.18-2.08-1.25l1.24-2.08-1.24.41-.43-3.12,2.5.2v-25.81ZM107.41,100.64c-.58-.3-1.11.26-.83.41.58.3,1.11-.26.83-.41ZM92,119.37c.3-.58-.26-1.11-.41-.83-.3.58.26,1.11.41.83ZM94.92,125.2h-11.66c.15.76.82.78,1.44.85,3.83.42,6.62-.37,9.99-.45,2.15-.05,14.9.37,15.56-.05.15-.09,1.57-3.02,1.31-3.26-7.27.23-14.59-.23-21.85-.18-3.88.03-11.63-.4-14.96.2-1.7.31-2.77,2.16-3.14,3.72,3.57-.57,7.48.35,11.23,0l-1.66-1.66c2.25.73,4.38-.26,6.48-.37.23-.01-.02.82.77.82.38,0,3.94-.37,4.15-.42.44-.12.31-2.59,1.92-1.49l-1.24,1.46,1.66.84ZM92.01,126.87c-.48.17-2.79.1-2.92.2-.46.35-.63,3.6.84,3.13-.4-2.37,1.22-.52,1.66-.83.1-.07.59-2.33.42-2.5ZM92.01,131.02h-3.33s.84,5.42.84,5.42c.47-.24,2.38-.35,2.47-.44.24-.24-.12-4.15.03-4.98ZM92,138.52c-.78-.13-1.38.49-1.24,1.24l1.66.42-.42-1.66ZM92.43,151.42v-10.2c0-.71-3.33-.39-3.33-.21v6.04c0,1.78,1.65-.04,2.49,1.26l-2.49.83,2.08.62-1.66,1.66c2.1.89,1.32-.93,2.92,0ZM92.42,152.67l-3.33-.42v1.66c.82-.22,3.62.13,3.33-1.24ZM92.42,154.76h-1.24v.83h1.24v-.83ZM92.42,169.32c.12-.11.69-2.83.73-3.23.1-.91-.23-8.57-.37-9-.38-1.16-2.67-.56-3.69-.68l.83,13.73c1.16.24.81-.43.83-1.25.08-.08,1.38.67,1.66.42ZM104.91,164.75c-.72-.12-2.3.64-1.66,1.24.37.34,1.55-.68,1.66-1.24ZM89.09,175.56l-.83-5.82c-.22,1.86-.66,3.03-.12,4.93.21.73-.14,1.08.95.9ZM87.43,177.23c-1-1.16,1.02-3.99-.83-3.74.16,1.03-.25,2.56,0,3.47.12.44.81.24.84.28.06.09-.11,2.33.83,1.25.88-1.01-.77-1.17-.83-1.25ZM92.22,178.9v.42c.27-.14.27-.28,0-.42ZM88.68,180.56s-.73,0-1.02.42c-1.13,1.62-1.24,7.32-1.07,9.38.24,3,1.55,5.8,2.72,8.52l-.21-18.32c.28-.1.56-.34.83-.42l.44,20.16c-.09.91,3.05,5.52,3.72,4.81l-.83-25.81c-.56.38-1.12.29-1.66.42-.31-.57-2.16-.59-2.69-.44-.5.14-.1,1.09-.22,1.27ZM94.51,214.28c-.74-3.55,1.04-8.13-3.75-8.74l.41,8.74h3.33ZM100.33,220.11c-.64-.78-.9.59-1.03.82-.36.62-2.52,5.17-2.29,5.42.53.6,1.09-.72,1.26-1.02.34-.59,2.24-5,2.06-5.22ZM93.4,225.8c-.34-.29-3.21-3.87-3.88-3.19-.45.45.61,1.16.87,1.41.68.67,4.87,3.96,5.37,3.57-.24-1.22-1.84-1.35-2.36-1.8ZM103.25,229.27l-4.57-.42v1.25c1.26-.1,2.73.16,3.96,0,.61-.08,1.29-.32.61-.83ZM95.75,229.26c-.37-.35-6.56,3.52-7.36,4.09-.52.37-1.16.43-.96,1.32,2.31-1.33,5.18-2.61,7.36-4.08.31-.21,1.47-.85.96-1.33ZM97,231.34c-.98-1.14-1.66,3.7-1.66,4.16l2.11-1.52c-.28-.49-.36-2.54-.45-2.64ZM104.08,243.42c-1.5-.44-4.22,1.5-2.52,2.73,1.59,1.15,2.88-1.34,2.52-2.73ZM103.1,249.72c-1.44.48-.7,3.56,1.69,2.54,2.7-1.16,1.1-3.46-1.69-2.54Z"/>&#xa;      <path class="cls-6" d="M96.17,119.79c-.27.19-1.04,1.84-1.67,1.25-.98-.93,1.57-1.18,1.67-1.25Z"/>&#xa;      <path class="cls-6" d="M107.68,132.01c4.71,4.8,3.45,10.5.98,16.08l3.32-1.25.84,2.91c-1.18.14-6.83,1.11-7.08-.22-.08-.42,2.58-6.39,2.81-7.99.62-4.28-1.14-7.78-5.04-9.65-7.14,4.86-4.17,11.53-1.1,17.87-.37.42-6.43.67-7.09.22-1.42-.97.28-1.52.43-1.75.28-.41.36-1.33.41-1.38.53-.47,1.21.99,1.83,1.27.51.23.87.53,1.5.39-2.18-5.03-4.53-9.79-1.01-14.96.65-.96,3.94-4.11,5-4.2.89-.07,3.49,1.94,4.19,2.66Z"/>&#xa;      <path class="cls-6" d="M77.86,131.03c.15-.37.02-1.07.67-1.22,1.21-.27,1.23.76,1.42,1.22,2.41,6.03,3.64,12.61,5.83,18.73-3.76,1.37-3.17-6.75-4.55-7.72-.54-.38-3.95-.38-4.41.22-.57.76-1.52,7.37-2.12,7.53-.47.13-1.27-.11-1.83-.03,1.47-5.97,2.76-13,5-18.73ZM79.52,135.19c-.98-1.17-2.17,4.75-2.08,5.41l2.91-.42-.84-4.99Z"/>&#xa;      <path class="cls-6" d="M97.84,260.07c.69,0,1.39,0,2.08,0-2.39-4.95,4.28-5.38,3.67-1.13-.33,2.28-2.62,1.78-2.84,1.96-.25.21,1.74,5.34-2.91,3.74-.2.98.98,1.22,1.19,1.96.5,1.82-1.41,3.69-3.26,2.82,2.54,5.62-5.08,5.49-3.68.92.51-1.68,3.09-1.39,3.25-1.54.23-.2-1.26-2.07.38-3.57.37-.34,2.7-.82,1.69-1.83-.73-.73-1.96,1.48-3.03,1.2-2.37-.61-2.22-5.8,1.37-4.95.12.17.18.36.42.42.22.38.18,1.55.63,1.67.98.27.67-1.02,1.04-1.67Z"/>&#xa;      <path class="cls-6" d="M97.84,260.07c-.49,0-1.28.1-1.67,0-.12-.21-.12-.35-.42-.42-1.71-2.49,1.18-6.43,2.86-3.49,1.25,2.19.06,2.41-.78,3.9Z"/>&#xa;      <path class="cls-6" d="M106.99,177.23c6.13,3.71.31,15.83,3.66,21.94.42.77,2.84,2.71,2.16,3.45-.42.46-3.63-2.87-3.93-3.35-2.97-4.61-.65-12.47-1.5-17.65-.17-1.04-1.37-2.1-1.23-2.73.04-.17,1.04-.97.83-1.67Z"/>&#xa;      <path class="cls-6" d="M94.41,255.16c.99,1.7-.31,4.97-2.82,4.08.52,1.25.57,3.9-1.05,4.18-3.12.54-3.34-5.66.63-4.61-1.82-2.6,1.77-6.18,3.24-3.65Z"/>&#xa;      <path class="cls-6" d="M96.26,248.51c3.24-1.84,4.43,4.07,1.7,4.84s-3.35-3.91-1.7-4.84Z"/>&#xa;      <path class="cls-6" d="M91.06,264.3c3.1-.92,4.19,3.71,1.48,4.45-2.42.66-3.7-3.79-1.48-4.45Z"/>&#xa;      <path class="cls-6" d="M90.29,251.8c1.27.79.02,6.42-2.31,4.38-2.5-2.18,0-5.82,2.31-4.38Z"/>&#xa;      <path class="cls-6" d="M94.45,252.93c-.73,1.16-3.01.3-3.48-1.22-.72-2.31,2.33-4.56,3.33-2.46.28.58.4,3.28.15,3.68Z"/>&#xa;      <path class="cls-7" d="M77.86,131.03c-.67-.11-3.59.15-3.74,0-.26-.26.19-1.66.62-1.66h8.95c.33,2.33-2.07,1.59-3.75,1.67-.18-.46-.21-1.49-1.42-1.22-.65.14-.52.84-.67,1.22Z"/>&#xa;      <path class="cls-7" d="M106.99,177.23c.21.69-.79,1.5-.83,1.67-1.66-.68-3.32-.38-5,0,.02.87.16.93-.83.83.33-.54-.63-.5.83-.83-.04-1.53-.68-.34-1.67-1.25,2.31-1.42,5.12-1.85,7.49-.42Z"/>&#xa;      <path class="cls-5" d="M103.66,160.58c-1.88.39-1.82,3.45-3.89,2.93-.43-.11-.23-.82-.27-.84.45.45,2.23-1.3,2.08-2.08,1.05-.34,1.35-.09,2.08,0Z"/>&#xa;      <path class="cls-5" d="M82.44,234.67c.73.14,1.53-.68.9.69-.47,1.03-1.28,2.93-2.57,3.06.27-1.2,1.12-2.56,1.67-3.75Z"/>&#xa;      <path class="cls-5" d="M90.34,238c-1.68,1.07-.94,1.06-2.91,1.25l2.91-2.71v1.46Z"/>&#xa;      <path class="cls-5" d="M80.77,239.67c-.18-.03-.34.04-.41-.21l.41-.2v.42Z"/>&#xa;      <path class="cls-4" d="M96.58,4.48c-.19.4-.8-.82-.62-1.24.45.37.76.63.62,1.24Z"/>&#xa;      <path class="cls-3" d="M96.17,164.33l2.08-1.25c.23.26-1.2,2.31-1.46,2.91-.36.83.04,2.22-1.04,2.5.11-1.04-.17-2.35,0-3.33.27-.21.28-.62.42-.83Z"/>&#xa;      <path class="cls-3" d="M93.67,119.37c.67-.02.87-.03,1.47-.39,2.01-1.22,6.57-7.65,7.58-9.92.49-1.11,1.19-4.89,1.38-5.07s1.58.08,2.06-.02c.41-1.48-1.4-.56-1.67-.83-.18-.18-.15-4.23.83-2.92-.09,1.45.13,2.52,1.66,1.67-.28,6.65-5.87,12.42-10.42,16.86-.32.31-.35,1.01-.4,1.04-.1.07-2.65.32-1.67,1.25-.35-.08-.86.07-1.25,0-.08-.09.28-1.37.42-1.66-.29,0-.88.17-.84-.24v-30.15c3.4.19,7.42,1.83,9.04,4.91,3.42,6.5,1.4,13.46-2.61,19.2-1.33,1.9-4.86,4.74-5.59,6.27Z"/>&#xa;      <path class="cls-3" d="M65.37,67.76c.25.14,1.11,0,1.81.47,3.06,2.05,8.61,6.67,11.52,8.05,2.06.98,5.53,1.51,7.71,2.28.99.35,4.03,2.15,4.53,2.15,3.1.03,7.8-3.59,11.42-3.64l13.5-8.99,1.54.51c.77,5.19,1.85,9.86,2.25,15.35,3.03,42.48,1.09,86.09,1.06,128.87-.02,35.1.79,70.31.88,105.32,0,2.92-.82,5.95-.44,8.96-.56.1-1.11.33-1.67.42l-7.72-.02c-.77-.11-1.6.39-2.27.43.03-1.21.32-1.32-1.04-1.26-1.27.05-2.37.48-3.75.46-1.76-.02-5.79-1.76-5.61,1.22-.97.02-1.94,0-2.91,0v-1.25c-1.45.24-3.84-.88-3.33,1.25-.55,0-1.11,0-1.67,0,0-1.12-.49-1.17-1.43-1.27-2.49-.26-6.28-.62-8.66-.29-.77.11-1.88.51-2.39,1.15-.28-.01-.56.01-.83,0,.55-1.85-2.17-1.94-1.67,0-1-.05-2.02-.39-2.5-.42.18-1.47-.47-.52-1.1-.58-2.54-.22-5.16-.26-7.56-1.17-1-5.5-.31-11.2-.5-16.79-.03-.8.42-1.67-.83-1.44.63-70.36-3.08-140.98-.4-211.23.36-9.53,0-19.16,2.06-28.53ZM96.17,119.79c18.47-13.45,17.09-38.92-9.78-36.62-.88.07-3.23.47-3.84.95-.24.19-3.16,4.52-3.46,5.07-.27.5-.56.79-.4,1.47l8.49-1.66c.23.02.66.97.66,1.04v30.8s-.58.62-.62.62h-14.15c-.32,0-3.05,4.47-2.71,5.41h17.48c.11,9.64.18,19.31.41,28.95.07,3.11.85,6.92.8,9.92-.07,4.15-4.31,6.2-3.26,12.51.18,1.06,1.19,1.81,1.15,2.45-.03.52-.9,1.75-1.07,2.67-1,5.31-.25,9.67,1.91,14.54.64,1.45,2.23,2.34,1.73,4.3-3.03-1.43-6.59-6.54-7.04-9.82-.51-3.77.73-13.67-4.02-14.72-1.62-.36.57,1.79.74,2.18,1.33,3.02.69,8.65,1.16,12.16.9,6.58,4.52,8.84,9.36,12.72.54,1.91-.3,9.43.39,10.42.43.63,4.61.63,5.05,0,.84-1.2-.36-5.54-.03-7.1,2.23,1.03,4.21,4.98,4,7.29-.13,1.36-1.55,3.54-2.95,2.28-.19.21-.16,4.94-1.25,3.75-.06-.07-.11-1.1-.56-1.73s-1.77-2.39-2.37-2.65c-.54-.23-1.11.18-1.66.02-1.02-.29-2-1.67-3.11-1.9-1.46-.3.58,1.6-.84,1.26-1.13-.26-2.49-1.79-3.95-1.67-.38.38,1.84,4.85,2.07,5.63.42,1.38-2.27-.57-1.66.82.45,1,2.29,2.05,2.49,2.3.72.92-1.21.63-.83,1.44.44.94,5.53,2.69,6.66,3.34l-6.24,2.31c1.08,1.83-1.87,2.12-2.41,2.99-.26.43-.01.96-.1,1.14-.54,1.19-1.39,2.55-1.67,3.75-.05.24.04.57,0,.83l-.41.2c.07.25.23.18.41.21,1.7.3,3.4-1.26,4.8-1.65,1.16-.32.36,1.35.61,1.65.46.12.96-.39,1.25-.42,1.97-.19,1.23-.18,2.91-1.25.12-.08.72.17,1.14-.1.74-.46,2.09-3.93,3.43-4.28-.69.91-.18,2.12-.62,3.12s-4.97,4.52-5.19,5.29c-.13.45-.31,1.62.61,1.37l2.71-2.91c-.54,2.87-2.18,2.54-2.08,5.82-4.41-1.79-4.45,5.13-1.05,4.6,2.26-.35,1.09-3.28,1.05-4.6.88.36,1.98,2.19,3.37.98.45-.39.86-1.72.8-2.39-.22-2.36-2.93-1.69-.47-5.9.16-.27.16-1.34.87-.6.14.15,1.25,3.75,1.24,3.96-.03.58-.72,1.06-.82,1.69-.52,3.18,4.34,4.68,4.21.38-.08-2.6-1.23-1.66-2.31-2.71-.21-.21-1.79-3.36-1.81-3.59-.06-1.01,2.28-3.19,3.23-2.87,1.53.52,7.26,5.93,5.85,7.3-7.9-.7-2.88,9.67.62,2.08,1.26,1,1.56,2.64,1.46,4.16-1.49-.04-2.41-.68-3.86.09-3.17,1.68-.26,5.58,2.61,4.27,1.08-.49.82-2.06,2.09-1.86.08,1,.01,1.95-.19,2.93-.64,3.19-3.75,6.7-3.39,9.98.21,1.91,1.89,4.75,4.12,4.08,2.66-.79.23-5.99-1.79-2.43l2.08.62c-1.51,2.31-3.15-.35-3.34-2.07-.46-4.15,3.88-7.52,3.32-13.31-.12-1.21-.8-4.56-1.33-5.74-.32-.71-1.14-1.2-1.39-1.94-.43-1.32-.63-3.26-1.23-4.6-.45-1.01-3.9-3.88-5.2-4.18-.17-.24,1.21-2.35,1.32-2.42.6-.36,4.04.85,4.5.35.14-.16-.21-1.31.04-1.62.1-.12,2.87-.63,2.87-1.09.09-1.37-2.67-1.23-2.88-1.49-.51-.63,1.17-2.21-2.3-1.6-.49.09-3.17,1.54-3.14.19,0-.27,3-3.02,3.44-4.09.33-.81-.46-.97-.32-1.51.25-.99,1.95-3.29,1.87-4.38l-1.26-.43.84-5.2c-1.13-.8-2.68,2.77-3.33,2.08,1.71-10.01-5.55-19.52-2.48-29.74.47-1.55,1.24-2.64,2.06-3.98.99.1.85.04.83-.83,1.68-.38,3.34-.68,5,0-.15.62,1.06,1.69,1.23,2.73.85,5.18-1.48,13.04,1.5,17.65.31.48,3.51,3.81,3.93,3.35.68-.74-1.74-2.68-2.16-3.45-3.35-6.1,2.47-18.23-3.66-21.94-2.38-1.44-5.18-1.01-7.49.42-8.52,5.24-2.46,23.1-.43,31.03.15.6.93,1.16-.19,1.02-.93-1.58-2.17-2.42-3.57-3.51-.99-8.63-.9-17.54-1.24-26.27-.24-1.39,1.15-1.45,1.57-1.97.33-.41.32-.98.65-1.43.24-.33,2.52-1.24.29-1.37.64-.43,4.39-3.14,4.56-3.38.13-.17-.39-.87-.2-1.22.23-.41,1.56-.8,1.88-1.44-.08-.39-.88-.21-1.25-.21,2-1.2,3.51-2.32,5-4.16l-1.25-.83c1.53.46,3.53-3.03,1.67-1.88s-3.44,2.78-5.83,2.29c-1.13-.95,3.98-2.73,4.16-2.92.98-1.01-1.44-.8-1.66-.83-.73-.09-1.03-.34-2.08,0-.74.24-2.72,1.44-2.08,2.08-.13-.08-.7.15-.93-.02-.48-.35-.15-1.05-.94-.81-.85.57-1.03,1.83-1.46,2.5-.26.25-.36.48-.42.83l-1.66,2.08c-.75-1.42.72-2.19,1.24-3.32l-1.66.41-.42-37.46h17.27c.32,0,3.14-5.4,2.7-5.83-5.46-.03-10.94.02-16.39.05-1.18,0-.92.27-2.34-.06.62.59,1.4-1.05,1.67-1.25ZM79.94,131.03c1.68-.07,4.07.66,3.75-1.67h-8.95c-.43,0-.88,1.4-.62,1.66.15.16,3.08-.1,3.74,0-2.23,5.73-3.53,12.75-5,18.73.56-.08,1.36.15,1.83.03.6-.16,1.55-6.76,2.12-7.53.46-.61,3.86-.61,4.41-.22,1.38.97.79,9.1,4.55,7.72-2.19-6.12-3.41-12.7-5.83-18.73ZM107.68,132.01c-.7-.71-3.3-2.73-4.19-2.66-1.06.09-4.34,3.24-5,4.2-3.52,5.17-1.16,9.92,1.01,14.96-.63.14-.99-.16-1.5-.39-.61-.28-1.3-1.74-1.83-1.27-.06.05-.14.96-.41,1.38-.15.23-1.85.78-.43,1.75.65.45,6.71.2,7.09-.22-3.07-6.34-6.04-13.01,1.1-17.87,3.9,1.88,5.66,5.38,5.04,9.65-.23,1.61-2.89,7.58-2.81,7.99.25,1.33,5.9.36,7.08.22l-.84-2.91-3.32,1.25c2.47-5.59,3.73-11.28-.98-16.08ZM94.45,252.93c.25-.4.13-3.1-.15-3.68-1-2.09-4.05.16-3.33,2.46.47,1.52,2.75,2.38,3.48,1.22ZM96.26,248.51c-1.65.94-.92,5.59,1.7,4.84s1.54-6.69-1.7-4.84ZM90.29,251.8c-2.32-1.44-4.81,2.2-2.31,4.38,2.33,2.03,3.58-3.6,2.31-4.38ZM94.41,255.16c-1.47-2.52-5.06,1.05-3.24,3.65-3.97-1.05-3.75,5.15-.63,4.61,1.62-.28,1.57-2.93,1.05-4.18,2.51.89,3.81-2.38,2.82-4.08ZM95.76,259.65c-3.59-.85-3.74,4.34-1.37,4.95,1.07.28,2.31-1.93,3.03-1.2,1,1.01-1.32,1.49-1.69,1.83-1.65,1.51-.16,3.37-.38,3.57-.17.15-2.74-.13-3.25,1.54-1.4,4.57,6.21,4.7,3.68-.92,1.86.87,3.76-1,3.26-2.82-.2-.75-1.38-.98-1.19-1.96,4.65,1.59,2.66-3.53,2.91-3.74.22-.19,2.51.31,2.84-1.96.61-4.26-6.06-3.82-3.67,1.13-.69.01-1.39,0-2.08,0,.84-1.49,2.03-1.71.78-3.9-1.68-2.95-4.57.99-2.86,3.49ZM91.06,264.3c-2.22.66-.94,5.11,1.48,4.45,2.7-.74,1.62-5.37-1.48-4.45Z"/>&#xa;      <path class="cls-3" d="M101.58,168.91c-1.87,1.12-2.82,2.13-5.41,1.67v1.25c.29.32,3.02-1.47,3.75-.62,0,.28-3.2,1.35-3.75,1.46-.6.12-1.43-.08-2.08,0-.32-.85.82-.77.85-1.11.07-.8-.91-1.37.52-1.93.93-.36,1.29.47,2.09.44,1.12-.04,2.23-1.12,4.03-1.15Z"/>&#xa;      <path class="cls-3" d="M97.84,260.07c-.37.65-.05,1.94-1.04,1.67-.44-.12-.41-1.29-.63-1.67.39.1,1.18,0,1.67,0Z"/>&#xa;      <path class="cls-3" d="M96.59,175.15c-.52.34-.98.93-1.69,1.08-.64.14-.77-.25-.81-.25v-.42c.82-.23,1.63-.47,2.5-.42Z"/>&#xa;      <path class="cls-3" d="M96.17,260.07c-.23-.06-.3-.24-.42-.42.3.07.3.21.42.42Z"/>&#xa;      <path class="cls-3" d="M94.92,125.2l-1.66-.84,1.24-1.46c-1.61-1.1-1.47,1.37-1.92,1.49-.2.05-3.77.42-4.15.42-.79,0-.55-.84-.77-.82-2.1.12-4.23,1.1-6.48.37l1.66,1.66c-3.75.35-7.66-.57-11.23,0,.37-1.56,1.44-3.42,3.14-3.72,3.33-.6,11.09-.18,14.96-.2,7.26-.05,14.58.41,21.85.18.25.24-1.16,3.17-1.31,3.26-.66.42-13.41,0-15.56.05-3.37.08-6.16.87-9.99.45-.62-.07-1.29-.09-1.44-.85h11.66ZM89.51,123.95c.3-.58-.26-1.11-.41-.83-.3.58.26,1.11.41.83ZM80.35,124.37c-.74-.77-3.29,0-4.37.04-1.25.05-3.1-1.18-3.12.79,2.25-.45,4.59.29,6.87,0,.58-.07,1.2-.22.62-.83ZM109.49,123.95c-4.17.92-9.06-.1-13.12.41-.61.08-1.29.32-.61.83h12.68s1.05-1.25,1.05-1.25Z"/>&#xa;      <path class="cls-3" d="M92.01,89.4v25.81l-2.5-.2.43,3.12,1.24-.41-1.24,2.08c1.41.07,2.43-.58,2.08,1.25-1.58-1.6-1.25.27-2.91.41.12-.41-.42-.87-.42-1.04v-31.01h3.33Z"/>&#xa;      <path class="cls-3" d="M91.59,179.73c.54-.13,1.1-.04,1.66-.42l.83,25.81c-.66.71-3.8-3.9-3.72-4.81l-.44-20.16c.53-.15,1.13-.29,1.67-.42Z"/>&#xa;      <path class="cls-3" d="M92.42,169.32c-.28.25-1.58-.5-1.66-.42-.02.82.33,1.49-.83,1.25l-.83-13.73c1.02.12,3.31-.48,3.69.68.14.43.47,8.09.37,9-.04.4-.61,3.12-.73,3.23Z"/>&#xa;      <path class="cls-3" d="M88.68,180.56h.42l.21,18.32c-1.17-2.72-2.48-5.52-2.72-8.52-.16-2.06-.06-7.76,1.07-9.38.29-.42.99-.37,1.02-.42Z"/>&#xa;      <path class="cls-3" d="M92.43,151.42c-1.59-.94-.82.89-2.92,0l1.66-1.66-2.08-.62,2.49-.83c-.84-1.3-2.49.53-2.49-1.26v-6.04c0-.18,3.33-.5,3.33.21v10.2Z"/>&#xa;      <path class="cls-3" d="M94.51,214.28h-3.33s-.41-8.74-.41-8.74c4.78.61,3.01,5.19,3.75,8.74Z"/>&#xa;      <path class="cls-3" d="M92.01,131.02c-.15.83.21,4.74-.03,4.98-.09.09-1.99.2-2.47.44l-.84-5.41h3.33Z"/>&#xa;      <path class="cls-3" d="M95.75,229.26c.52.48-.65,1.12-.96,1.33-2.19,1.48-5.05,2.75-7.36,4.08-.2-.89.44-.95.96-1.32.79-.57,6.98-4.44,7.36-4.09Z"/>&#xa;      <path class="cls-3" d="M87.01,84.41l-1.66.83.42,1.24c3.01-2.23,1.69,1.36-1.44.44-.41-.12-.02-2.1-1.05-1.27-.07.06-.5,1.96-1.25,1.24-.4-.38,1.36-1.91,1.54-1.98.83-.35,2.49-.38,3.45-.51Z"/>&#xa;      <path class="cls-3" d="M92.01,126.87c.17.17-.31,2.42-.42,2.5-.44.31-2.06-1.54-1.66.83-1.47.47-1.31-2.79-.84-3.13.13-.1,2.45-.03,2.92-.2Z"/>&#xa;      <path class="cls-3" d="M100.33,220.11c.18.22-1.73,4.63-2.06,5.22-.17.3-.73,1.62-1.26,1.02-.22-.25,1.93-4.8,2.29-5.42.14-.23.39-1.6,1.03-.82Z"/>&#xa;      <path class="cls-3" d="M97,231.34c.09.1.17,2.15.45,2.64l-2.11,1.52c0-.47.68-5.3,1.66-4.16Z"/>&#xa;      <path class="cls-3" d="M103.25,229.27c.67.51,0,.75-.61.83-1.23.16-2.7-.11-3.96,0v-1.25s4.58.42,4.58.42Z"/>&#xa;      <path class="cls-3" d="M89.09,175.56c-1.09.18-.74-.17-.95-.9-.54-1.9-.1-3.07.12-4.93l.83,5.82Z"/>&#xa;      <path class="cls-3" d="M93.4,225.8c.52.45,2.12.58,2.36,1.8-.5.39-4.69-2.91-5.37-3.57-.26-.26-1.32-.96-.87-1.41.68-.68,3.55,2.9,3.88,3.19Z"/>&#xa;      <path class="cls-3" d="M92.42,152.67c.29,1.38-2.5,1.03-3.33,1.24v-1.66s3.33.42,3.33.42Z"/>&#xa;      <path class="cls-7" d="M94.09,172.65c.65-.08,1.48.12,2.08,0v.42c-.81.18-1.76,1.19-2.91.83-.1-.08-.59.07-.83,0-.11-1.24.72-1.14,1.66-1.25Z"/>&#xa;      <path class="cls-7" d="M93.67,174.73c.14-.02.28.03.42,0v1.25c-.42.01-.83-.01-1.25,0-.54.02-1.14-.07-1.67,0l-.42-.83c.96-.45,2.01-.27,2.91-.42Z"/>&#xa;      <path class="cls-3" d="M96.17,173.07c.35-.08.85.04,1.25,0-.45.97-2.11,1.42-3.33,1.66-.13.03-.28-.02-.42,0-.16-.21-.26-.71-.42-.83,1.15.36,2.1-.65,2.91-.83Z"/>&#xa;      <path class="cls-7" d="M92.43,176.81c-.14.33-.74,1.6-1.02,1.6-1.76-.02-2.82-1.26-1.06-1.6.6-.12,1.43.08,2.08,0Z"/>&#xa;      <path class="cls-7" d="M91.59,179.73c-.53.13-1.14.27-1.67.42-.27.08-.55.32-.83.42h-.42c.12-.19-.28-1.14.22-1.27.53-.15,2.38-.13,2.69.44Z"/>&#xa;      <path class="cls-3" d="M91.18,175.98c.52-.07,1.12.02,1.67,0,0,.35-.32.6-.42.83-.65.08-1.48-.12-2.08,0-1.72-.03-.46-.67.83-.83Z"/>&#xa;      <path class="cls-3" d="M87.43,177.23s-.72.17-.84-.28c-.24-.91.17-2.44,0-3.47,1.85-.24-.17,2.59.83,3.74.06.07,1.71.24.83,1.25-.94,1.08-.77-1.16-.83-1.25Z"/>&#xa;      <path class="cls-3" d="M92,138.52l.42,1.66-1.66-.42c-.13-.76.46-1.37,1.24-1.24Z"/>&#xa;      <path class="cls-3" d="M104.91,164.75c-.11.57-1.3,1.59-1.66,1.24-.64-.6.94-1.36,1.66-1.24Z"/>&#xa;      <rect class="cls-3" x="91.18" y="154.76" width="1.24" height=".83"/>&#xa;      <path class="cls-3" d="M107.41,100.64c.28.14-.24.71-.83.41-.28-.14.24-.71.83-.41Z"/>&#xa;      <path class="cls-3" d="M92,119.37c-.14.28-.71-.24-.41-.83.14-.28.71.24.41.83Z"/>&#xa;      <path class="cls-7" d="M92.22,178.9c.27.14.27.28,0,.42v-.42Z"/>&#xa;      <path class="cls-3" d="M79.52,135.19l.84,4.99-2.91.42c-.1-.66,1.1-6.58,2.08-5.41Z"/>&#xa;      <path class="cls-3" d="M103.1,249.72c2.79-.93,4.4,1.38,1.69,2.54-2.39,1.03-3.13-2.06-1.69-2.54Z"/>&#xa;      <path class="cls-3" d="M104.08,243.42c.36,1.39-.93,3.88-2.52,2.73-1.7-1.23,1.02-3.17,2.52-2.73Z"/>&#xa;      <path class="cls-6" d="M109.49,123.95l-1.05,1.26h-12.68c-.68-.53,0-.77.61-.84,4.06-.52,8.95.5,13.12-.41Z"/>&#xa;      <path class="cls-6" d="M80.35,124.37c.59.6-.04.75-.62.83-2.28.29-4.62-.45-6.87,0,.02-1.96,1.87-.74,3.12-.79,1.08-.04,3.63-.8,4.37-.04Z"/>&#xa;      <path class="cls-6" d="M89.51,123.95c-.14.28-.71-.24-.41-.83.14-.28.71.24.41.83Z"/>&#xa;    </g>&#xa;  </g>&#xa;</svg></g></g></g><g data-cell-id="bqs7aqz5oVswFRp6lL_z-185"><g><rect x="269.22" y="117.04" width="251.55" height="122.96" fill="#ffffff" stroke="none" pointer-events="all" style="fill: light-dark(#ffffff, var(--ge-dark-color, #121212));"/><g><svg height="122.96" width="251.55" id="svg-image-P6FV5PyaFyEMCVrGkU4R" data-name="Capa 2" viewBox="0.002176910638809204 0 207.14781188964844 101.41598510742188" xmlns="http://www.w3.org/2000/svg" x="269.22" y="117.04" style="font-family: initial;">&#xa;  <defs>&#xa;    <style>#svg-image-P6FV5PyaFyEMCVrGkU4R .cls-1 { fill: rgb(255, 255, 255); }&#xa;</style>&#xa;  </defs>&#xa;  <g id="Capa_1-2" data-name="Capa 1">&#xa;    <g>&#xa;      <rect class="cls-1" x="4.64" y="5.01" width="196.21" height="90.95"/>&#xa;      <g>&#xa;        <path d="M206.4.22c.24.16.74.87.75,1.19v26c-.54,2.62-1.73,5.08-3.66,7.13-.4,21.37-.07,42.84-.17,64.24.03,1.18-.76,1.76-1.63,2.48-64.92.32-129.89.03-194.83.14-1.18.06-1.89-.82-2.45-1.57l-.11-64.68c-1.56-2.41-3.32-4.52-3.8-7.39C.59,19.64-.45,10.65.24,2.58c.09-1.06.27-1.93,1.28-2.58l204.88.22ZM200.85,5.01H6.76v20.65c0,8.6,14.51,12.33,20.21,4.8,1.72-2.27,1.32-3.99,2.08-6.3s5.18-2.52,6.11-.14c.89,2.25.28,3.97,2.09,6.34,4.82,6.32,16.31,5.29,19.46-1.72.7-1.56.42-2.88.86-4.3.87-2.77,5.59-2.77,6.44.17.68,2.36.14,3.38,1.86,5.76,4.95,6.85,17.57,5.14,19.9-2.73.39-1.32.21-3.83,1.57-4.71,1.55-1.02,4.31-.6,5.06,1.03.43.94.37,2.61.63,3.53,2.45,8.78,17.03,9.77,20.97,1.25.69-1.49.53-3.04,1.1-4.48.73-1.87,3.11-2.45,4.95-1.28,1.72,1.08,1.18,2.32,1.56,3.89,2.45,10.17,18.72,10.24,21.4.93.62-2.15.1-5.5,3.8-5.44,2.66.04,2.98,1.84,3.44,3.64s.39,2.87,1.63,4.56c4.01,5.46,14.32,5.4,18.41,0,1.7-2.25,1.35-3.98,2.08-6.31.78-2.48,5.21-2.43,6.12-.14s.23,3.87,2.09,6.34c5.77,7.7,20.27,3.95,20.27-4.9V5.01ZM57.98,36.52v48.97h5.62v-48.97c0-.18-2.6-2.07-2.81-2.62-.28.67-2.69,2.27-2.81,2.62ZM125.37,75.21v-36.17c-2.96-1.26-5.3-2.97-7.41-5.14-5,6.56-15.59,8.15-23.35,4.15-.71-.36-1.99-1.17-2.6-1.64-.48-.37-2.42-2.39-2.69-2.32-4.52,5.22-11.93,7.15-19.21,5.62v45.77h67.39v-40.82c0-.08.98-1.21,1.06-1.27,1.2-.79,3.18-.76,4.31.11.23.18.91,1,.91,1.15v40.82h5.84v-48.77c0-.19-2.73-2.15-2.81-2.81-1.95,2.16-4.27,3.93-7.18,5.05-2.66,1.03-4.85,1.19-7.75,1.36v37.51c-.04,1.31-1.07,2.32-2.38,2.8l-51.76-.09c-.85-.46-1.9-1.21-2.04-2.12l.02-31.61c.84-2.09,3.41-2.93,5.38-1.37.46.36,1.12,1.23,1.12,1.75v28.02h43.13ZM172.54,36.72v48.77h5.84v-48.77c0-.2-2.77-2.36-3.14-2.81-.02.88-2.56,2.39-2.7,2.81ZM35.07,85.49v-48.77c-.64-.29-2.57-2.67-3-2.6-.32.05-2.22,2.33-2.84,2.6v48.77h5.84ZM22.93,39.53c-2.33.78-5.88.84-8.37.53-1.28-.16-2.47-.9-3.77-.92v46.35h12.13v-45.96ZM196.8,39.14c-1.46.13-2.7.77-4.18.95-2.5.29-5.48.04-7.95-.36v45.77h12.13v-46.35ZM166.25,85.49v-45.96c-3.14,1.01-7.05.65-10.33.19v45.77h10.33ZM51.46,39.72c-3.29.58-6.81.58-10.11,0v45.77h10.11v-45.77ZM196.8,91.12H10.8v4.85h186v-4.85Z"/>&#xa;        <path d="M131.82,22.31c3.75-.56,5.41,3.92,2.06,5.27-4.6,1.85-6.64-4.59-2.06-5.27Z"/>&#xa;        <path d="M163.25,22.92c.37.28,1.23,1.76,1.23,2.16,0,.29-.71,1.64-.96,1.91-.99,1.07-3.3,1.15-4.51.32-.39-.26-1.23-1.66-1.3-2.06-.11-.68,1.01-2.24,1.68-2.6,1.06-.58,2.92-.45,3.86.27Z"/>&#xa;        <path d="M192.68,26.47s-.77.69-.83.73c-3.65,2.32-7.18-1.84-4.37-4.16,2.69-2.22,6.78.63,5.2,3.43Z"/>&#xa;        <path d="M15.19,26.62c-.05-.06-.22-.06-.32-.24-1.7-2.92,3.04-5.61,5.34-3.21,2.97,3.1-2.46,6.72-5.01,3.45Z"/>&#xa;        <path d="M49.1,23.54c.06.07.22.07.32.24,1.74,2.99-3.23,5.59-5.47,3.13-2.73-2.99,2.4-6.63,5.15-3.38Z"/>&#xa;        <path d="M106.38,23.54c.05.06.22.06.32.24,1.7,2.92-3.04,5.61-5.34,3.21-2.97-3.1,2.46-6.72,5.01-3.45Z"/>&#xa;        <path d="M72.48,26.62c-2.45-2.88,2.76-6,5.15-3.38,2.7,2.96-2.35,6.67-5.15,3.38Z"/>&#xa;      </g>&#xa;    </g>&#xa;  </g>&#xa;</svg></g></g></g><g data-cell-id="bqs7aqz5oVswFRp6lL_z-186"><g><g><svg height="178" width="120" id="svg-image-kSiHLYG2CLRXh7BSfOGK" data-name="Capa 2" viewBox="0.00936877727508545 -0.004801273345947266 108.28974151611328 159.5882110595703" xmlns="http://www.w3.org/2000/svg" x="99.22" y="74.4" style="font-family: initial;">&#xa;  <defs>&#xa;    <style>#svg-image-kSiHLYG2CLRXh7BSfOGK .cls-1 { fill: rgb(255, 255, 255); }&#xa;</style>&#xa;  </defs>&#xa;  <g id="Capa_1-2" data-name="Capa 1">&#xa;    <g>&#xa;      <path d="M97.47,143.93c4.18-.38,10.01-.21,10.74,6.65.12,1.16.15,7.15-.11,7.94-.23.68-.97,1.15-1.55,1.05l-105.25-.03c-1.68-.42-1.29-6.17-1.15-7.93.63-7.83,6.04-8.09,10.99-7.68v-6.28c0-1.66,3.23-5.6,4.59-5.6h6.69V19.03h-5.64L9.88,2.17C10,.43,11.44-.06,12.56,0l84.45.09c1.41.37,1.77,1.18,1.38,2.99-2.36,4.18-3.65,10.78-5.85,14.83-.19.34-.69,1.11-.98,1.11h-5.25v113.02h6.3c.76,0,2.73,1.71,3.29,2.54.39.58,1.57,3.18,1.57,3.74v5.6ZM94.59,3.75H13.75l4.17,11.33,72.07.21c.34,0,.45-.25.63-.55.53-.88,3.56-8.8,3.84-9.96.08-.35.17-.65.12-1.03ZM25.3,132.05h57.6l.39-.51V19.54l-.39-.51H25.3v113.02ZM94.59,143.93v-5.26c0-1.01-1.79-3.06-2.75-2.89H16.76c-1.06-.38-3.01,2.17-3.01,3.23v4.92h80.83ZM2.99,150.89c-.21,1.51.15,3.66,0,5.26h101.96l.39-.51v-5.09c0-.82-1.88-3.11-2.75-2.89H6c-1.19-.22-2.82,1.9-3.01,3.23Z"/>&#xa;      <path class="cls-1" d="M25.3,132.05V19.03h57.6l.39.51v112.01l-.39.51H25.3ZM53.84,28.24l-19.49,20.99-.6,1.27.06,70.72c.24,1.26.62,1.53,1.59,1.68l38-.08c.93-.28,1.28-1.3,1.25-2.46l-.07-70.2c-.11-.47-1.16-1.67-1.52-2.11-4.57-5.66-11.35-12.76-16.41-17.81-.8-.8-1.8-2.24-2.82-1.99Z"/>&#xa;      <path class="cls-1" d="M94.59,3.75c.05.38-.04.68-.12,1.03-.28,1.17-3.31,9.08-3.84,9.96-.18.3-.29.54-.63.55l-72.07-.21L13.75,3.75h80.83Z"/>&#xa;      <path class="cls-1" d="M2.99,150.89c.18-1.34,1.82-3.45,3.01-3.24h96.6c.87-.21,2.75,2.08,2.75,2.9v5.09l-.39.51H2.99c.15-1.6-.21-3.75,0-5.26Z"/>&#xa;      <path class="cls-1" d="M94.59,143.93H13.75v-4.92c0-1.06,1.95-3.61,3.01-3.24h75.08c.96-.16,2.75,1.89,2.75,2.9v5.26Z"/>&#xa;      <path d="M53.84,28.24c1.02-.24,2.02,1.2,2.82,1.99,5.06,5.05,11.85,12.15,16.41,17.81.36.44,1.41,1.65,1.52,2.11l.07,70.2c.03,1.16-.32,2.18-1.25,2.46l-38,.08c-.97-.15-1.35-.42-1.59-1.68l-.06-70.72.6-1.27,19.49-20.99ZM71.75,119.15V51.44l-17.45-18.84-17.72,18.84v67.71h35.17Z"/>&#xa;      <path class="cls-1" d="M71.75,119.15h-35.17V51.44l17.72-18.84,17.45,18.84v67.71Z"/>&#xa;      <path d="M60.73,62.19h5.9c.81,0,1.13,1.32,1.19,1.98.18,1.91.3,8.69-.02,10.36-.07.35-.74,1.2-.91,1.2h-6.17v26.69c-.04,1.06-.56,1.11-1.43,1.2-2.29.23-8.31.29-10.52,0-.45-.06-.8-.1-1.04-.54l-.13-27.35h-5.9c-.81,0-1.13-1.32-1.19-1.98-.19-2.11-.28-8.12.03-10.08.08-.52.65-1.48,1.16-1.48h5.9c.25-2.62-.34-5.84-.01-8.37.06-.45.1-.81.54-1.05,3.48.12,8.07-.6,11.43-.14.35.05,1.17.34,1.17.68v8.89ZM58.11,55.29h-7.61v8.36c0,.38-.77,1.46-1.18,1.46h-5.9v7.7h5.64c.56,0,1.44.89,1.44,1.46v26.68h7.61v-27.21c0-.11,1.04-.93,1.18-.93h5.64v-7.7h-5.9c-.27,0-.92-.65-.92-.93v-8.89Z"/>&#xa;    </g>&#xa;  </g>&#xa;</svg></g></g></g><g data-cell-id="bqs7aqz5oVswFRp6lL_z-187"><g><g><svg height="117.36" width="67.22" id="svg-image-PzWI6mSfQht6v1yqcUum" data-name="Capa 2" viewBox="-0.009570330381393433 -0.0000877082347869873 78.89234924316406 137.77328491210938" xmlns="http://www.w3.org/2000/svg" x="574" y="66.84" style="font-family: initial;">&#xa;  <defs>&#xa;    <style>#svg-image-PzWI6mSfQht6v1yqcUum .cls-1 { fill: rgb(255, 255, 255); }&#xa;</style>&#xa;  </defs>&#xa;  <g id="Capa_1-2" data-name="Capa 1">&#xa;    <g>&#xa;      <path d="M11.44,136.14c-.45,1.95-4.98,2.8-5.56-1.2l-.07-44.83c-3.48.08-5.26.43-5.63-3.52-.69-7.38.14-16.58,8.71-18.59.95-.22,2.38.25,2.55-.83V12.25C11.71,5.18,16.1.77,23.12.28c11.44-.79,24.2.34,35.7.36,5.91,1.53,8.57,6.03,8.95,11.88v55.34c5.3-.54,10.51,4.57,10.98,9.7.15,1.68.25,9.61-.14,10.87-.65,2.13-3.34,1.62-5.04,1.71l-.46.66-.02,45.03c-.36,2.2-4,2.52-5.02.83-.11-.18-.59-1.81-.59-1.94v-44.62H11.87l-.42.42v45.61ZM62.12,67.58V11.7c0-.16-.4-1.75-.5-2.03-.85-2.42-3.09-3.57-5.54-3.75-10.68.83-22.99-1.09-33.48.05-2.1.23-3.82,1.14-4.79,3.09-.14.28-.73,1.94-.73,2.08v56.45h45.05ZM73.1,84.47v-6.9c0-.15-.57-1.26-.72-1.53-1.17-2.12-3.08-2.55-5.34-2.83H12.14c-2.6.19-4.9,1.09-5.83,3.73-.1.29-.5,1.87-.5,2.03v5.07l.42.42h66.87Z"/>&#xa;      <path class="cls-1" d="M62.12,67.58H17.08V11.13c0-.15.59-1.81.73-2.08.97-1.94,2.69-2.86,4.79-3.09,10.49-1.13,22.79.78,33.48-.05,2.45.17,4.69,1.32,5.54,3.75.1.29.5,1.87.5,2.03v55.89Z"/>&#xa;      <path class="cls-1" d="M73.1,84.47H6.24l-.42-.42v-5.07c0-.16.4-1.75.5-2.03.93-2.64,3.23-3.54,5.83-3.75h54.91c2.25.29,4.17.72,5.34,2.84.15.27.72,1.38.72,1.53v6.9Z"/>&#xa;    </g>&#xa;  </g>&#xa;</svg></g></g></g><g data-cell-id="bqs7aqz5oVswFRp6lL_z-197"><g><path d="M 8.02 298.18 L 8.05 315.05 L 278 315" fill="none" stroke="#000000" stroke-width="1.97" stroke-miterlimit="10" stroke-dasharray="15.75 15.75" pointer-events="stroke" style="stroke: light-dark(rgb(0, 0, 0), rgb(255, 255, 255));"/><path d="M 8 292.2 L 12 300.16 L 8.02 298.18 L 4.04 300.18 Z" fill="#000000" stroke="#000000" stroke-width="1.97" stroke-miterlimit="10" pointer-events="all" style="fill: light-dark(rgb(0, 0, 0), rgb(255, 255, 255)); stroke: light-dark(rgb(0, 0, 0), rgb(255, 255, 255));"/><ellipse cx="281" cy="315" rx="3" ry="3" fill="#000000" stroke="#000000" stroke-width="1.97" pointer-events="all" style="fill: light-dark(rgb(0, 0, 0), rgb(255, 255, 255)); stroke: light-dark(rgb(0, 0, 0), rgb(255, 255, 255));"/></g></g><g data-cell-id="bqs7aqz5oVswFRp6lL_z-198"><g><path d="M 807 298.18 L 807 314.76 L 504 314.84" fill="none" stroke="#000000" stroke-width="1.97" stroke-miterlimit="10" stroke-dasharray="15.75 15.75" pointer-events="stroke" style="stroke: light-dark(rgb(0, 0, 0), rgb(255, 255, 255));"/><path d="M 807 292.2 L 810.98 300.17 L 807 298.18 L 803.02 300.17 Z" fill="#000000" stroke="#000000" stroke-width="1.97" stroke-miterlimit="10" pointer-events="all" style="fill: light-dark(rgb(0, 0, 0), rgb(255, 255, 255)); stroke: light-dark(rgb(0, 0, 0), rgb(255, 255, 255));"/><ellipse cx="501" cy="314.84" rx="3" ry="3" fill="#000000" stroke="#000000" stroke-width="1.97" pointer-events="all" style="fill: light-dark(rgb(0, 0, 0), rgb(255, 255, 255)); stroke: light-dark(rgb(0, 0, 0), rgb(255, 255, 255));"/></g></g><g data-cell-id="bqs7aqz5oVswFRp6lL_z-205"><g data-cell-id="bqs7aqz5oVswFRp6lL_z-217"><g data-cell-id="bqs7aqz5oVswFRp6lL_z-216"/><g data-cell-id="bqs7aqz5oVswFRp6lL_z-202"/></g></g><g data-cell-id="bqs7aqz5oVswFRp6lL_z-218"><g data-cell-id="bqs7aqz5oVswFRp6lL_z-219"><g data-cell-id="bqs7aqz5oVswFRp6lL_z-220"/></g><g data-cell-id="3sGnDGBDs-SrtWcaNYYb-38"/></g><g data-cell-id="bqs7aqz5oVswFRp6lL_z-222"><g data-cell-id="bqs7aqz5oVswFRp6lL_z-223"><g data-cell-id="bqs7aqz5oVswFRp6lL_z-224"/><g data-cell-id="bqs7aqz5oVswFRp6lL_z-225"/></g></g><g data-cell-id="bqs7aqz5oVswFRp6lL_z-234"><g data-cell-id="bqs7aqz5oVswFRp6lL_z-235"><g data-cell-id="bqs7aqz5oVswFRp6lL_z-236"/><g data-cell-id="bqs7aqz5oVswFRp6lL_z-237"/></g></g><g data-cell-id="bqs7aqz5oVswFRp6lL_z-134"><g data-cell-id="bqs7aqz5oVswFRp6lL_z-135"><g data-cell-id="bqs7aqz5oVswFRp6lL_z-136"/><g data-cell-id="bqs7aqz5oVswFRp6lL_z-137"/></g></g><g data-cell-id="3sGnDGBDs-SrtWcaNYYb-6"><g data-cell-id="3sGnDGBDs-SrtWcaNYYb-7"><g data-cell-id="3sGnDGBDs-SrtWcaNYYb-8"/><g data-cell-id="3sGnDGBDs-SrtWcaNYYb-9"/></g></g><g data-cell-id="3sGnDGBDs-SrtWcaNYYb-10"><g data-cell-id="3sGnDGBDs-SrtWcaNYYb-11"><g data-cell-id="3sGnDGBDs-SrtWcaNYYb-12"/><g data-cell-id="3sGnDGBDs-SrtWcaNYYb-13"/></g></g><g data-cell-id="3sGnDGBDs-SrtWcaNYYb-14"><g data-cell-id="3sGnDGBDs-SrtWcaNYYb-15"><g data-cell-id="3sGnDGBDs-SrtWcaNYYb-16"/><g data-cell-id="3sGnDGBDs-SrtWcaNYYb-17"/></g></g><g data-cell-id="3sGnDGBDs-SrtWcaNYYb-18"><g data-cell-id="3sGnDGBDs-SrtWcaNYYb-19"><g data-cell-id="3sGnDGBDs-SrtWcaNYYb-20"/><g data-cell-id="3sGnDGBDs-SrtWcaNYYb-21"/></g></g><g data-cell-id="3sGnDGBDs-SrtWcaNYYb-22"><g/><g data-cell-id="3sGnDGBDs-SrtWcaNYYb-23"><g/><g data-cell-id="3sGnDGBDs-SrtWcaNYYb-24"><g><g><svg height="223.38" width="25.47" id="svg-image-4dGxie3mkgf_ulTNBEt0" data-name="Capa 2" viewBox="0.4925566613674164 -0.009999990463256836 12.560580253601074 113.69999694824219" xmlns="http://www.w3.org/2000/svg" x="517.4" y="64.75" style="font-family: initial;">&#xa;  <defs>&#xa;    <style>#svg-image-4dGxie3mkgf_ulTNBEt0 .cls-1 { fill: rgb(255, 255, 255); stroke: rgb(29, 29, 27); }&#xa;#svg-image-4dGxie3mkgf_ulTNBEt0 .cls-1, #svg-image-4dGxie3mkgf_ulTNBEt0 .cls-2 { stroke-miterlimit: 10; }&#xa;#svg-image-4dGxie3mkgf_ulTNBEt0 .cls-3, #svg-image-4dGxie3mkgf_ulTNBEt0 .cls-2 { fill: rgb(14, 18, 32); }&#xa;#svg-image-4dGxie3mkgf_ulTNBEt0 .cls-2 { stroke: rgb(60, 60, 59); }&#xa;#svg-image-4dGxie3mkgf_ulTNBEt0 .cls-4 { fill: rgb(230, 51, 42); }&#xa;</style>&#xa;  </defs>&#xa;  <g id="Capa_1-2" data-name="Capa 1">&#xa;    <g>&#xa;      <g>&#xa;        <path class="cls-3" d="M8.67,18.6h-3.79c-.07,0-.12-.11-.12-.25V7.84c0-.87.34-1.58.76-1.58h2.52c.42,0,.76.71.76,1.58v10.52c0,.14-.05.25-.12.25ZM5,18.11h3.56V7.84c0-.6-.23-1.08-.52-1.08h-2.52c-.29,0-.52.49-.52,1.08v10.27Z"/>&#xa;        <path class="cls-4" d="M7.77,1.54c-.17-.4-.36-.78-.52-1.05-.26-.44-.38-.5-.47-.5s-.21.06-.47.5c-.16.27-.35.64-.52,1.05-.16.36-.66,1.59-.66,2.3,0,1.1.74,2,1.65,2s1.65-.9,1.65-2c0-.71-.51-1.94-.66-2.3ZM6.78,5.12c-.49,0-.88-.48-.88-1.07,0-.38.25-1,.33-1.18.35-.82.5-.82.55-.82s.21,0,.55.82c.08.18.33.81.33,1.18,0,.59-.4,1.07-.88,1.07Z"/>&#xa;        <path class="cls-2" d="M11.85,21.32H1.7c-.08,0-.15-.06-.19-.15l-1-2.71c-.03-.08-.02-.16.02-.23.04-.07.1-.11.17-.11h12.15c.07,0,.13.04.17.11.04.07.04.16.02.23l-1,2.71c-.03.09-.11.15-.19.15ZM1.84,20.82h9.88l.82-2.22H1.02l.82,2.22Z"/>&#xa;        <path class="cls-3" d="M7.57,10.04c-.15,0-.33-.09-.49-.37-.11-.18-.18-.38-.25-.58-.03-.08-.06-.16-.09-.24-.12-.29-.24-.46-.37-.51-.19-.06-.39.12-.56.3l-.04.04c-.19.21-.4.44-.66.44-.09,0-.19-.03-.28-.09-.04-.03-.07-.1-.07-.17v-1.4c0-.66.34-1.2.76-1.2h2.52c.42,0,.76.54.76,1.2v.86c0,.06-.02.12-.05.16-.03.04-.07.04-.11.02-.01,0-.03-.02-.04-.02-.07-.04-.13-.08-.18-.07-.11.02-.18.28-.2.36-.02.08-.03.17-.05.26-.02.13-.05.26-.08.39-.05.2-.16.47-.34.58-.05.03-.11.05-.18.05ZM6.29,7.96s.09,0,.13.02c.2.07.37.3.52.68.03.08.06.17.09.26.07.19.13.37.22.51.1.17.27.31.41.22.11-.07.18-.27.21-.38.03-.11.05-.22.07-.34.02-.09.03-.19.05-.28.08-.36.22-.58.39-.61.06-.01.12,0,.17.02v-.59c0-.45-.23-.82-.52-.82h-2.52c-.29,0-.52.37-.52.82v1.27s.08.02.12.02c.18,0,.36-.2.53-.38l.04-.04c.18-.19.39-.38.61-.38Z"/>&#xa;      </g>&#xa;      <rect class="cls-1" x="5.32" y="21.06" width="2.92" height="92.63"/>&#xa;    </g>&#xa;  </g>&#xa;</svg></g></g></g><g data-cell-id="3sGnDGBDs-SrtWcaNYYb-25"><g><g><svg height="149.7" width="54.22" id="svg-image-tGSQNYKnbzcmP7mS6BM_" data-name="Capa 2" viewBox="0.29000091552734375 0.1204380989074707 36.44047546386719 98.75994873046875" xmlns="http://www.w3.org/2000/svg" x="482.14" y="155.05" style="font-family: initial;">&#xa;  <defs>&#xa;    <style>#svg-image-tGSQNYKnbzcmP7mS6BM_ .cls-1 { fill: rgb(67, 41, 24); stroke: rgb(67, 41, 24); }&#xa;#svg-image-tGSQNYKnbzcmP7mS6BM_ .cls-1, #svg-image-tGSQNYKnbzcmP7mS6BM_ .cls-2, #svg-image-tGSQNYKnbzcmP7mS6BM_ .cls-3, #svg-image-tGSQNYKnbzcmP7mS6BM_ .cls-4, #svg-image-tGSQNYKnbzcmP7mS6BM_ .cls-5, #svg-image-tGSQNYKnbzcmP7mS6BM_ .cls-6, #svg-image-tGSQNYKnbzcmP7mS6BM_ .cls-7, #svg-image-tGSQNYKnbzcmP7mS6BM_ .cls-8, #svg-image-tGSQNYKnbzcmP7mS6BM_ .cls-9 { stroke-miterlimit: 10; }&#xa;#svg-image-tGSQNYKnbzcmP7mS6BM_ .cls-1, #svg-image-tGSQNYKnbzcmP7mS6BM_ .cls-3, #svg-image-tGSQNYKnbzcmP7mS6BM_ .cls-9 { stroke-width: 0.25px; }&#xa;#svg-image-tGSQNYKnbzcmP7mS6BM_ .cls-2 { fill: rgb(255, 255, 255); }&#xa;#svg-image-tGSQNYKnbzcmP7mS6BM_ .cls-2, #svg-image-tGSQNYKnbzcmP7mS6BM_ .cls-4, #svg-image-tGSQNYKnbzcmP7mS6BM_ .cls-5, #svg-image-tGSQNYKnbzcmP7mS6BM_ .cls-6 { stroke-width: 0.5px; }&#xa;#svg-image-tGSQNYKnbzcmP7mS6BM_ .cls-2, #svg-image-tGSQNYKnbzcmP7mS6BM_ .cls-4, #svg-image-tGSQNYKnbzcmP7mS6BM_ .cls-5, #svg-image-tGSQNYKnbzcmP7mS6BM_ .cls-6, #svg-image-tGSQNYKnbzcmP7mS6BM_ .cls-7, #svg-image-tGSQNYKnbzcmP7mS6BM_ .cls-8 { stroke: rgb(29, 29, 27); }&#xa;#svg-image-tGSQNYKnbzcmP7mS6BM_ .cls-3 { stroke: rgb(112, 111, 111); }&#xa;#svg-image-tGSQNYKnbzcmP7mS6BM_ .cls-3, #svg-image-tGSQNYKnbzcmP7mS6BM_ .cls-6 { fill: none; }&#xa;#svg-image-tGSQNYKnbzcmP7mS6BM_ .cls-4, #svg-image-tGSQNYKnbzcmP7mS6BM_ .cls-7 { fill: rgb(210, 27, 50); }&#xa;#svg-image-tGSQNYKnbzcmP7mS6BM_ .cls-5 { fill: rgb(244, 207, 160); }&#xa;#svg-image-tGSQNYKnbzcmP7mS6BM_ .cls-7 { stroke-width: 0.75px; }&#xa;#svg-image-tGSQNYKnbzcmP7mS6BM_ .cls-8, #svg-image-tGSQNYKnbzcmP7mS6BM_ .cls-9 { fill: rgb(29, 29, 27); }&#xa;#svg-image-tGSQNYKnbzcmP7mS6BM_ .cls-9 { stroke: rgb(60, 60, 59); }&#xa;</style>&#xa;  </defs>&#xa;  <g id="Capa_1-2" data-name="Capa 1">&#xa;    <g>&#xa;      <path class="cls-5" d="M36.73,50.19c-.04,2.24-1.55,3.12-3.04,3.06-1.75-.06-2.98-.79-3.04-3.06-.04-1.69,1.36-3.06,3.04-3.06s3.07,1.37,3.04,3.06Z"/>&#xa;      <path class="cls-5" d="M36.42,51.16c-.04,2.24-1.55,3.12-3.04,3.06-1.75-.06-2.98-.79-3.04-3.06-.04-1.69,1.36-3.06,3.04-3.06s3.07,1.37,3.04,3.06Z"/>&#xa;      <path class="cls-5" d="M13.51,21.2v2.32c3.94,2.75,6.04,1.3,8.22,0v-2c-2.42,1.29-5.37,1.14-8.22-.31"/>&#xa;      <ellipse class="cls-9" cx="21.02" cy="96.25" rx="2.19" ry="7.82" transform="translate(-76.25 111.89) rotate(-86.81)"/>&#xa;      <path class="cls-7" d="M5.31,72.52c-.42,11.24-1.51,17.42-1.56,21.02,8.63,2.21,28.8,2.27,29.94.37-.3-5.6-2.19-14.15-2.26-21.39H5.31Z"/>&#xa;      <path class="cls-5" d="M28.69,11.51c-.15,8.12-5.61,11.29-11,11.1-6.34-.22-10.8-2.88-11-11.1C6.53,5.38,11.61.41,17.68.41s11.12,4.97,11,11.1Z"/>&#xa;      <path class="cls-2" d="M32.79,74.14l-32.5.38,6.38-38.14c.48-7.65,4.18-9.21,5.33-9.64s9.99-.85,9.99-.85c2.49.89,4.06,3.44,4.45,5.57.28,1.52,1.16,6.87,1.16,8.36l5.18,34.31Z"/>&#xa;      <path class="cls-6" d="M22,15.47c2.85,2.86,5.17,1.76,5.61,1.34"/>&#xa;      <path class="cls-8" d="M24.16,10.26c-.61,0-1.11-.5-1.11-1.12s.5-1.12,1.11-1.12,1.11.5,1.11,1.12-.5,1.12-1.11,1.12Z"/>&#xa;      <path class="cls-4" d="M18.27,23.93c-1.22-.02-3.57-.21-4.78-.69l.07,2.47-.06.55c2.01,1.16,6.61,1.47,8.21-.66h0v-2.42c-1.21.41-2.42.68-3.62.76"/>&#xa;      <line class="cls-3" x1="11.27" y1="37.22" x2="9.3" y2="72.52"/>&#xa;      <line class="cls-3" x1="23.65" y1="36.89" x2="29.25" y2="72.59"/>&#xa;      <path class="cls-1" d="M6.58,11.01c3.98-1.35,17.11-6.38,17.11-6.38l1.11-.77c.73.39,2.75,2.49,2.3,1.79C20.62-4.39,6.29.35,6.58,11.01Z"/>&#xa;      <path class="cls-2" d="M13.89,36.89c.95,24,6.82,17.88,17.16,17.85-.97-.08,1.34-7.5,1.02-7.53-6.87-.68-4.91,3.98-7.7-11.27"/>&#xa;    </g>&#xa;  </g>&#xa;</svg></g></g></g></g></g><g data-cell-id="3sGnDGBDs-SrtWcaNYYb-26"><g/><g data-cell-id="3sGnDGBDs-SrtWcaNYYb-27"><g/><g data-cell-id="3sGnDGBDs-SrtWcaNYYb-28"><g><g><svg height="223.38" width="25.47" id="svg-image-ODy6OQBRVyMvq36v-iPF" data-name="Capa 2" viewBox="0.4925566613674164 -0.009999990463256836 12.560580253601074 113.69999694824219" xmlns="http://www.w3.org/2000/svg" x="248.86" y="65.75" style="font-family: initial;">&#xa;  <defs>&#xa;    <style>#svg-image-ODy6OQBRVyMvq36v-iPF .cls-1 { fill: rgb(255, 255, 255); stroke: rgb(29, 29, 27); }&#xa;#svg-image-ODy6OQBRVyMvq36v-iPF .cls-1, #svg-image-ODy6OQBRVyMvq36v-iPF .cls-2 { stroke-miterlimit: 10; }&#xa;#svg-image-ODy6OQBRVyMvq36v-iPF .cls-3, #svg-image-ODy6OQBRVyMvq36v-iPF .cls-2 { fill: rgb(14, 18, 32); }&#xa;#svg-image-ODy6OQBRVyMvq36v-iPF .cls-2 { stroke: rgb(60, 60, 59); }&#xa;#svg-image-ODy6OQBRVyMvq36v-iPF .cls-4 { fill: rgb(230, 51, 42); }&#xa;</style>&#xa;  </defs>&#xa;  <g id="Capa_1-2" data-name="Capa 1">&#xa;    <g>&#xa;      <g>&#xa;        <path class="cls-3" d="M8.67,18.6h-3.79c-.07,0-.12-.11-.12-.25V7.84c0-.87.34-1.58.76-1.58h2.52c.42,0,.76.71.76,1.58v10.52c0,.14-.05.25-.12.25ZM5,18.11h3.56V7.84c0-.6-.23-1.08-.52-1.08h-2.52c-.29,0-.52.49-.52,1.08v10.27Z"/>&#xa;        <path class="cls-4" d="M7.77,1.54c-.17-.4-.36-.78-.52-1.05-.26-.44-.38-.5-.47-.5s-.21.06-.47.5c-.16.27-.35.64-.52,1.05-.16.36-.66,1.59-.66,2.3,0,1.1.74,2,1.65,2s1.65-.9,1.65-2c0-.71-.51-1.94-.66-2.3ZM6.78,5.12c-.49,0-.88-.48-.88-1.07,0-.38.25-1,.33-1.18.35-.82.5-.82.55-.82s.21,0,.55.82c.08.18.33.81.33,1.18,0,.59-.4,1.07-.88,1.07Z"/>&#xa;        <path class="cls-2" d="M11.85,21.32H1.7c-.08,0-.15-.06-.19-.15l-1-2.71c-.03-.08-.02-.16.02-.23.04-.07.1-.11.17-.11h12.15c.07,0,.13.04.17.11.04.07.04.16.02.23l-1,2.71c-.03.09-.11.15-.19.15ZM1.84,20.82h9.88l.82-2.22H1.02l.82,2.22Z"/>&#xa;        <path class="cls-3" d="M7.57,10.04c-.15,0-.33-.09-.49-.37-.11-.18-.18-.38-.25-.58-.03-.08-.06-.16-.09-.24-.12-.29-.24-.46-.37-.51-.19-.06-.39.12-.56.3l-.04.04c-.19.21-.4.44-.66.44-.09,0-.19-.03-.28-.09-.04-.03-.07-.1-.07-.17v-1.4c0-.66.34-1.2.76-1.2h2.52c.42,0,.76.54.76,1.2v.86c0,.06-.02.12-.05.16-.03.04-.07.04-.11.02-.01,0-.03-.02-.04-.02-.07-.04-.13-.08-.18-.07-.11.02-.18.28-.2.36-.02.08-.03.17-.05.26-.02.13-.05.26-.08.39-.05.2-.16.47-.34.58-.05.03-.11.05-.18.05ZM6.29,7.96s.09,0,.13.02c.2.07.37.3.52.68.03.08.06.17.09.26.07.19.13.37.22.51.1.17.27.31.41.22.11-.07.18-.27.21-.38.03-.11.05-.22.07-.34.02-.09.03-.19.05-.28.08-.36.22-.58.39-.61.06-.01.12,0,.17.02v-.59c0-.45-.23-.82-.52-.82h-2.52c-.29,0-.52.37-.52.82v1.27s.08.02.12.02c.18,0,.36-.2.53-.38l.04-.04c.18-.19.39-.38.61-.38Z"/>&#xa;      </g>&#xa;      <rect class="cls-1" x="5.32" y="21.06" width="2.92" height="92.63"/>&#xa;    </g>&#xa;  </g>&#xa;</svg></g></g></g><g data-cell-id="3sGnDGBDs-SrtWcaNYYb-29"><g><g transform="translate(282.98,0)scale(-1,1)translate(-282.98,0)"><svg height="149.7" width="54.22" id="svg-image-4-axuxlF4HaH7_-rTtFz" data-name="Capa 2" viewBox="0.29000091552734375 0.1204380989074707 36.44047546386719 98.75994873046875" xmlns="http://www.w3.org/2000/svg" x="255.87" y="156.05" style="font-family: initial;">&#xa;  <defs>&#xa;    <style>#svg-image-4-axuxlF4HaH7_-rTtFz .cls-1 { fill: rgb(67, 41, 24); stroke: rgb(67, 41, 24); }&#xa;#svg-image-4-axuxlF4HaH7_-rTtFz .cls-1, #svg-image-4-axuxlF4HaH7_-rTtFz .cls-2, #svg-image-4-axuxlF4HaH7_-rTtFz .cls-3, #svg-image-4-axuxlF4HaH7_-rTtFz .cls-4, #svg-image-4-axuxlF4HaH7_-rTtFz .cls-5, #svg-image-4-axuxlF4HaH7_-rTtFz .cls-6, #svg-image-4-axuxlF4HaH7_-rTtFz .cls-7, #svg-image-4-axuxlF4HaH7_-rTtFz .cls-8, #svg-image-4-axuxlF4HaH7_-rTtFz .cls-9 { stroke-miterlimit: 10; }&#xa;#svg-image-4-axuxlF4HaH7_-rTtFz .cls-1, #svg-image-4-axuxlF4HaH7_-rTtFz .cls-3, #svg-image-4-axuxlF4HaH7_-rTtFz .cls-9 { stroke-width: 0.25px; }&#xa;#svg-image-4-axuxlF4HaH7_-rTtFz .cls-2 { fill: rgb(255, 255, 255); }&#xa;#svg-image-4-axuxlF4HaH7_-rTtFz .cls-2, #svg-image-4-axuxlF4HaH7_-rTtFz .cls-4, #svg-image-4-axuxlF4HaH7_-rTtFz .cls-5, #svg-image-4-axuxlF4HaH7_-rTtFz .cls-6 { stroke-width: 0.5px; }&#xa;#svg-image-4-axuxlF4HaH7_-rTtFz .cls-2, #svg-image-4-axuxlF4HaH7_-rTtFz .cls-4, #svg-image-4-axuxlF4HaH7_-rTtFz .cls-5, #svg-image-4-axuxlF4HaH7_-rTtFz .cls-6, #svg-image-4-axuxlF4HaH7_-rTtFz .cls-7, #svg-image-4-axuxlF4HaH7_-rTtFz .cls-8 { stroke: rgb(29, 29, 27); }&#xa;#svg-image-4-axuxlF4HaH7_-rTtFz .cls-3 { stroke: rgb(112, 111, 111); }&#xa;#svg-image-4-axuxlF4HaH7_-rTtFz .cls-3, #svg-image-4-axuxlF4HaH7_-rTtFz .cls-6 { fill: none; }&#xa;#svg-image-4-axuxlF4HaH7_-rTtFz .cls-4, #svg-image-4-axuxlF4HaH7_-rTtFz .cls-7 { fill: rgb(210, 27, 50); }&#xa;#svg-image-4-axuxlF4HaH7_-rTtFz .cls-5 { fill: rgb(244, 207, 160); }&#xa;#svg-image-4-axuxlF4HaH7_-rTtFz .cls-7 { stroke-width: 0.75px; }&#xa;#svg-image-4-axuxlF4HaH7_-rTtFz .cls-8, #svg-image-4-axuxlF4HaH7_-rTtFz .cls-9 { fill: rgb(29, 29, 27); }&#xa;#svg-image-4-axuxlF4HaH7_-rTtFz .cls-9 { stroke: rgb(60, 60, 59); }&#xa;</style>&#xa;  </defs>&#xa;  <g id="Capa_1-2" data-name="Capa 1">&#xa;    <g>&#xa;      <path class="cls-5" d="M36.73,50.19c-.04,2.24-1.55,3.12-3.04,3.06-1.75-.06-2.98-.79-3.04-3.06-.04-1.69,1.36-3.06,3.04-3.06s3.07,1.37,3.04,3.06Z"/>&#xa;      <path class="cls-5" d="M36.42,51.16c-.04,2.24-1.55,3.12-3.04,3.06-1.75-.06-2.98-.79-3.04-3.06-.04-1.69,1.36-3.06,3.04-3.06s3.07,1.37,3.04,3.06Z"/>&#xa;      <path class="cls-5" d="M13.51,21.2v2.32c3.94,2.75,6.04,1.3,8.22,0v-2c-2.42,1.29-5.37,1.14-8.22-.31"/>&#xa;      <ellipse class="cls-9" cx="21.02" cy="96.25" rx="2.19" ry="7.82" transform="translate(-76.25 111.89) rotate(-86.81)"/>&#xa;      <path class="cls-7" d="M5.31,72.52c-.42,11.24-1.51,17.42-1.56,21.02,8.63,2.21,28.8,2.27,29.94.37-.3-5.6-2.19-14.15-2.26-21.39H5.31Z"/>&#xa;      <path class="cls-5" d="M28.69,11.51c-.15,8.12-5.61,11.29-11,11.1-6.34-.22-10.8-2.88-11-11.1C6.53,5.38,11.61.41,17.68.41s11.12,4.97,11,11.1Z"/>&#xa;      <path class="cls-2" d="M32.79,74.14l-32.5.38,6.38-38.14c.48-7.65,4.18-9.21,5.33-9.64s9.99-.85,9.99-.85c2.49.89,4.06,3.44,4.45,5.57.28,1.52,1.16,6.87,1.16,8.36l5.18,34.31Z"/>&#xa;      <path class="cls-6" d="M22,15.47c2.85,2.86,5.17,1.76,5.61,1.34"/>&#xa;      <path class="cls-8" d="M24.16,10.26c-.61,0-1.11-.5-1.11-1.12s.5-1.12,1.11-1.12,1.11.5,1.11,1.12-.5,1.12-1.11,1.12Z"/>&#xa;      <path class="cls-4" d="M18.27,23.93c-1.22-.02-3.57-.21-4.78-.69l.07,2.47-.06.55c2.01,1.16,6.61,1.47,8.21-.66h0v-2.42c-1.21.41-2.42.68-3.62.76"/>&#xa;      <line class="cls-3" x1="11.27" y1="37.22" x2="9.3" y2="72.52"/>&#xa;      <line class="cls-3" x1="23.65" y1="36.89" x2="29.25" y2="72.59"/>&#xa;      <path class="cls-1" d="M6.58,11.01c3.98-1.35,17.11-6.38,17.11-6.38l1.11-.77c.73.39,2.75,2.49,2.3,1.79C20.62-4.39,6.29.35,6.58,11.01Z"/>&#xa;      <path class="cls-2" d="M13.89,36.89c.95,24,6.82,17.88,17.16,17.85-.97-.08,1.34-7.5,1.02-7.53-6.87-.68-4.91,3.98-7.7-11.27"/>&#xa;    </g>&#xa;  </g>&#xa;</svg></g></g></g></g></g><g data-cell-id="3sGnDGBDs-SrtWcaNYYb-30"><g data-cell-id="3sGnDGBDs-SrtWcaNYYb-31"><g data-cell-id="3sGnDGBDs-SrtWcaNYYb-32"/><g data-cell-id="3sGnDGBDs-SrtWcaNYYb-33"/></g></g><g data-cell-id="3sGnDGBDs-SrtWcaNYYb-34"><g data-cell-id="3sGnDGBDs-SrtWcaNYYb-35"><g data-cell-id="3sGnDGBDs-SrtWcaNYYb-36"/><g data-cell-id="3sGnDGBDs-SrtWcaNYYb-37"/></g></g></g></g></g></svg>