<?xml version="1.0" encoding="UTF-8"?>
<!DOCTYPE svg PUBLIC "-//W3C//DTD SVG 1.1//EN" "http://www.w3.org/Graphics/SVG/1.1/DTD/svg11.dtd">
<svg xmlns="http://www.w3.org/2000/svg" style="background: #ffffff; background-color: light-dark(#ffffff, #121212); color-scheme: light dark;" xmlns:xlink="http://www.w3.org/1999/xlink" version="1.1" width="325px" height="463px" viewBox="-0.5 -0.5 325 463"><defs/><rect fill="#ffffff" width="100%" height="100%" x="0" y="0" style="fill: light-dark(rgb(255, 255, 255), rgb(18, 18, 18));"/><g><g data-cell-id="0"><g data-cell-id="1"><g data-cell-id="3sGnDGBDs-SrtWcaNYYb-80"/><g data-cell-id="3sGnDGBDs-SrtWcaNYYb-79"/><g data-cell-id="3sGnDGBDs-SrtWcaNYYb-50"/><g data-cell-id="bqs7aqz5oVswFRp6lL_z-114"/><g data-cell-id="bqs7aqz5oVswFRp6lL_z-23"/><g data-cell-id="bqs7aqz5oVswFRp6lL_z-5"/><g data-cell-id="bqs7aqz5oVswFRp6lL_z-9"/><g data-cell-id="bqs7aqz5oVswFRp6lL_z-16"/><g data-cell-id="bqs7aqz5oVswFRp6lL_z-17"><g data-cell-id="bqs7aqz5oVswFRp6lL_z-14"/><g data-cell-id="bqs7aqz5oVswFRp6lL_z-15"/></g><g data-cell-id="bqs7aqz5oVswFRp6lL_z-18"><g data-cell-id="bqs7aqz5oVswFRp6lL_z-19"/><g data-cell-id="bqs7aqz5oVswFRp6lL_z-20"/></g><g data-cell-id="bqs7aqz5oVswFRp6lL_z-21"/><g data-cell-id="bqs7aqz5oVswFRp6lL_z-22"/><g data-cell-id="bqs7aqz5oVswFRp6lL_z-24"/><g data-cell-id="bqs7aqz5oVswFRp6lL_z-25"/><g data-cell-id="bqs7aqz5oVswFRp6lL_z-73"><g data-cell-id="bqs7aqz5oVswFRp6lL_z-77"><g data-cell-id="bqs7aqz5oVswFRp6lL_z-75"/><g data-cell-id="bqs7aqz5oVswFRp6lL_z-76"/></g></g><g data-cell-id="bqs7aqz5oVswFRp6lL_z-78"><g data-cell-id="bqs7aqz5oVswFRp6lL_z-79"><g data-cell-id="bqs7aqz5oVswFRp6lL_z-80"/><g data-cell-id="bqs7aqz5oVswFRp6lL_z-81"/></g></g><g data-cell-id="bqs7aqz5oVswFRp6lL_z-82"/><g data-cell-id="bqs7aqz5oVswFRp6lL_z-83"/><g data-cell-id="bqs7aqz5oVswFRp6lL_z-84"/><g data-cell-id="bqs7aqz5oVswFRp6lL_z-85"><g data-cell-id="bqs7aqz5oVswFRp6lL_z-86"><g data-cell-id="bqs7aqz5oVswFRp6lL_z-87"/><g data-cell-id="bqs7aqz5oVswFRp6lL_z-88"/></g></g><g data-cell-id="bqs7aqz5oVswFRp6lL_z-89"><g data-cell-id="bqs7aqz5oVswFRp6lL_z-90"><g data-cell-id="bqs7aqz5oVswFRp6lL_z-91"/><g data-cell-id="bqs7aqz5oVswFRp6lL_z-92"/></g></g><g data-cell-id="bqs7aqz5oVswFRp6lL_z-93"/><g data-cell-id="bqs7aqz5oVswFRp6lL_z-94"/><g data-cell-id="bqs7aqz5oVswFRp6lL_z-95"/><g data-cell-id="bqs7aqz5oVswFRp6lL_z-96"/><g data-cell-id="bqs7aqz5oVswFRp6lL_z-98"/><g data-cell-id="bqs7aqz5oVswFRp6lL_z-99"/><g data-cell-id="bqs7aqz5oVswFRp6lL_z-100"/><g data-cell-id="bqs7aqz5oVswFRp6lL_z-101"/><g data-cell-id="bqs7aqz5oVswFRp6lL_z-102"/><g data-cell-id="bqs7aqz5oVswFRp6lL_z-103"/><g data-cell-id="bqs7aqz5oVswFRp6lL_z-104"><g data-cell-id="bqs7aqz5oVswFRp6lL_z-105"><g data-cell-id="bqs7aqz5oVswFRp6lL_z-106"/><g data-cell-id="bqs7aqz5oVswFRp6lL_z-107"/></g></g><g data-cell-id="bqs7aqz5oVswFRp6lL_z-108"><g data-cell-id="bqs7aqz5oVswFRp6lL_z-109"><g data-cell-id="bqs7aqz5oVswFRp6lL_z-110"/><g data-cell-id="bqs7aqz5oVswFRp6lL_z-111"/></g></g><g data-cell-id="bqs7aqz5oVswFRp6lL_z-115"/><g data-cell-id="bqs7aqz5oVswFRp6lL_z-116"/><g data-cell-id="bqs7aqz5oVswFRp6lL_z-117"/><g data-cell-id="bqs7aqz5oVswFRp6lL_z-118"/><g data-cell-id="bqs7aqz5oVswFRp6lL_z-128"/><g data-cell-id="bqs7aqz5oVswFRp6lL_z-129"/><g data-cell-id="bqs7aqz5oVswFRp6lL_z-130"/><g data-cell-id="bqs7aqz5oVswFRp6lL_z-131"/><g data-cell-id="bqs7aqz5oVswFRp6lL_z-132"/><g data-cell-id="bqs7aqz5oVswFRp6lL_z-133"/><g data-cell-id="bqs7aqz5oVswFRp6lL_z-144"/><g data-cell-id="bqs7aqz5oVswFRp6lL_z-145"/><g data-cell-id="bqs7aqz5oVswFRp6lL_z-146"/><g data-cell-id="bqs7aqz5oVswFRp6lL_z-147"/><g data-cell-id="bqs7aqz5oVswFRp6lL_z-156"/><g data-cell-id="bqs7aqz5oVswFRp6lL_z-157"/><g data-cell-id="bqs7aqz5oVswFRp6lL_z-172"/><g data-cell-id="bqs7aqz5oVswFRp6lL_z-173"/><g data-cell-id="bqs7aqz5oVswFRp6lL_z-174"/><g data-cell-id="bqs7aqz5oVswFRp6lL_z-175"/><g data-cell-id="bqs7aqz5oVswFRp6lL_z-176"><g data-cell-id="bqs7aqz5oVswFRp6lL_z-177"><g data-cell-id="bqs7aqz5oVswFRp6lL_z-178"/><g data-cell-id="bqs7aqz5oVswFRp6lL_z-179"/></g></g><g data-cell-id="bqs7aqz5oVswFRp6lL_z-180"><g data-cell-id="bqs7aqz5oVswFRp6lL_z-181"><g data-cell-id="bqs7aqz5oVswFRp6lL_z-182"/><g data-cell-id="bqs7aqz5oVswFRp6lL_z-183"/></g></g><g data-cell-id="bqs7aqz5oVswFRp6lL_z-184"/><g data-cell-id="bqs7aqz5oVswFRp6lL_z-185"/><g data-cell-id="bqs7aqz5oVswFRp6lL_z-186"/><g data-cell-id="bqs7aqz5oVswFRp6lL_z-187"/><g data-cell-id="bqs7aqz5oVswFRp6lL_z-197"/><g data-cell-id="bqs7aqz5oVswFRp6lL_z-198"/><g data-cell-id="bqs7aqz5oVswFRp6lL_z-205"><g data-cell-id="bqs7aqz5oVswFRp6lL_z-217"><g data-cell-id="bqs7aqz5oVswFRp6lL_z-216"/><g data-cell-id="bqs7aqz5oVswFRp6lL_z-202"/></g></g><g data-cell-id="bqs7aqz5oVswFRp6lL_z-218"><g data-cell-id="bqs7aqz5oVswFRp6lL_z-219"><g data-cell-id="bqs7aqz5oVswFRp6lL_z-220"/></g><g data-cell-id="3sGnDGBDs-SrtWcaNYYb-38"/></g><g data-cell-id="bqs7aqz5oVswFRp6lL_z-222"><g data-cell-id="bqs7aqz5oVswFRp6lL_z-223"><g data-cell-id="bqs7aqz5oVswFRp6lL_z-224"/><g data-cell-id="bqs7aqz5oVswFRp6lL_z-225"/></g></g><g data-cell-id="bqs7aqz5oVswFRp6lL_z-234"><g data-cell-id="bqs7aqz5oVswFRp6lL_z-235"><g data-cell-id="bqs7aqz5oVswFRp6lL_z-236"/><g data-cell-id="bqs7aqz5oVswFRp6lL_z-237"/></g></g><g data-cell-id="bqs7aqz5oVswFRp6lL_z-134"><g data-cell-id="bqs7aqz5oVswFRp6lL_z-135"><g data-cell-id="bqs7aqz5oVswFRp6lL_z-136"/><g data-cell-id="bqs7aqz5oVswFRp6lL_z-137"/></g></g><g data-cell-id="3sGnDGBDs-SrtWcaNYYb-6"><g data-cell-id="3sGnDGBDs-SrtWcaNYYb-7"><g data-cell-id="3sGnDGBDs-SrtWcaNYYb-8"/><g data-cell-id="3sGnDGBDs-SrtWcaNYYb-9"/></g></g><g data-cell-id="3sGnDGBDs-SrtWcaNYYb-10"><g data-cell-id="3sGnDGBDs-SrtWcaNYYb-11"><g data-cell-id="3sGnDGBDs-SrtWcaNYYb-12"/><g data-cell-id="3sGnDGBDs-SrtWcaNYYb-13"/></g></g><g data-cell-id="3sGnDGBDs-SrtWcaNYYb-14"><g data-cell-id="3sGnDGBDs-SrtWcaNYYb-15"><g data-cell-id="3sGnDGBDs-SrtWcaNYYb-16"/><g data-cell-id="3sGnDGBDs-SrtWcaNYYb-17"/></g></g><g data-cell-id="3sGnDGBDs-SrtWcaNYYb-18"><g data-cell-id="3sGnDGBDs-SrtWcaNYYb-19"><g data-cell-id="3sGnDGBDs-SrtWcaNYYb-20"/><g data-cell-id="3sGnDGBDs-SrtWcaNYYb-21"/></g></g><g data-cell-id="3sGnDGBDs-SrtWcaNYYb-22"><g data-cell-id="3sGnDGBDs-SrtWcaNYYb-23"><g data-cell-id="3sGnDGBDs-SrtWcaNYYb-24"/><g data-cell-id="3sGnDGBDs-SrtWcaNYYb-25"/></g></g><g data-cell-id="3sGnDGBDs-SrtWcaNYYb-26"><g data-cell-id="3sGnDGBDs-SrtWcaNYYb-27"><g data-cell-id="3sGnDGBDs-SrtWcaNYYb-28"/><g data-cell-id="3sGnDGBDs-SrtWcaNYYb-29"/></g></g><g data-cell-id="3sGnDGBDs-SrtWcaNYYb-30"><g data-cell-id="3sGnDGBDs-SrtWcaNYYb-31"><g data-cell-id="3sGnDGBDs-SrtWcaNYYb-32"/><g data-cell-id="3sGnDGBDs-SrtWcaNYYb-33"/></g></g><g data-cell-id="3sGnDGBDs-SrtWcaNYYb-34"><g data-cell-id="3sGnDGBDs-SrtWcaNYYb-35"><g data-cell-id="3sGnDGBDs-SrtWcaNYYb-36"/><g data-cell-id="3sGnDGBDs-SrtWcaNYYb-37"/></g></g><g data-cell-id="3sGnDGBDs-SrtWcaNYYb-39"/><g data-cell-id="3sGnDGBDs-SrtWcaNYYb-40"/><g data-cell-id="3sGnDGBDs-SrtWcaNYYb-41"/><g data-cell-id="3sGnDGBDs-SrtWcaNYYb-42"><g data-cell-id="3sGnDGBDs-SrtWcaNYYb-43"/><g data-cell-id="3sGnDGBDs-SrtWcaNYYb-44"/></g><g data-cell-id="3sGnDGBDs-SrtWcaNYYb-45"><g data-cell-id="3sGnDGBDs-SrtWcaNYYb-46"/><g data-cell-id="3sGnDGBDs-SrtWcaNYYb-47"/></g><g data-cell-id="3sGnDGBDs-SrtWcaNYYb-48"/><g data-cell-id="3sGnDGBDs-SrtWcaNYYb-49"/><g data-cell-id="3sGnDGBDs-SrtWcaNYYb-52"/><g data-cell-id="3sGnDGBDs-SrtWcaNYYb-53"/><g data-cell-id="3sGnDGBDs-SrtWcaNYYb-54"/><g data-cell-id="3sGnDGBDs-SrtWcaNYYb-55"/><g data-cell-id="3sGnDGBDs-SrtWcaNYYb-56"/><g data-cell-id="3sGnDGBDs-SrtWcaNYYb-57"><g data-cell-id="3sGnDGBDs-SrtWcaNYYb-58"><g data-cell-id="3sGnDGBDs-SrtWcaNYYb-59"/><g data-cell-id="3sGnDGBDs-SrtWcaNYYb-60"/></g></g><g data-cell-id="3sGnDGBDs-SrtWcaNYYb-61"><g data-cell-id="3sGnDGBDs-SrtWcaNYYb-62"><g data-cell-id="3sGnDGBDs-SrtWcaNYYb-63"/><g data-cell-id="3sGnDGBDs-SrtWcaNYYb-64"/></g></g><g data-cell-id="3sGnDGBDs-SrtWcaNYYb-65"/><g data-cell-id="3sGnDGBDs-SrtWcaNYYb-66"/><g data-cell-id="3sGnDGBDs-SrtWcaNYYb-67"/><g data-cell-id="3sGnDGBDs-SrtWcaNYYb-68"><g data-cell-id="3sGnDGBDs-SrtWcaNYYb-69"><g data-cell-id="3sGnDGBDs-SrtWcaNYYb-70"/><g data-cell-id="3sGnDGBDs-SrtWcaNYYb-71"/></g></g><g data-cell-id="3sGnDGBDs-SrtWcaNYYb-72"><g data-cell-id="3sGnDGBDs-SrtWcaNYYb-73"><g data-cell-id="3sGnDGBDs-SrtWcaNYYb-74"/><g data-cell-id="3sGnDGBDs-SrtWcaNYYb-75"/></g></g><g data-cell-id="3sGnDGBDs-SrtWcaNYYb-76"/><g data-cell-id="3sGnDGBDs-SrtWcaNYYb-77"/><g data-cell-id="3sGnDGBDs-SrtWcaNYYb-78"/><g data-cell-id="3sGnDGBDs-SrtWcaNYYb-81"/><g data-cell-id="3sGnDGBDs-SrtWcaNYYb-82"/><g data-cell-id="3sGnDGBDs-SrtWcaNYYb-83"/><g data-cell-id="3sGnDGBDs-SrtWcaNYYb-84"><g data-cell-id="3sGnDGBDs-SrtWcaNYYb-85"><g data-cell-id="3sGnDGBDs-SrtWcaNYYb-86"/><g data-cell-id="3sGnDGBDs-SrtWcaNYYb-87"/></g></g><g data-cell-id="3sGnDGBDs-SrtWcaNYYb-88"><g data-cell-id="3sGnDGBDs-SrtWcaNYYb-89"><g data-cell-id="3sGnDGBDs-SrtWcaNYYb-90"/><g data-cell-id="3sGnDGBDs-SrtWcaNYYb-91"/></g></g><g data-cell-id="3sGnDGBDs-SrtWcaNYYb-92"><g data-cell-id="3sGnDGBDs-SrtWcaNYYb-93"><g data-cell-id="3sGnDGBDs-SrtWcaNYYb-94"/><g data-cell-id="3sGnDGBDs-SrtWcaNYYb-95"/></g></g><g data-cell-id="3sGnDGBDs-SrtWcaNYYb-97"/><g data-cell-id="3sGnDGBDs-SrtWcaNYYb-98"/><g data-cell-id="3sGnDGBDs-SrtWcaNYYb-96"/><g data-cell-id="3sGnDGBDs-SrtWcaNYYb-116"/><g data-cell-id="3sGnDGBDs-SrtWcaNYYb-117"/><g data-cell-id="3sGnDGBDs-SrtWcaNYYb-118"/><g data-cell-id="3sGnDGBDs-SrtWcaNYYb-119"/><g data-cell-id="3sGnDGBDs-SrtWcaNYYb-120"><g data-cell-id="3sGnDGBDs-SrtWcaNYYb-121"><g data-cell-id="3sGnDGBDs-SrtWcaNYYb-122"/><g data-cell-id="3sGnDGBDs-SrtWcaNYYb-123"/></g></g><g data-cell-id="3sGnDGBDs-SrtWcaNYYb-124"><g data-cell-id="3sGnDGBDs-SrtWcaNYYb-125"><g data-cell-id="3sGnDGBDs-SrtWcaNYYb-126"/><g data-cell-id="3sGnDGBDs-SrtWcaNYYb-127"/></g></g><g data-cell-id="3sGnDGBDs-SrtWcaNYYb-128"/><g data-cell-id="3sGnDGBDs-SrtWcaNYYb-129"/><g data-cell-id="3sGnDGBDs-SrtWcaNYYb-130"/><g data-cell-id="3sGnDGBDs-SrtWcaNYYb-131"/><g data-cell-id="3sGnDGBDs-SrtWcaNYYb-132"/><g data-cell-id="3sGnDGBDs-SrtWcaNYYb-133"/><g data-cell-id="3sGnDGBDs-SrtWcaNYYb-134"/><g data-cell-id="3sGnDGBDs-SrtWcaNYYb-135"><g data-cell-id="3sGnDGBDs-SrtWcaNYYb-136"><g data-cell-id="3sGnDGBDs-SrtWcaNYYb-137"/><g data-cell-id="3sGnDGBDs-SrtWcaNYYb-138"/></g></g><g data-cell-id="3sGnDGBDs-SrtWcaNYYb-139"><g data-cell-id="3sGnDGBDs-SrtWcaNYYb-140"><g data-cell-id="3sGnDGBDs-SrtWcaNYYb-141"/><g data-cell-id="3sGnDGBDs-SrtWcaNYYb-142"/></g></g><g data-cell-id="3sGnDGBDs-SrtWcaNYYb-143"/><g data-cell-id="3sGnDGBDs-SrtWcaNYYb-144"/><g data-cell-id="3sGnDGBDs-SrtWcaNYYb-145"/><g data-cell-id="3sGnDGBDs-SrtWcaNYYb-146"/><g data-cell-id="3sGnDGBDs-SrtWcaNYYb-147"/><g data-cell-id="3sGnDGBDs-SrtWcaNYYb-148"/><g data-cell-id="3sGnDGBDs-SrtWcaNYYb-149"/><g data-cell-id="3sGnDGBDs-SrtWcaNYYb-150"><g data-cell-id="3sGnDGBDs-SrtWcaNYYb-151"><g data-cell-id="3sGnDGBDs-SrtWcaNYYb-152"/><g data-cell-id="3sGnDGBDs-SrtWcaNYYb-153"/></g></g><g data-cell-id="3sGnDGBDs-SrtWcaNYYb-154"><g data-cell-id="3sGnDGBDs-SrtWcaNYYb-155"><g data-cell-id="3sGnDGBDs-SrtWcaNYYb-156"/><g data-cell-id="3sGnDGBDs-SrtWcaNYYb-157"/></g></g><g data-cell-id="3sGnDGBDs-SrtWcaNYYb-158"/><g data-cell-id="3sGnDGBDs-SrtWcaNYYb-159"/><g data-cell-id="3sGnDGBDs-SrtWcaNYYb-160"/><g data-cell-id="3sGnDGBDs-SrtWcaNYYb-182"><g data-cell-id="3sGnDGBDs-SrtWcaNYYb-180"/><g data-cell-id="3sGnDGBDs-SrtWcaNYYb-181"/></g><g data-cell-id="3sGnDGBDs-SrtWcaNYYb-165"><g data-cell-id="3sGnDGBDs-SrtWcaNYYb-166"><g data-cell-id="3sGnDGBDs-SrtWcaNYYb-167"/><g data-cell-id="3sGnDGBDs-SrtWcaNYYb-168"/></g></g><g data-cell-id="3sGnDGBDs-SrtWcaNYYb-161"><g data-cell-id="3sGnDGBDs-SrtWcaNYYb-162"><g data-cell-id="3sGnDGBDs-SrtWcaNYYb-163"/><g data-cell-id="3sGnDGBDs-SrtWcaNYYb-164"/></g></g><g data-cell-id="3sGnDGBDs-SrtWcaNYYb-183"/><g data-cell-id="3sGnDGBDs-SrtWcaNYYb-184"/><g data-cell-id="3sGnDGBDs-SrtWcaNYYb-185"/><g data-cell-id="3sGnDGBDs-SrtWcaNYYb-189"><g data-cell-id="3sGnDGBDs-SrtWcaNYYb-190"><g data-cell-id="3sGnDGBDs-SrtWcaNYYb-191"/><g data-cell-id="3sGnDGBDs-SrtWcaNYYb-192"/></g></g><g data-cell-id="3sGnDGBDs-SrtWcaNYYb-193"><g data-cell-id="3sGnDGBDs-SrtWcaNYYb-194"><g data-cell-id="3sGnDGBDs-SrtWcaNYYb-195"/><g data-cell-id="3sGnDGBDs-SrtWcaNYYb-196"/></g></g><g data-cell-id="3sGnDGBDs-SrtWcaNYYb-198"/><g data-cell-id="3sGnDGBDs-SrtWcaNYYb-199"/><g data-cell-id="3sGnDGBDs-SrtWcaNYYb-200"/><g data-cell-id="3sGnDGBDs-SrtWcaNYYb-201"/><g data-cell-id="3sGnDGBDs-SrtWcaNYYb-202"/><g data-cell-id="3sGnDGBDs-SrtWcaNYYb-203"><g data-cell-id="3sGnDGBDs-SrtWcaNYYb-204"><g data-cell-id="3sGnDGBDs-SrtWcaNYYb-205"/><g data-cell-id="3sGnDGBDs-SrtWcaNYYb-206"/></g></g><g data-cell-id="3sGnDGBDs-SrtWcaNYYb-207"><g data-cell-id="3sGnDGBDs-SrtWcaNYYb-208"><g data-cell-id="3sGnDGBDs-SrtWcaNYYb-209"/><g data-cell-id="3sGnDGBDs-SrtWcaNYYb-210"/></g></g><g data-cell-id="3sGnDGBDs-SrtWcaNYYb-214"/><g data-cell-id="3sGnDGBDs-SrtWcaNYYb-215"/><g data-cell-id="3sGnDGBDs-SrtWcaNYYb-216"/><g data-cell-id="3sGnDGBDs-SrtWcaNYYb-217"/><g data-cell-id="3sGnDGBDs-SrtWcaNYYb-218"><g data-cell-id="3sGnDGBDs-SrtWcaNYYb-219"><g data-cell-id="3sGnDGBDs-SrtWcaNYYb-220"/><g data-cell-id="3sGnDGBDs-SrtWcaNYYb-221"/></g></g><g data-cell-id="3sGnDGBDs-SrtWcaNYYb-222"><g data-cell-id="3sGnDGBDs-SrtWcaNYYb-223"><g data-cell-id="3sGnDGBDs-SrtWcaNYYb-224"/><g data-cell-id="3sGnDGBDs-SrtWcaNYYb-225"/></g></g><g data-cell-id="3sGnDGBDs-SrtWcaNYYb-211"><g data-cell-id="3sGnDGBDs-SrtWcaNYYb-212"/><g data-cell-id="3sGnDGBDs-SrtWcaNYYb-213"/></g><g data-cell-id="3sGnDGBDs-SrtWcaNYYb-238"><g/><g data-cell-id="3sGnDGBDs-SrtWcaNYYb-239"><g><g><svg height="163.64" width="72" id="svg-image-x1p2Rho_j8JRoD8VuR_r" data-name="Capa 1" viewBox="0.24853229522705078 0.15769004821777344 43.84688186645508 99.7135009765625" xmlns="http://www.w3.org/2000/svg" x="227" y="137.92" style="font-family: initial;">&#xa;  <defs>&#xa;    <style>#svg-image-x1p2Rho_j8JRoD8VuR_r .cls-1 { fill: rgb(67, 41, 24); stroke: rgb(67, 41, 24); }&#xa;#svg-image-x1p2Rho_j8JRoD8VuR_r .cls-1, #svg-image-x1p2Rho_j8JRoD8VuR_r .cls-2, #svg-image-x1p2Rho_j8JRoD8VuR_r .cls-3, #svg-image-x1p2Rho_j8JRoD8VuR_r .cls-4, #svg-image-x1p2Rho_j8JRoD8VuR_r .cls-5, #svg-image-x1p2Rho_j8JRoD8VuR_r .cls-6, #svg-image-x1p2Rho_j8JRoD8VuR_r .cls-7, #svg-image-x1p2Rho_j8JRoD8VuR_r .cls-8, #svg-image-x1p2Rho_j8JRoD8VuR_r .cls-9 { stroke-miterlimit: 10; }&#xa;#svg-image-x1p2Rho_j8JRoD8VuR_r .cls-1, #svg-image-x1p2Rho_j8JRoD8VuR_r .cls-3, #svg-image-x1p2Rho_j8JRoD8VuR_r .cls-9 { stroke-width: 0.25px; }&#xa;#svg-image-x1p2Rho_j8JRoD8VuR_r .cls-2 { fill: rgb(255, 255, 255); }&#xa;#svg-image-x1p2Rho_j8JRoD8VuR_r .cls-2, #svg-image-x1p2Rho_j8JRoD8VuR_r .cls-4, #svg-image-x1p2Rho_j8JRoD8VuR_r .cls-5, #svg-image-x1p2Rho_j8JRoD8VuR_r .cls-6 { stroke-width: 0.5px; }&#xa;#svg-image-x1p2Rho_j8JRoD8VuR_r .cls-2, #svg-image-x1p2Rho_j8JRoD8VuR_r .cls-4, #svg-image-x1p2Rho_j8JRoD8VuR_r .cls-5, #svg-image-x1p2Rho_j8JRoD8VuR_r .cls-6, #svg-image-x1p2Rho_j8JRoD8VuR_r .cls-7, #svg-image-x1p2Rho_j8JRoD8VuR_r .cls-8 { stroke: rgb(29, 29, 27); }&#xa;#svg-image-x1p2Rho_j8JRoD8VuR_r .cls-3 { stroke: rgb(112, 111, 111); }&#xa;#svg-image-x1p2Rho_j8JRoD8VuR_r .cls-3, #svg-image-x1p2Rho_j8JRoD8VuR_r .cls-6 { fill: none; }&#xa;#svg-image-x1p2Rho_j8JRoD8VuR_r .cls-4, #svg-image-x1p2Rho_j8JRoD8VuR_r .cls-7 { fill: rgb(210, 27, 50); }&#xa;#svg-image-x1p2Rho_j8JRoD8VuR_r .cls-5 { fill: rgb(244, 207, 160); }&#xa;#svg-image-x1p2Rho_j8JRoD8VuR_r .cls-7 { stroke-width: 0.75px; }&#xa;#svg-image-x1p2Rho_j8JRoD8VuR_r .cls-8, #svg-image-x1p2Rho_j8JRoD8VuR_r .cls-9 { fill: rgb(29, 29, 27); }&#xa;#svg-image-x1p2Rho_j8JRoD8VuR_r .cls-9 { stroke: rgb(60, 60, 59); }&#xa;</style>&#xa;  </defs>&#xa;  <path class="cls-5" d="M17.51,21.04v2.32c3.94,2.75,6.04,1.3,8.22,0v-2c-2.42,1.29-5.37,1.14-8.22-.31"/>&#xa;  <ellipse class="cls-9" cx="32.69" cy="95.98" rx="1.95" ry="6.96" transform="translate(-68.64 99.34) rotate(-73.09)"/>&#xa;  <ellipse class="cls-9" cx="12.44" cy="95.98" rx="6.96" ry="1.95" transform="translate(-21.61 5.39) rotate(-13.21)"/>&#xa;  <path class="cls-7" d="M7.12,72.37c-.48,11.24-1.74,17.42-1.79,21.02,9.9,2.21,33.03,2.27,34.34.37-.34-5.6-2.51-14.15-2.6-21.39H7.12Z"/>&#xa;  <path class="cls-5" d="M32.69,11.35c-.15,8.12-5.61,11.29-11,11.1-6.34-.22-10.8-2.88-11-11.1C10.53,5.22,15.61.25,21.69.25s11.12,4.97,11,11.1Z"/>&#xa;  <path class="cls-2" d="M40.14,74.37H4.3l4.61-37.3c-3.54,9.16-4.97-1.82-4.99-2.94-.02-1.57-.06-7.22,8.06-8.56h20.42c2.49,0,5.54,1.68,5.92,3.81.28,1.52-4.17,6.68-4.17,8.17l5.98,36.83Z"/>&#xa;  <path class="cls-6" d="M16.72,15.31c2.85,2.86,7.68,2.26,10.81,0"/>&#xa;  <path class="cls-8" d="M18.66,10.57c-.61,0-1.11-.5-1.11-1.12s.5-1.12,1.11-1.12,1.11.5,1.11,1.12-.5,1.12-1.11,1.12Z"/>&#xa;  <path class="cls-8" d="M24.62,10.57c-.61,0-1.11-.5-1.11-1.12s.5-1.12,1.11-1.12,1.11.5,1.11,1.12-.5,1.12-1.11,1.12Z"/>&#xa;  <path class="cls-4" d="M14.75,25.7c-3.67,8.8,19.06,9.19,14.08-.17l-3.11-.08v-2.42c-1.21.41-2.42.68-3.62.76-.08,0,.16.62.09.63-.18,0-.75-.01-.94-.01-.06,0-.05-.59-.11-.59-1.22-.02-2.43-.25-3.65-.73l.07,2.47-2.82.14Z"/>&#xa;  <line class="cls-3" x1="15.27" y1="37.07" x2="13.3" y2="72.37"/>&#xa;  <line class="cls-3" x1="27.66" y1="36.73" x2="33.25" y2="72.43"/>&#xa;  <path class="cls-1" d="M10.59,10.86c3.98-1.35,8.24-7.62,8.24-7.62l12.37,6.62c.73.39,1.55-.33,1.28-1.11C27.5-5.69,10.29.19,10.59,10.86Z"/>&#xa;  <path class="cls-2" d="M4.48,30.67c-11.34,24.04,2.74,19.04,11.53,21.04-.97-.08,1.86-7.5,1.54-7.53-6.87-.68-11.9-.86-6.87-10.05"/>&#xa;  <path class="cls-2" d="M38.33,29.37c15.22,24.87-3.65,21.72-11.28,22.34.97-.08-1.34-7.5-1.02-7.53,6.87-.68,11.9,3.79,5.84-10.64"/>&#xa;  <path class="cls-5" d="M20.93,47.09c-.04,2.24-1.55,3.12-3.04,3.06-1.75-.06-2.98-.79-3.04-3.06-.04-1.69,1.36-3.06,3.04-3.06s3.07,1.37,3.04,3.06Z"/>&#xa;  <path class="cls-5" d="M27.66,47.09c-.04,2.24-1.55,3.12-3.04,3.06-1.75-.06-2.98-.79-3.04-3.06-.04-1.69,1.36-3.06,3.04-3.06s3.07,1.37,3.04,3.06Z"/>&#xa;</svg></g></g></g><g data-cell-id="3sGnDGBDs-SrtWcaNYYb-240"><g><g><svg height="271.44" width="30.95" id="svg-image-f6Z3Ezivdz1eSemoFlYI" data-name="Capa 2" viewBox="0.4925566613674164 -0.009999990463256836 12.560580253601074 113.69999694824219" xmlns="http://www.w3.org/2000/svg" x="247.52" y="16" style="font-family: initial;">&#xa;  <defs>&#xa;    <style>#svg-image-f6Z3Ezivdz1eSemoFlYI .cls-1 { fill: rgb(255, 255, 255); stroke: rgb(29, 29, 27); }&#xa;#svg-image-f6Z3Ezivdz1eSemoFlYI .cls-1, #svg-image-f6Z3Ezivdz1eSemoFlYI .cls-2 { stroke-miterlimit: 10; }&#xa;#svg-image-f6Z3Ezivdz1eSemoFlYI .cls-3, #svg-image-f6Z3Ezivdz1eSemoFlYI .cls-2 { fill: rgb(14, 18, 32); }&#xa;#svg-image-f6Z3Ezivdz1eSemoFlYI .cls-2 { stroke: rgb(60, 60, 59); }&#xa;#svg-image-f6Z3Ezivdz1eSemoFlYI .cls-4 { fill: rgb(230, 51, 42); }&#xa;</style>&#xa;  </defs>&#xa;  <g id="Capa_1-2" data-name="Capa 1">&#xa;    <g>&#xa;      <g>&#xa;        <path class="cls-3" d="M8.67,18.6h-3.79c-.07,0-.12-.11-.12-.25V7.84c0-.87.34-1.58.76-1.58h2.52c.42,0,.76.71.76,1.58v10.52c0,.14-.05.25-.12.25ZM5,18.11h3.56V7.84c0-.6-.23-1.08-.52-1.08h-2.52c-.29,0-.52.49-.52,1.08v10.27Z"/>&#xa;        <path class="cls-4" d="M7.77,1.54c-.17-.4-.36-.78-.52-1.05-.26-.44-.38-.5-.47-.5s-.21.06-.47.5c-.16.27-.35.64-.52,1.05-.16.36-.66,1.59-.66,2.3,0,1.1.74,2,1.65,2s1.65-.9,1.65-2c0-.71-.51-1.94-.66-2.3ZM6.78,5.12c-.49,0-.88-.48-.88-1.07,0-.38.25-1,.33-1.18.35-.82.5-.82.55-.82s.21,0,.55.82c.08.18.33.81.33,1.18,0,.59-.4,1.07-.88,1.07Z"/>&#xa;        <path class="cls-2" d="M11.85,21.32H1.7c-.08,0-.15-.06-.19-.15l-1-2.71c-.03-.08-.02-.16.02-.23.04-.07.1-.11.17-.11h12.15c.07,0,.13.04.17.11.04.07.04.16.02.23l-1,2.71c-.03.09-.11.15-.19.15ZM1.84,20.82h9.88l.82-2.22H1.02l.82,2.22Z"/>&#xa;        <path class="cls-3" d="M7.57,10.04c-.15,0-.33-.09-.49-.37-.11-.18-.18-.38-.25-.58-.03-.08-.06-.16-.09-.24-.12-.29-.24-.46-.37-.51-.19-.06-.39.12-.56.3l-.04.04c-.19.21-.4.44-.66.44-.09,0-.19-.03-.28-.09-.04-.03-.07-.1-.07-.17v-1.4c0-.66.34-1.2.76-1.2h2.52c.42,0,.76.54.76,1.2v.86c0,.06-.02.12-.05.16-.03.04-.07.04-.11.02-.01,0-.03-.02-.04-.02-.07-.04-.13-.08-.18-.07-.11.02-.18.28-.2.36-.02.08-.03.17-.05.26-.02.13-.05.26-.08.39-.05.2-.16.47-.34.58-.05.03-.11.05-.18.05ZM6.29,7.96s.09,0,.13.02c.2.07.37.3.52.68.03.08.06.17.09.26.07.19.13.37.22.51.1.17.27.31.41.22.11-.07.18-.27.21-.38.03-.11.05-.22.07-.34.02-.09.03-.19.05-.28.08-.36.22-.58.39-.61.06-.01.12,0,.17.02v-.59c0-.45-.23-.82-.52-.82h-2.52c-.29,0-.52.37-.52.82v1.27s.08.02.12.02c.18,0,.36-.2.53-.38l.04-.04c.18-.19.39-.38.61-.38Z"/>&#xa;      </g>&#xa;      <rect class="cls-1" x="5.32" y="21.06" width="2.92" height="92.63"/>&#xa;    </g>&#xa;  </g>&#xa;</svg></g></g></g></g><g data-cell-id="3sGnDGBDs-SrtWcaNYYb-241"><g/><g data-cell-id="3sGnDGBDs-SrtWcaNYYb-242"><g><g><svg height="163.64" width="72" id="svg-image-Nend890H6D64iwFSADSI" data-name="Capa 1" viewBox="0.24853229522705078 0.15769004821777344 43.84688186645508 99.7135009765625" xmlns="http://www.w3.org/2000/svg" x="34" y="137.92" style="font-family: initial;">&#xa;  <defs>&#xa;    <style>#svg-image-Nend890H6D64iwFSADSI .cls-1 { fill: rgb(67, 41, 24); stroke: rgb(67, 41, 24); }&#xa;#svg-image-Nend890H6D64iwFSADSI .cls-1, #svg-image-Nend890H6D64iwFSADSI .cls-2, #svg-image-Nend890H6D64iwFSADSI .cls-3, #svg-image-Nend890H6D64iwFSADSI .cls-4, #svg-image-Nend890H6D64iwFSADSI .cls-5, #svg-image-Nend890H6D64iwFSADSI .cls-6, #svg-image-Nend890H6D64iwFSADSI .cls-7, #svg-image-Nend890H6D64iwFSADSI .cls-8, #svg-image-Nend890H6D64iwFSADSI .cls-9 { stroke-miterlimit: 10; }&#xa;#svg-image-Nend890H6D64iwFSADSI .cls-1, #svg-image-Nend890H6D64iwFSADSI .cls-3, #svg-image-Nend890H6D64iwFSADSI .cls-9 { stroke-width: 0.25px; }&#xa;#svg-image-Nend890H6D64iwFSADSI .cls-2 { fill: rgb(255, 255, 255); }&#xa;#svg-image-Nend890H6D64iwFSADSI .cls-2, #svg-image-Nend890H6D64iwFSADSI .cls-4, #svg-image-Nend890H6D64iwFSADSI .cls-5, #svg-image-Nend890H6D64iwFSADSI .cls-6 { stroke-width: 0.5px; }&#xa;#svg-image-Nend890H6D64iwFSADSI .cls-2, #svg-image-Nend890H6D64iwFSADSI .cls-4, #svg-image-Nend890H6D64iwFSADSI .cls-5, #svg-image-Nend890H6D64iwFSADSI .cls-6, #svg-image-Nend890H6D64iwFSADSI .cls-7, #svg-image-Nend890H6D64iwFSADSI .cls-8 { stroke: rgb(29, 29, 27); }&#xa;#svg-image-Nend890H6D64iwFSADSI .cls-3 { stroke: rgb(112, 111, 111); }&#xa;#svg-image-Nend890H6D64iwFSADSI .cls-3, #svg-image-Nend890H6D64iwFSADSI .cls-6 { fill: none; }&#xa;#svg-image-Nend890H6D64iwFSADSI .cls-4, #svg-image-Nend890H6D64iwFSADSI .cls-7 { fill: rgb(210, 27, 50); }&#xa;#svg-image-Nend890H6D64iwFSADSI .cls-5 { fill: rgb(244, 207, 160); }&#xa;#svg-image-Nend890H6D64iwFSADSI .cls-7 { stroke-width: 0.75px; }&#xa;#svg-image-Nend890H6D64iwFSADSI .cls-8, #svg-image-Nend890H6D64iwFSADSI .cls-9 { fill: rgb(29, 29, 27); }&#xa;#svg-image-Nend890H6D64iwFSADSI .cls-9 { stroke: rgb(60, 60, 59); }&#xa;</style>&#xa;  </defs>&#xa;  <path class="cls-5" d="M17.51,21.04v2.32c3.94,2.75,6.04,1.3,8.22,0v-2c-2.42,1.29-5.37,1.14-8.22-.31"/>&#xa;  <ellipse class="cls-9" cx="32.69" cy="95.98" rx="1.95" ry="6.96" transform="translate(-68.64 99.34) rotate(-73.09)"/>&#xa;  <ellipse class="cls-9" cx="12.44" cy="95.98" rx="6.96" ry="1.95" transform="translate(-21.61 5.39) rotate(-13.21)"/>&#xa;  <path class="cls-7" d="M7.12,72.37c-.48,11.24-1.74,17.42-1.79,21.02,9.9,2.21,33.03,2.27,34.34.37-.34-5.6-2.51-14.15-2.6-21.39H7.12Z"/>&#xa;  <path class="cls-5" d="M32.69,11.35c-.15,8.12-5.61,11.29-11,11.1-6.34-.22-10.8-2.88-11-11.1C10.53,5.22,15.61.25,21.69.25s11.12,4.97,11,11.1Z"/>&#xa;  <path class="cls-2" d="M40.14,74.37H4.3l4.61-37.3c-3.54,9.16-4.97-1.82-4.99-2.94-.02-1.57-.06-7.22,8.06-8.56h20.42c2.49,0,5.54,1.68,5.92,3.81.28,1.52-4.17,6.68-4.17,8.17l5.98,36.83Z"/>&#xa;  <path class="cls-6" d="M16.72,15.31c2.85,2.86,7.68,2.26,10.81,0"/>&#xa;  <path class="cls-8" d="M18.66,10.57c-.61,0-1.11-.5-1.11-1.12s.5-1.12,1.11-1.12,1.11.5,1.11,1.12-.5,1.12-1.11,1.12Z"/>&#xa;  <path class="cls-8" d="M24.62,10.57c-.61,0-1.11-.5-1.11-1.12s.5-1.12,1.11-1.12,1.11.5,1.11,1.12-.5,1.12-1.11,1.12Z"/>&#xa;  <path class="cls-4" d="M14.75,25.7c-3.67,8.8,19.06,9.19,14.08-.17l-3.11-.08v-2.42c-1.21.41-2.42.68-3.62.76-.08,0,.16.62.09.63-.18,0-.75-.01-.94-.01-.06,0-.05-.59-.11-.59-1.22-.02-2.43-.25-3.65-.73l.07,2.47-2.82.14Z"/>&#xa;  <line class="cls-3" x1="15.27" y1="37.07" x2="13.3" y2="72.37"/>&#xa;  <line class="cls-3" x1="27.66" y1="36.73" x2="33.25" y2="72.43"/>&#xa;  <path class="cls-1" d="M10.59,10.86c3.98-1.35,8.24-7.62,8.24-7.62l12.37,6.62c.73.39,1.55-.33,1.28-1.11C27.5-5.69,10.29.19,10.59,10.86Z"/>&#xa;  <path class="cls-2" d="M4.48,30.67c-11.34,24.04,2.74,19.04,11.53,21.04-.97-.08,1.86-7.5,1.54-7.53-6.87-.68-11.9-.86-6.87-10.05"/>&#xa;  <path class="cls-2" d="M38.33,29.37c15.22,24.87-3.65,21.72-11.28,22.34.97-.08-1.34-7.5-1.02-7.53,6.87-.68,11.9,3.79,5.84-10.64"/>&#xa;  <path class="cls-5" d="M20.93,47.09c-.04,2.24-1.55,3.12-3.04,3.06-1.75-.06-2.98-.79-3.04-3.06-.04-1.69,1.36-3.06,3.04-3.06s3.07,1.37,3.04,3.06Z"/>&#xa;  <path class="cls-5" d="M27.66,47.09c-.04,2.24-1.55,3.12-3.04,3.06-1.75-.06-2.98-.79-3.04-3.06-.04-1.69,1.36-3.06,3.04-3.06s3.07,1.37,3.04,3.06Z"/>&#xa;</svg></g></g></g><g data-cell-id="3sGnDGBDs-SrtWcaNYYb-243"><g><g><svg height="271.44" width="30.95" id="svg-image-Igcvwt2H-pmaUFbJIS06" data-name="Capa 2" viewBox="0.4925566613674164 -0.009999990463256836 12.560580253601074 113.69999694824219" xmlns="http://www.w3.org/2000/svg" x="54.52" y="16" style="font-family: initial;">&#xa;  <defs>&#xa;    <style>#svg-image-Igcvwt2H-pmaUFbJIS06 .cls-1 { fill: rgb(255, 255, 255); stroke: rgb(29, 29, 27); }&#xa;#svg-image-Igcvwt2H-pmaUFbJIS06 .cls-1, #svg-image-Igcvwt2H-pmaUFbJIS06 .cls-2 { stroke-miterlimit: 10; }&#xa;#svg-image-Igcvwt2H-pmaUFbJIS06 .cls-3, #svg-image-Igcvwt2H-pmaUFbJIS06 .cls-2 { fill: rgb(14, 18, 32); }&#xa;#svg-image-Igcvwt2H-pmaUFbJIS06 .cls-2 { stroke: rgb(60, 60, 59); }&#xa;#svg-image-Igcvwt2H-pmaUFbJIS06 .cls-4 { fill: rgb(230, 51, 42); }&#xa;</style>&#xa;  </defs>&#xa;  <g id="Capa_1-2" data-name="Capa 1">&#xa;    <g>&#xa;      <g>&#xa;        <path class="cls-3" d="M8.67,18.6h-3.79c-.07,0-.12-.11-.12-.25V7.84c0-.87.34-1.58.76-1.58h2.52c.42,0,.76.71.76,1.58v10.52c0,.14-.05.25-.12.25ZM5,18.11h3.56V7.84c0-.6-.23-1.08-.52-1.08h-2.52c-.29,0-.52.49-.52,1.08v10.27Z"/>&#xa;        <path class="cls-4" d="M7.77,1.54c-.17-.4-.36-.78-.52-1.05-.26-.44-.38-.5-.47-.5s-.21.06-.47.5c-.16.27-.35.64-.52,1.05-.16.36-.66,1.59-.66,2.3,0,1.1.74,2,1.65,2s1.65-.9,1.65-2c0-.71-.51-1.94-.66-2.3ZM6.78,5.12c-.49,0-.88-.48-.88-1.07,0-.38.25-1,.33-1.18.35-.82.5-.82.55-.82s.21,0,.55.82c.08.18.33.81.33,1.18,0,.59-.4,1.07-.88,1.07Z"/>&#xa;        <path class="cls-2" d="M11.85,21.32H1.7c-.08,0-.15-.06-.19-.15l-1-2.71c-.03-.08-.02-.16.02-.23.04-.07.1-.11.17-.11h12.15c.07,0,.13.04.17.11.04.07.04.16.02.23l-1,2.71c-.03.09-.11.15-.19.15ZM1.84,20.82h9.88l.82-2.22H1.02l.82,2.22Z"/>&#xa;        <path class="cls-3" d="M7.57,10.04c-.15,0-.33-.09-.49-.37-.11-.18-.18-.38-.25-.58-.03-.08-.06-.16-.09-.24-.12-.29-.24-.46-.37-.51-.19-.06-.39.12-.56.3l-.04.04c-.19.21-.4.44-.66.44-.09,0-.19-.03-.28-.09-.04-.03-.07-.1-.07-.17v-1.4c0-.66.34-1.2.76-1.2h2.52c.42,0,.76.54.76,1.2v.86c0,.06-.02.12-.05.16-.03.04-.07.04-.11.02-.01,0-.03-.02-.04-.02-.07-.04-.13-.08-.18-.07-.11.02-.18.28-.2.36-.02.08-.03.17-.05.26-.02.13-.05.26-.08.39-.05.2-.16.47-.34.58-.05.03-.11.05-.18.05ZM6.29,7.96s.09,0,.13.02c.2.07.37.3.52.68.03.08.06.17.09.26.07.19.13.37.22.51.1.17.27.31.41.22.11-.07.18-.27.21-.38.03-.11.05-.22.07-.34.02-.09.03-.19.05-.28.08-.36.22-.58.39-.61.06-.01.12,0,.17.02v-.59c0-.45-.23-.82-.52-.82h-2.52c-.29,0-.52.37-.52.82v1.27s.08.02.12.02c.18,0,.36-.2.53-.38l.04-.04c.18-.19.39-.38.61-.38Z"/>&#xa;      </g>&#xa;      <rect class="cls-1" x="5.32" y="21.06" width="2.92" height="92.63"/>&#xa;    </g>&#xa;  </g>&#xa;</svg></g></g></g></g><g data-cell-id="3sGnDGBDs-SrtWcaNYYb-244"><g/><g data-cell-id="3sGnDGBDs-SrtWcaNYYb-248"><g/><g data-cell-id="3sGnDGBDs-SrtWcaNYYb-245"><g><g><svg height="163.64" width="72" id="svg-image-Kc7EG51A5k8VhYzM0nQC" data-name="Capa 1" viewBox="0.24853229522705078 0.15769004821777344 43.84688186645508 99.7135009765625" xmlns="http://www.w3.org/2000/svg" x="128.98" y="137.92" style="font-family: initial;">&#xa;  <defs>&#xa;    <style>#svg-image-Kc7EG51A5k8VhYzM0nQC .cls-1 { fill: rgb(67, 41, 24); stroke: rgb(67, 41, 24); }&#xa;#svg-image-Kc7EG51A5k8VhYzM0nQC .cls-1, #svg-image-Kc7EG51A5k8VhYzM0nQC .cls-2, #svg-image-Kc7EG51A5k8VhYzM0nQC .cls-3, #svg-image-Kc7EG51A5k8VhYzM0nQC .cls-4, #svg-image-Kc7EG51A5k8VhYzM0nQC .cls-5, #svg-image-Kc7EG51A5k8VhYzM0nQC .cls-6, #svg-image-Kc7EG51A5k8VhYzM0nQC .cls-7, #svg-image-Kc7EG51A5k8VhYzM0nQC .cls-8, #svg-image-Kc7EG51A5k8VhYzM0nQC .cls-9 { stroke-miterlimit: 10; }&#xa;#svg-image-Kc7EG51A5k8VhYzM0nQC .cls-1, #svg-image-Kc7EG51A5k8VhYzM0nQC .cls-3, #svg-image-Kc7EG51A5k8VhYzM0nQC .cls-9 { stroke-width: 0.25px; }&#xa;#svg-image-Kc7EG51A5k8VhYzM0nQC .cls-2 { fill: rgb(255, 255, 255); }&#xa;#svg-image-Kc7EG51A5k8VhYzM0nQC .cls-2, #svg-image-Kc7EG51A5k8VhYzM0nQC .cls-4, #svg-image-Kc7EG51A5k8VhYzM0nQC .cls-5, #svg-image-Kc7EG51A5k8VhYzM0nQC .cls-6 { stroke-width: 0.5px; }&#xa;#svg-image-Kc7EG51A5k8VhYzM0nQC .cls-2, #svg-image-Kc7EG51A5k8VhYzM0nQC .cls-4, #svg-image-Kc7EG51A5k8VhYzM0nQC .cls-5, #svg-image-Kc7EG51A5k8VhYzM0nQC .cls-6, #svg-image-Kc7EG51A5k8VhYzM0nQC .cls-7, #svg-image-Kc7EG51A5k8VhYzM0nQC .cls-8 { stroke: rgb(29, 29, 27); }&#xa;#svg-image-Kc7EG51A5k8VhYzM0nQC .cls-3 { stroke: rgb(112, 111, 111); }&#xa;#svg-image-Kc7EG51A5k8VhYzM0nQC .cls-3, #svg-image-Kc7EG51A5k8VhYzM0nQC .cls-6 { fill: none; }&#xa;#svg-image-Kc7EG51A5k8VhYzM0nQC .cls-4, #svg-image-Kc7EG51A5k8VhYzM0nQC .cls-7 { fill: rgb(210, 27, 50); }&#xa;#svg-image-Kc7EG51A5k8VhYzM0nQC .cls-5 { fill: rgb(244, 207, 160); }&#xa;#svg-image-Kc7EG51A5k8VhYzM0nQC .cls-7 { stroke-width: 0.75px; }&#xa;#svg-image-Kc7EG51A5k8VhYzM0nQC .cls-8, #svg-image-Kc7EG51A5k8VhYzM0nQC .cls-9 { fill: rgb(29, 29, 27); }&#xa;#svg-image-Kc7EG51A5k8VhYzM0nQC .cls-9 { stroke: rgb(60, 60, 59); }&#xa;</style>&#xa;  </defs>&#xa;  <path class="cls-5" d="M17.51,21.04v2.32c3.94,2.75,6.04,1.3,8.22,0v-2c-2.42,1.29-5.37,1.14-8.22-.31"/>&#xa;  <ellipse class="cls-9" cx="32.69" cy="95.98" rx="1.95" ry="6.96" transform="translate(-68.64 99.34) rotate(-73.09)"/>&#xa;  <ellipse class="cls-9" cx="12.44" cy="95.98" rx="6.96" ry="1.95" transform="translate(-21.61 5.39) rotate(-13.21)"/>&#xa;  <path class="cls-7" d="M7.12,72.37c-.48,11.24-1.74,17.42-1.79,21.02,9.9,2.21,33.03,2.27,34.34.37-.34-5.6-2.51-14.15-2.6-21.39H7.12Z"/>&#xa;  <path class="cls-5" d="M32.69,11.35c-.15,8.12-5.61,11.29-11,11.1-6.34-.22-10.8-2.88-11-11.1C10.53,5.22,15.61.25,21.69.25s11.12,4.97,11,11.1Z"/>&#xa;  <path class="cls-2" d="M40.14,74.37H4.3l4.61-37.3c-3.54,9.16-4.97-1.82-4.99-2.94-.02-1.57-.06-7.22,8.06-8.56h20.42c2.49,0,5.54,1.68,5.92,3.81.28,1.52-4.17,6.68-4.17,8.17l5.98,36.83Z"/>&#xa;  <path class="cls-6" d="M16.72,15.31c2.85,2.86,7.68,2.26,10.81,0"/>&#xa;  <path class="cls-8" d="M18.66,10.57c-.61,0-1.11-.5-1.11-1.12s.5-1.12,1.11-1.12,1.11.5,1.11,1.12-.5,1.12-1.11,1.12Z"/>&#xa;  <path class="cls-8" d="M24.62,10.57c-.61,0-1.11-.5-1.11-1.12s.5-1.12,1.11-1.12,1.11.5,1.11,1.12-.5,1.12-1.11,1.12Z"/>&#xa;  <path class="cls-4" d="M14.75,25.7c-3.67,8.8,19.06,9.19,14.08-.17l-3.11-.08v-2.42c-1.21.41-2.42.68-3.62.76-.08,0,.16.62.09.63-.18,0-.75-.01-.94-.01-.06,0-.05-.59-.11-.59-1.22-.02-2.43-.25-3.65-.73l.07,2.47-2.82.14Z"/>&#xa;  <line class="cls-3" x1="15.27" y1="37.07" x2="13.3" y2="72.37"/>&#xa;  <line class="cls-3" x1="27.66" y1="36.73" x2="33.25" y2="72.43"/>&#xa;  <path class="cls-1" d="M10.59,10.86c3.98-1.35,8.24-7.62,8.24-7.62l12.37,6.62c.73.39,1.55-.33,1.28-1.11C27.5-5.69,10.29.19,10.59,10.86Z"/>&#xa;  <path class="cls-2" d="M4.48,30.67c-11.34,24.04,2.74,19.04,11.53,21.04-.97-.08,1.86-7.5,1.54-7.53-6.87-.68-11.9-.86-6.87-10.05"/>&#xa;  <path class="cls-2" d="M38.33,29.37c15.22,24.87-3.65,21.72-11.28,22.34.97-.08-1.34-7.5-1.02-7.53,6.87-.68,11.9,3.79,5.84-10.64"/>&#xa;  <path class="cls-5" d="M20.93,47.09c-.04,2.24-1.55,3.12-3.04,3.06-1.75-.06-2.98-.79-3.04-3.06-.04-1.69,1.36-3.06,3.04-3.06s3.07,1.37,3.04,3.06Z"/>&#xa;  <path class="cls-5" d="M27.66,47.09c-.04,2.24-1.55,3.12-3.04,3.06-1.75-.06-2.98-.79-3.04-3.06-.04-1.69,1.36-3.06,3.04-3.06s3.07,1.37,3.04,3.06Z"/>&#xa;</svg></g></g></g><g data-cell-id="3sGnDGBDs-SrtWcaNYYb-247"><g><g><svg height="270" width="29.74" id="svg-image-ztwWEE87gzep9b5NSzM1" data-name="Capa 2" viewBox="0.4925566613674164 0.5 12.560580253601074 117.5" xmlns="http://www.w3.org/2000/svg" x="150.11" y="0" style="font-family: initial;">&#xa;  <defs>&#xa;    <style>#svg-image-ztwWEE87gzep9b5NSzM1 .cls-1 { fill: rgb(243, 146, 0); }&#xa;#svg-image-ztwWEE87gzep9b5NSzM1 .cls-1, #svg-image-ztwWEE87gzep9b5NSzM1 .cls-2 { stroke: rgb(29, 29, 27); }&#xa;#svg-image-ztwWEE87gzep9b5NSzM1 .cls-1, #svg-image-ztwWEE87gzep9b5NSzM1 .cls-2, #svg-image-ztwWEE87gzep9b5NSzM1 .cls-3 { stroke-miterlimit: 10; }&#xa;#svg-image-ztwWEE87gzep9b5NSzM1 .cls-2 { fill: rgb(255, 255, 255); }&#xa;#svg-image-ztwWEE87gzep9b5NSzM1 .cls-3 { fill: rgb(14, 18, 32); stroke: rgb(60, 60, 59); }&#xa;</style>&#xa;  </defs>&#xa;  <g id="Capa_1-2" data-name="Capa 1">&#xa;    <g>&#xa;      <rect class="cls-2" x="5.32" y="25.37" width="2.92" height="92.63"/>&#xa;      <polygon class="cls-1" points="12.05 5.6 8.22 5.6 8.22 .5 5.34 .5 5.34 3.24 5.34 5.6 1.31 5.6 1.31 8.48 3.39 8.48 5.34 8.48 5.34 21.98 8.22 21.98 8.22 8.48 12.05 8.48 12.05 5.6"/>&#xa;      <path class="cls-3" d="M11.85,25.8H1.7c-.08,0-.15-.06-.19-.15l-1-2.71c-.03-.08-.02-.16.02-.23.04-.07.1-.11.17-.11h12.15c.07,0,.13.04.17.11.04.07.04.16.02.23l-1,2.71c-.03.09-.11.15-.19.15ZM1.84,25.3h9.88l.82-2.22H1.02l.82,2.22Z"/>&#xa;    </g>&#xa;  </g>&#xa;</svg></g></g></g></g></g><g data-cell-id="3sGnDGBDs-SrtWcaNYYb-249"><g><g><svg height="262.56" width="126.62" id="svg-image-HpKVy7A_bJakxdXbkDOt" data-name="Capa 2" viewBox="-0.011553347110748291 -0.0009726136922836304 68.08879089355469 140.93894958496094" xmlns="http://www.w3.org/2000/svg" x="101.67" y="200" style="font-family: initial;">&#xa;  <defs>&#xa;    <style>#svg-image-HpKVy7A_bJakxdXbkDOt .cls-1 { fill: rgb(48, 32, 24); }&#xa;#svg-image-HpKVy7A_bJakxdXbkDOt .cls-2 { fill: rgb(255, 255, 255); }&#xa;#svg-image-HpKVy7A_bJakxdXbkDOt .cls-3 { fill: rgb(2, 74, 62); }&#xa;#svg-image-HpKVy7A_bJakxdXbkDOt .cls-4 { fill: rgb(7, 105, 82); }&#xa;#svg-image-HpKVy7A_bJakxdXbkDOt .cls-5 { fill: rgb(174, 126, 111); }&#xa;#svg-image-HpKVy7A_bJakxdXbkDOt .cls-6 { fill: rgb(3, 74, 62); }&#xa;#svg-image-HpKVy7A_bJakxdXbkDOt .cls-7 { fill: rgb(149, 180, 141); }&#xa;#svg-image-HpKVy7A_bJakxdXbkDOt .cls-8 { fill: rgb(209, 208, 208); }&#xa;</style>&#xa;  </defs>&#xa;  <g id="Capa_1-2" data-name="Capa 1">&#xa;    <g>&#xa;      <path class="cls-6" d="M42.93,135.52c.19.66-.88,1.3-.93,1.62-.13.74.38.8.47,1.24.34,1.75-2.05,2.4-3.34,2.53-.77.07-3.67.03-4.23-.37-.43-.31-.38-3.09-.3-3.69.13-.94.96-1.46.91-2.41.66-.05,1.76-.35,2.38-.3,1.09.07,3.62,1.14,5.04,1.39Z"/>&#xa;      <path class="cls-6" d="M31.54,134.83c.19.14.72,1.21.76,1.48.11.7.17,2.87-.02,3.51-.21.71-1.87.29-2.51.58-1.3.24-5.26-.69-5.36-2.25-.03-.45.61-1.79.48-1.93-.07-.07-1.47-.33-1.39-1.24,1.61-.03,3.36-.11,5.03-.15.73-.02,2.4-.44,3.01,0Z"/>&#xa;      <path class="cls-8" d="M16.09,116.95l.31.62c.28.06.1-.26.15-.31.31-.27.33.39.56.45.12.03,1.84-.19,2.07-.3.15,0,.31-.01.46,0-.05.62-.01.38.38.47.83.19,1.48.8,2.25.46.13.17-.12,2.22,0,2.68.04.16.3.09.31.1.03.06-.08.33.03.43s.4,0,.43.03c.05.04-.07.54,0,.61.04.04,1.06.3,1.17.31.5.07.85-.16,1.22-.15.73.03,1.62.39,2.34.44,4.1.33,8.72.09,12.81-.29.85-.08,1.7-.28,2.55-.31l-.31-.31c.57.12,1.08-.09,1.55-.16.21-.03.41-.12.62-.15.1-.02.21.02.31,0,.31-.06.37.01.77-.15.08-.03.27.09.32-.1.05-.2.05-.73-.16-.83.07-.36.13-.71.15-1.08s-.02-.72,0-1.08c.08-.06.13-.28.23-.28.18,0,.43.16.77.13,1.42-.12,2.84-.37,4.26-.47.18,2.31.25,4.71.32,7.03.09,3.08.08,6.18.13,9.26-.05.2-.19.22-.36.25-.58.1-3.8.17-3.94.31-.07.07.16.75-.15,1.01-.35.3-1.33.12-1.7.54-.61-.44-2.27,0-3.01,0-1.67.04-3.42.12-5.03.15-2.65.05-5.43.15-8.04-.31-1.42-.25-3.95-1.31-5.04-1.39-.62-.04-1.72.26-2.38.3-2.21.16-4.44.32-6.63-.17,0-1.36-.06-2.73-.02-4.09s.29-2.95.32-4.32c.07-3.05-.22-6.36,0-9.36Z"/>&#xa;      <path class="cls-6" d="M42.53,20c0,.21-.01.42-.07.62-.39,1.3-.97,2.94-1.79,4.05-.1.14-1.22,1.34-1.31,1.36-.67.14-.12-1.13-.23-1.24-1.1-.4-1.25,1.33-1.93,1.38-.9.07-.4-1.16-.72-1.36-.41-.26-1.11.36-1.43.3-.15-.03-.08-.31-.09-.32-.09-.06-1.88-.15-2.16-.15-1.51,0-1.7.2-1.39,1.7-1,.16-1.3-1.36-2.24-1.54-.88-.17.08.86-.07,1.39-1.01.16-.62-.17-.92-.55-.45-.57-1.08-.88-1.59-1.67-.15-.23-1.27-2.14-1.29-2.27-.09-.46.13-.8.08-.99-.09-.32-.73-.07-.61-.56-.03.03-.36.06-.55.3-.27.36-1.94,2.67-1.9,2.85.03.14.35.34.28.41-3.17.9-5.82,2.18-7.89,4.8.27.51-.34.99-.55,1.38-1.64,3.11-1.67,6.04-2.62,9.29-.13.44-.48.85-.54,1.16-.12.63.13,1.53-.04,2.13-.16.56-1.01,1.76-1.17,2.54-.16.79.1,1.71-.11,2.52-.04.15-.78,1.93-.87,1.99-.27.19-.75-.43-1.22-.23-.5.22-.48.93-.63,1.36-.21.58-.08.23-.17.92-.1.79-.86,1.71-.89,2.54-.02.37.2.7.12,1.02-.03.14-.67,1.94-.73,2.03-.13.17-.45.11-.64.32-1.15,1.29-.82,2.67-1.31,3.8-.17.4-.49.55-.66.89-.3.62-.32,1.61-.51,2.29l6.96,4.09c.31-1.97.56-3.97.78-5.95.55-5.13.78-10.32,1.58-15.42.09-.6.26-1.87.41-2.36.45-1.42.21-1.94.32-3.39.13-1.7.58-6.24,1.23-7.46.09-.16-.16-.74.39-.5.53.23.07,1.25.08,1.62,0,.35.18.67.16,1.08-.04,1.43-.47,2.21-.63,3.41-.37,2.81-.48,5.69-.79,8.49-.76,6.92-1.8,13.8-2.32,20.89-.02.23.12.99-.3.85.19.27.18.69.16,1.01-.1,2.8-.97,6.36-.78,9.04-.06.03-.13.09-.15.15-.07.2.09.32-.31.31-.1.67.38,2.54-.67,2.44-.95-.09-1.01-2.04-.72-2.75-.21-.05-.41-.1-.62-.15-.29.68.14,1.11.17,1.63.02.26-.16.56-.13.75.05.32.56.45.73.65.14.16,1,1.27,1.04,1.34.06.11.22,1.11.21,1.28,0,.22-.17.35-.17.38-.24,2.38-.88,5.57-.93,7.81-.08,3.76,2.96,3.86,4.34,6.64l-1.37,12.95c.76,1.88,3.25,2.52,5.08,2.98.16.04.28.23.3.23,1.33.27,3.2.27,4.64.46.48.06.97.14,1.46.17l.09.14.15,3.87c.03.06-.08.33.03.43.11.1.4,0,.43.03.33-.1.28-.34.31-.62-.63.04-.38.03-.46-.38-.68-3.62-.44-8.47-.46-12.21-.02-4.19-.26-8.6.31-12.68.08-.59-.08-1.33,0-1.94.19-.25.28,0,.31.23.25,1.92-.11,4.49-.1,6.47,0,.18-.02,1.18.41,1.03-.06-9.89-.38-19.88-.47-29.76-.08-8.99.19-18.01-.15-26.99.64-2.18.38-8.22.47-10.89.1-2.99.06-5.93.61-8.9-.2-.01-.26-.34-.43-.47-.4-.31-.85-.17-.54-.73.08-.14-.04-.25.26-.19.82.69,1.71,1.31,2.63,1.85,1.63.95,3.13,1.6,4.91,2.18.11.04.11.27.23.29.7.16,4.21.08,5.07,0,3.04-.29,6.21-2.47,8.66-4.17.18-.13.23-.42.54-.15.04-.1.12-.17.15-.31l-2.78-3.25Z"/>&#xa;      <path class="cls-6" d="M14.7,28.5c.27.51-.34.99-.55,1.38-1.64,3.11-1.67,6.04-2.62,9.29-.13.44-.48.85-.54,1.16-.12.63.13,1.53-.04,2.13-.16.56-1.01,1.76-1.17,2.54s.1,1.71-.11,2.52c-.04.15-.78,1.93-.87,1.99-.27.19-.75-.43-1.22-.23-.5.22-.48.93-.63,1.36-.21.58-.08.23-.17.92-.1.79-.86,1.71-.89,2.54-.02.37.2.7.12,1.02-.03.14-.67,1.94-.73,2.03-.13.17-.45.11-.64.32-1.15,1.29-.82,2.67-1.31,3.8-.17.4-.49.55-.66.89-.3.62-.32,1.61-.51,2.29l6.96,4.09c.31-1.97.56-3.97.78-5.95.55-5.13.78-10.32,1.58-15.42.09-.6.26-1.87.41-2.36.45-1.42.21-1.94.32-3.39.13-1.7.58-6.24,1.23-7.46.09-.16-.16-.74.39-.5s.07,1.25.08,1.62c0,.35.18.67.16,1.08-.04,1.43-.47,2.21-.63,3.41-.37,2.81-.48,5.69-.79,8.49-.76,6.92-1.8,13.8-2.32,20.89-.02.23.12.99-.3.85-.19-.27-.72-.34-.93-.46-1.02-.62-1.93-1.41-2.9-2.01-1.54-.95-3.97-1.94-5.3-3.02-1.08-.88-.27-1.03.19-1.99.11-.22.07-.48.12-.57,2.41-4.96,4.73-10.3,6.72-15.62,1.83-4.88,3.73-13.83,6.73-17.62Z"/>&#xa;      <path class="cls-8" d="M1.24,61.75c-.04.09-.01.35-.12.57-.46.96-1.28,1.11-.19,1.99,1.34,1.08,3.76,2.06,5.3,3.02.96.59,1.88,1.39,2.9,2.01-.07,2.7.09,5.42,0,8.12-.02.67-.19,1.25-.16,2.01.01.3-.16.62.31.53-.07.2.09.32-.31.31-.19,0-1.1-.24-1.39-.31-.21-.05-.41-.1-.62-.15-1.79-.43-2.95-.77-4.79-.93-.26-.02-.92-.11-1.05-.34-.21-.37.99-3.73,1.17-4.41.2-.77.38-1.57.58-2.35.41-1.62.82-3.24,1.17-4.88-.04-.69-.65-.68-1.15-1.03-.36-.25-.67-.81-1.11-.76-.11.01.02.48-.39.32.17-1.16-.26-.58-.63-.84-.15-.1-.09-.41-.19-.51s-.4-.05-.51-.19c-.04-.04-.08-1.08-.07-1.14.02-.12.25-.12.31-.22.27-.42.32-.79.93-.81Z"/>&#xa;      <path class="cls-6" d="M68.01,63.41c-.83-1.23-1.53-2.54-2.17-3.88-3.32-6.92-5.73-14.29-8.48-21.44-.25-.64-.31-.61-.46-1.39,0-.05,0-.1,0-.15-.32-.18-.25-.5-.31-.77-.01-.05.01-.11,0-.15-.33-1.32-1.11-3.34-1.67-4.59-1.89-4.13-5.58-6.1-9.77-7.32-.23.4-1.04,1.11-1.08,1.24-.07.22.56,3.32.62,3.94.43,4.79.08,9.69.62,14.46.04,3.53-.04,7.07,0,10.6.17,15.83-.04,31.69,0,47.54.47.09.3-.24.31-.53.15-3.86-.11-7.75,0-11.61l.31-.23c.08,4.35.04,8.72.15,13.07.11,4.61.12,9.09.15,13.75,0,.99-.11.68-.16,1.08-.06.42.07.96.01,1.4.08.22.15-.07.16-.08v-1.24c.25.02.53-.03.77,0,.31.11.86-.31,1.01-.31h2.32c.19,0,1.15-.25,1.47-.31,1.36-.27,4.06-1.1,5.11-1.93.28-.22.82-.78.9-1.12l-1.5-13.11c.02-.3.35-.59.45-.84l2.4-2.01c.5-.49.6-.57.85-1.24-.29.11-.71,1.27-1.08.93-.07-.07.87-1.43.96-1.74.17-.56-.01-4.32-.19-4.95-.04-.13-.3-.11-.31-.2-.07-1.73-.28-3.64-.31-5.39-.01-.61.26-1.68.16-2.09-.02-.08-.1.05-.15-.46-.05-.49-.49-1.89.15-1.86-.02-.02.02-.11,0-.15-.29-.66-.52-3.63-.62-4.56-.2-1.97-.27-3.98-.46-5.95.3-.14.84-.29,1.08-.46,2.21-1.56,4.54-3.3,7.11-4.33.07-.03.23.03.31,0-.11-.3.51-.46.77-.62.05-.05.12-.1.15-.15l.31-.31c.09-.15.26-.22.13-.5ZM58.61,97.16c.05-.1.26.09.15.31-.05.1-.26-.09-.15-.31ZM55.9,104.11v-.15c.1.05.1.1,0,.15Z"/>&#xa;      <path class="cls-8" d="M66.34,64.99c.03.65-2.16,1.5-2.18,1.64.98,3.29,1.66,6.67,2.53,9.99.26.98,1.12,1.72-.04,2.28l-.08-.31c-.6.21-1.13.33-1.78.31-.42-.01-.99-.28-1.62-.15-.31.06-.45.36-.78.46-.92.28-1.93.22-2.86.47.06-.85-.31-2.07-.31-2.86v-4.02c0-.62-.02-1.22,0-1.86.02-.49-.16-1.07,0-1.62,2.21-1.56,4.54-3.3,7.11-4.33Z"/>&#xa;      <path class="cls-6" d="M45.16,23.55s.02.12,0,.15c-.23.4-1.04,1.11-1.08,1.24l-.46-.15c.02.25-.04.53,0,.77l-.57-.19-5.02,3.34c-1.35.02-3.09,1.36-4.24,1.35-.18,0-1.32-.67-1.68-.8-.81-.29-2.1-.49-2.86-.85-1.08-.51-3.14-2.23-4.28-2.99-.26-.17-.58-.12-.67-.17-.11-.06-.14-.45-.16-.46-.04-.04-.26.16-.31.16-.2-.01-.26-.34-.43-.47-.4-.31-.85-.17-.54-.73.08-.14-.04-.25.26-.19.82.69,1.71,1.31,2.63,1.85,1.63.95,3.13,1.6,4.91,2.18.11.04.11.27.23.29.7.16,4.21.08,5.07,0,3.04-.29,6.21-2.47,8.66-4.17.18-.13.23-.42.54-.15Z"/>&#xa;      <path class="cls-6" d="M42.22,18.76c.06.05.1.11.15.15.39.41,3.09,3.84,3.09,4.1,0,.15-.15.2-.16.23l-2.78-3.25c0,.21-.01.42-.07.62-.39,1.3-.97,2.94-1.79,4.05-.1.14-1.22,1.34-1.31,1.36-.67.14-.12-1.13-.23-1.24-1.1-.4-1.25,1.33-1.93,1.38-.9.07-.4-1.16-.72-1.36-.41-.26-1.11.36-1.43.3-.15-.03-.08-.31-.09-.32,2.25-.9,3.86-2.36,5.41-4.17,0,.01.14.1.12.2-.05.19-.34.29-.27.57.5.12.2-.3.34-.43.07-.07.31.02.44-.13.1-.1.76-2.16.76-2.38.04.02.11-.02.15,0,.05.18.2.22.31.31Z"/>&#xa;      <path class="cls-6" d="M25.83,18.61c.33.14-.01.53,0,.69,0,.1.55.06.16.48.75-.19.3.07.54.53.2.39.83.7,1.11.98.11.11.37,1.17.51.27,1.06,1.35,3.19,2.24,4.64,3.09-1.51,0-1.7.2-1.39,1.7-1,.16-1.3-1.36-2.24-1.54-.88-.17.08.86-.07,1.39-1.01.16-.62-.17-.92-.55-.45-.57-1.08-.88-1.59-1.67-.15-.23-1.27-2.14-1.29-2.27-.09-.46.13-.8.08-.99-.09-.32-.73-.07-.61-.56.04-.04.04-.35.17-.51.3-.37.58-.68.91-1.03Z"/>&#xa;      <path class="cls-5" d="M6.96,79.84c-.29.68.14,1.11.17,1.63.02.26-.16.56-.13.75.05.32.56.45.73.65.14.16,1,1.27,1.04,1.34.06.11.22,1.11.21,1.28,0,.22-.17.35-.17.38.25-1.23-.48-.88-1.29-1.42-.19-.13-1.66-1.28-1.72-1.37-.43-.57-.59-2.04-1-2.55-.49-.61-2.1-.93-2.64-1.62,1.84.16,3,.5,4.79.93Z"/>&#xa;      <path class="cls-5" d="M64.79,78.91c.65.02,1.17-.1,1.78-.31l.08.31c-.83.4-1.56.86-2.36,1.27-.22.12-.62.08-.7.15-.11.09-.55,2.17-.95,2.68-.52.65-2.09,1.76-2.94,1.93h-.15c.14-.87.13-.43.47-.89.19-.25.59-1.01.77-1.19s.72-.38.75-.42c.08-.14-.17-.79-.15-1.13.03-.4.34-.98.32-1.47.51-.12.5-.28.58-.3.82-.21,1.74-.2,2.51-.63Z"/>&#xa;      <path class="cls-6" d="M61.7,79.84c.01.49-.3,1.07-.32,1.47-.02.34.23,1,.15,1.13-.03.05-.57.25-.75.42s-.59.94-.77,1.19c-.34.45-.33.02-.47.89s.06,2.49.16,3.48c.25,2.64,1.18,5.07.31,7.66-.02.05.02.11,0,.15-.29.11-.71,1.27-1.08.93-.07-.07.87-1.43.96-1.74.17-.56-.01-4.32-.19-4.95-.04-.13-.3-.11-.31-.2-.07-1.73-.28-3.64-.31-5.39-.01-.61.26-1.68.16-2.09.55-.22,1.15.21,1.53-.4.3-.48.32-1.81.17-2.38.27-.06.55-.1.77-.15Z"/>&#xa;      <path class="cls-5" d="M51.5,116.95h.15c0,.25-.02.52,0,.77-1.42.1-2.84.35-4.26.47-.34.03-.59-.13-.77-.13-.1,0-.15.22-.23.28-.03.02-.12-.02-.15,0v-1.24c.25.02.53-.03.77,0,1.48.18,2.95-.03,4.48-.15Z"/>&#xa;      <path class="cls-7" d="M20.88,116.95c.1.7-1.25,0-1.7.46-.23.11-1.95.33-2.07.3-.22-.06-.24-.72-.56-.45-.06.05.13.37-.15.31l-.31-.62c.01-.16.08-.32.15-.46,1.33.27,3.2.27,4.64.46Z"/>&#xa;      <path class="cls-6" d="M28.3,18.3l.15.15s.12-.02.15,0c-.07.73-.55,1.4-.93,2.01,0-.01-.21.03-.31-.11-.45-.65-.94-1.32-1.24-2.06.6-.16,1.56-.15,2.16,0Z"/>&#xa;      <path class="cls-4" d="M59.69,84.94c.12,1.41.15,2.85.31,4.25.23,2.05.99,4.45.38,6.42-.08.25.02.55-.38.46.87-2.59-.05-5.01-.31-7.66-.1-.99-.3-2.58-.16-3.48h.15Z"/>&#xa;      <path class="cls-4" d="M26.14,18.3c.3.74.78,1.41,1.24,2.06.1.14.3.1.31.11.05.06.3.88.46,1.08-.14.91-.4-.16-.51-.27-.28-.28-.91-.58-1.11-.98-.24-.46.21-.72-.54-.53.38-.42-.16-.38-.16-.48-.01-.16.34-.55,0-.69.09-.1-.22-.17.31-.31Z"/>&#xa;      <path class="cls-6" d="M41.45,18.45c-.21.43-.44.86-.64,1.29-.07.14-.27.22-.28.25-.29-.58-.63-1.14-.93-1.7.1,0,.21,0,.31,0,.39,0,1.12-.15,1.3-.12.16.03.22.27.24.27Z"/>&#xa;      <path class="cls-7" d="M51.8,116.48c-.05.06-.11.1-.15.15-.08.1-.17.16-.15.31-1.54.13-3,.33-4.48.15.31.11.86-.31,1.01-.31h2.32c.19,0,1.15-.25,1.47-.31Z"/>&#xa;      <path class="cls-8" d="M39.9,18.3c.22-.29,1.74-.41,1.86-.31.02.02,0,.35,0,.46-.07-.03-.22.03-.31,0-.02,0-.08-.25-.24-.27-.18-.03-.92.13-1.3.12Z"/>&#xa;      <path class="cls-8" d="M27.37,11.18c.01.36-.02.72,0,1.08,0,.1,0,.21,0,.31-.58.15-.33-1.2,0-1.55,0,.05,0,.1,0,.15Z"/>&#xa;      <path class="cls-8" d="M27.37,13.66c.45-.17.39.57.46.62.09.06.71-.06.77,0,.05.04-.04.47,0,.62-.11-.43-.58-.23-.74-.35-.08-.06-.02-.26-.03-.27-.24-.21-.28.12-.46-.62Z"/>&#xa;      <path class="cls-4" d="M57.37,38.09c-.25-.64-.31-.61-.46-1.39l.46,1.39Z"/>&#xa;      <path class="cls-8" d="M27.53,8.86c-.02.18-.18.48-.31.62-.01-.2-.28-.67.31-.62Z"/>&#xa;      <path class="cls-8" d="M29.23,17.83c-.41-.27-.15-.64-.15-.77.25.13.14.53.15.77Z"/>&#xa;      <path class="cls-8" d="M29.08,16.75c-.63.08-.17-.32-.15-.46.19.07.16.3.15.46Z"/>&#xa;      <path class="cls-8" d="M39.59,15.51c-.06.37.19.72-.31.62.03-.25.08-.47.31-.62Z"/>&#xa;      <path class="cls-8" d="M67.42,64.37s.05.19-.03.27c-.17.17-.51.27-.74.35-.11-.3.51-.46.77-.62Z"/>&#xa;      <path class="cls-8" d="M39.28,16.91s.22.15.15.31c-.09.02-.28-.03-.31,0l.15-.31Z"/>&#xa;      <path class="cls-4" d="M56.91,36.54c-.32-.18-.25-.5-.31-.77.21.19.27.5.31.77Z"/>&#xa;      <path class="cls-8" d="M51.65,116.95h-.15c-.01-.15.07-.21.15-.31v.31Z"/>&#xa;      <path class="cls-8" d="M27.37,13.5c-.01-.12,0-.13,0-.15v.15Z"/>&#xa;      <path class="cls-8" d="M67.58,64.22l.31-.31c-.11.2-.26.24-.31.31Z"/>&#xa;      <path class="cls-8" d="M28.46,18.45l-.15-.15c.12.03.14.15.15.15Z"/>&#xa;      <path class="cls-8" d="M42.22,18.76c-.11-.09-.26-.13-.31-.31.22.11.21.21.31.31Z"/>&#xa;      <path class="cls-4" d="M42.37,18.92c-.06-.05-.1-.11-.15-.15.05.05.1.1.15.15Z"/>&#xa;      <path class="cls-7" d="M24.28,25.25c-.77,3.48-.63,7.06-.77,10.6-1,26.1.38,52.33.15,78.46-.02,2.26-.09,4.57.15,6.8.02.15-.02.31,0,.46.1.01.21-.01.31,0,1.11.17,2.14.09,3.25.15.18,0,.56.13.93.15.21.01.41,0,.62,0,.1,0,.21,0,.31,0,.31.01.62-.01.93,0,.21,0,.41,0,.62,0,1.02.03,2.05.15,3.09.15.21,0,.41,0,.62,0,.41,0,.83,0,1.24,0,.36,0,.72,0,1.08,0,.31,0,.62,0,.93,0,.15,0,.31,0,.46,0,.79-.03,1.66-.11,2.47-.15.25-.01.56-.2.84-.16h2.87c-.46.08-.98.28-1.55.16l.31.31c-.85.03-1.71.23-2.55.31-4.1.38-8.71.62-12.81.29-.72-.06-1.61-.42-2.34-.44-.38-.01-.72.22-1.22.15-.11-.02-1.12-.27-1.17-.31-.07-.07.04-.58,0-.61.33-.1.28-.34.31-.62.31-3.38,0-7.72,0-11.22,0-2.73.02-5.51,0-8.27-.06-9.89-.38-19.88-.47-29.76-.08-8.99.19-18.01-.15-26.99.64-2.18.38-8.22.47-10.89.1-2.99.06-5.93.61-8.9.05,0,.27-.19.31-.16.02.02.05.4.16.46Z"/>&#xa;      <path class="cls-7" d="M10.06,69.79c.19.27.18.69.16,1.01-.1,2.8-.97,6.36-.78,9.04-.06.03-.13.09-.15.15-.47.09-.3-.24-.31-.53-.03-.76.14-1.34.16-2.01.08-2.7-.08-5.42,0-8.12.2.12.73.19.93.46Z"/>&#xa;      <path class="cls-7" d="M44.07,24.95c-.07.22.56,3.32.62,3.94.43,4.79.08,9.69.62,14.46.04,3.53-.04,7.07,0,10.6.17,15.83-.04,31.69,0,47.54.01,4.04-.06,8.1,0,12.14.03,2.37.43,4.96.16,7.34-.02.15-.22.4-.15.62-.09.02-.21-.02-.31,0-.14-1.12.17-2.25.16-3.33-.03-13.01-.33-26.08-.33-39.12.01-15.89.73-32.09-.4-47.87-.15-2.04-.55-3.77-.83-5.7-.04-.24.02-.52,0-.77l.46.15Z"/>&#xa;      <path class="cls-7" d="M59.54,79.68c-.01.2-.13.42-.15.62h-.15c-.29-.66-.52-3.63-.62-4.56-.2-1.97-.27-3.98-.46-5.95.3-.14.84-.29,1.08-.46-.15.55.02,1.13,0,1.62-.02.65,0,1.25,0,1.86v4.02c0,.79.37,2.01.31,2.86Z"/>&#xa;      <path class="cls-5" d="M60.93,79.99c.15.57.13,1.9-.17,2.38-.38.62-.98.18-1.53.4-.02-.08-.1.05-.15-.46.54.02.43.1.46-.38.02-.23.04-1.42,0-1.48-.03-.04-.26.04-.31,0-.02-.02.02-.11,0-.15h.15c.51-.09,1.04-.19,1.55-.31Z"/>&#xa;      <path class="cls-6" d="M59.23,80.46c.05.04.28-.04.31,0,.04.06.02,1.25,0,1.48-.04.47.08.4-.46.38-.05-.49-.49-1.89.15-1.86Z"/>&#xa;      <path class="cls-6" d="M58.76,97.46c-.05.1-.26-.09-.15-.31.05-.1.26.09.15.31Z"/>&#xa;      <path class="cls-4" d="M45.31,101.48c.47.09.3-.24.31-.53.15-3.86-.11-7.75,0-11.61l.31-.23c.08,4.35.04,8.72.15,13.07.11,4.61.12,9.09.15,13.75,0,.99-.11.68-.16,1.08s.07.96.01,1.4c.08.22.15-.07.16-.08.04-.02.12.02.15,0-.02.36.03.73,0,1.08-1.09-.24.16,1.79-.93,1.55.27-2.38-.13-4.97-.16-7.34-.05-4.05.02-8.1,0-12.14Z"/>&#xa;      <path class="cls-7" d="M22.43,117.26l.15,3.87s-.27.06-.31-.1c-.12-.46.13-2.51,0-2.68-.77.34-1.42-.27-2.25-.46-.39-.09-.43.16-.38-.47.44.04,2.12.49,2.23.46.33-.1.07-.73.56-.61Z"/>&#xa;      <path class="cls-5" d="M22.43,117.26c-.49-.12-.23.51-.56.61-.11.03-1.79-.42-2.23-.46-.15-.01-.31,0-.46,0,.45-.46,1.8.23,1.7-.46.48.06.97.14,1.46.17l.09.14Z"/>&#xa;      <path class="cls-6" d="M46.39,119.42c-.03.37-.09.72-.15,1.08-.06.31-.19.6-.15.93-.4.17-.46.09-.77.15-.06-.22.14-.47.15-.62,1.09.24-.16-1.79.93-1.55Z"/>&#xa;      <path class="cls-5" d="M46.24,120.5c.21.1.21.63.16.83s-.24.06-.32.1c-.04-.33.1-.62.15-.93Z"/>&#xa;      <path class="cls-4" d="M55.9,103.96c.1.05.1.1,0,.15v-.15Z"/>&#xa;      <path class="cls-4" d="M23.35,120.97c-.63.04-.38.03-.46-.38-.68-3.62-.44-8.47-.46-12.21-.02-4.19-.26-8.6.31-12.68.08-.59-.08-1.33,0-1.94.19-.25.28,0,.31.23.25,1.92-.11,4.49-.1,6.47,0,.18-.02,1.18.41,1.03.02,2.76-.01,5.54,0,8.27,0,3.49.32,7.84,0,11.22Z"/>&#xa;      <path class="cls-5" d="M8.97,80.3c-.1.67.38,2.54-.67,2.44-.95-.09-1.01-2.04-.72-2.75.29.07,1.2.3,1.39.31Z"/>&#xa;      <path class="cls-2" d="M64.79,78.91c-.77.43-1.7.42-2.51.63-.08.02-.07.17-.58.3-.22.05-.51.09-.77.15-.51.12-1.03.22-1.55.31.03-.2.14-.42.15-.62.93-.24,1.94-.19,2.86-.47.33-.1.46-.4.78-.46.63-.12,1.21.14,1.62.15Z"/>&#xa;      <path class="cls-5" d="M40.52,14.44c.41-.36.74-1.37.76-1.9,0-.23-.15-.34-.15-.36,0-.2-.03-.45,0-.62.13-.66.58-1.56.29-2.38-.08-.22-.42-.19-.44-.35-.22-1.38.44-3.12.31-4.47-.07-.73-.29-.9-.72-1.38-.07-.08-.03-.29-.09-.35-.11-.11-1.07-.37-1.34-.6-.27-.23-.33-.61-.53-.78-.16-.14-1.47-1.13-1.56-1.14-2.06-.24-4.13-.11-6.07.58l-.81.82c-.26.04-.67.26-.86.45-.1.1-1.04,1.49-1.13,1.66-.2.4-.29,1.38-.33,1.45,0,.01-.24-.07-.3.11-.11.33-.16,1.14-.16,1.51,0,.29-.14.63.31.54-.01.49.06,1.08,0,1.55-.02.18-.18.48-.31.62.02.41.14.81.15,1.08,0,.15,0,.31,0,.46,0,.05,0,.1,0,.15.01.36-.02.72,0,1.08,0,.1,0,.21,0,.31M27.52,12.49c.01.26-.01.52,0,.77v.15c0,.05-.01.11,0,.15.45-.17.39.57.46.62.09.06.71-.06.77,0,.02.02.01.14,0,.27h0c-.01.13-.02.27,0,.35.14.5.36.75.31,1.39.19.07.16.3.15.46,0,.1,0,.21,0,.31.25.13.14.53.15.77.01.24-.05.58,0,.77.06.27.8,1.39,1.02,1.69.48.65,3.22,3.39,3.85,3.41.24,0,.44-.17.62-.3.85-.61,4.17-3.86,4.37-4.75.07-.33.01-.65.03-.97,0-.12-.03-.44,0-.46l.15-.31c-.02-.22-.03-.56,0-.77.03-.25.08-.47.31-.62.17-1.08.26-.53.78-.99M29.53,2.9h-.15c-.08-.64.23-.64.15,0ZM35.79,1.21c.17.14.28.23.23.46-.07.15-.3-.31-.23-.46Z"/>&#xa;      <path class="cls-4" d="M41.75,18.45c0,.22-.67,2.27-.76,2.38-.14.15-.37.06-.44.13-.14.13.16.55-.34.43-.07-.28.22-.37.27-.57.03-.11-.12-.19-.12-.2.05-.16.13-.56.15-.62.02-.03.22-.11.28-.25.2-.44.44-.86.64-1.29.09.03.24-.03.31,0Z"/>&#xa;      <path class="cls-5" d="M29.38,2.99h-.15c-.08-.64.23-.64.15,0Z"/>&#xa;      <path class="cls-6" d="M23.66,114.32c.47-.09.3.24.31.53.07,2.08-.19,4.2.19,6.24.89.34,1.87.35,2.81.44.23.02.48-.33.41.22-1.11-.06-2.14.01-3.25-.15,0-.23-.09-.4-.31-.46-.25-2.24-.17-4.55-.15-6.8Z"/>&#xa;      <path class="cls-6" d="M33.87,122.05c-1.05,0-2.07-.12-3.09-.15-.15-.19-.53-.26-.62,0-.31-.01-.62.01-.93,0,.19-.24.6-.39.89-.43.88-.12,2.29.01,3.22.11.35.04.54.06.53.47Z"/>&#xa;      <path class="cls-6" d="M36.81,122.05c-.06-1.11,1.43-.46,2.08-.45.51,0,.92-.15,1.39-.17.5-.02.4.02.39.47-.81.05-1.69.13-2.47.15.14-.46-.58-.49-.46,0-.31,0-.62,0-.93,0Z"/>&#xa;      <path class="cls-6" d="M34.49,122.05c-.19-.79.7-.37,1.24-.46v.46c-.41,0-.83,0-1.24,0Z"/>&#xa;      <path class="cls-6" d="M28.3,121.89c-.19-.72.82-.69.62,0-.21,0-.41.01-.62,0Z"/>&#xa;      <path class="cls-4" d="M37.73,122.05c-.12-.49.6-.46.46,0-.15,0-.31,0-.46,0Z"/>&#xa;      <path class="cls-4" d="M24.13,121.58c-.1-.01-.21.02-.31,0-.02-.15.02-.31,0-.46.22.07.31.24.31.46Z"/>&#xa;      <path class="cls-4" d="M30.78,121.89c-.21,0-.41,0-.62,0,.09-.26.47-.19.62,0Z"/>&#xa;      <path class="cls-7" d="M37.73,62.83c.14,0,.43-.07.46.08-.12.24-.61.39-.7.54-.07.13.12.39.07.45-.06.09-1.46,1.09-1.7,1.25-.32-.02-.62.07-.93.15v-.31c.45-.09,1.07-.26,1.24-.62-.15.01-.33-.03-.46,0v-.15c.2-.04,1.4-.44,1.39-.54-.27-.31-1.29.35-1.39.23v-.46c.96.17,1.31-.2,2.01-.62Z"/>&#xa;      <path class="cls-7" d="M35.57,61.44c.02-.13.06-.22.15-.31-.05.08-.05.23-.15.31Z"/>&#xa;      <path class="cls-7" d="M35.72,44.58c-.1.07-.39.68-.62.46-.36-.34.58-.44.62-.46Z"/>&#xa;      <path class="cls-7" d="M36.34,96.69c.26,0,.52,0,.77,0-.89-1.84,1.59-2,1.36-.42-.12.85-.97.66-1.06.73-.09.08.65,1.98-1.08,1.39-.07.36.37.45.44.73.19.68-.52,1.37-1.21,1.05.94,2.09-1.89,2.04-1.37.34.19-.62,1.15-.52,1.21-.57.08-.08-.47-.77.14-1.33.14-.13,1-.31.63-.68-.27-.27-.73.55-1.13.45-.88-.23-.82-2.15.51-1.84.04.06.07.13.15.15.08.14.07.58.23.62.36.1.25-.38.38-.62Z"/>&#xa;      <path class="cls-7" d="M36.34,96.69c-.18,0-.47.04-.62,0-.04-.08-.04-.13-.15-.15-.63-.93.44-2.39,1.06-1.3.46.82.02.9-.29,1.45Z"/>&#xa;      <path class="cls-7" d="M35.07,94.87c.37.63-.12,1.85-1.05,1.51.19.47.21,1.45-.39,1.55-1.16.2-1.24-2.1.23-1.71-.68-.97.66-2.29,1.2-1.36Z"/>&#xa;      <path class="cls-7" d="M35.76,92.4c1.2-.68,1.65,1.51.63,1.8s-1.25-1.45-.63-1.8Z"/>&#xa;      <path class="cls-7" d="M33.82,98.26c1.15-.34,1.55,1.38.55,1.65-.9.25-1.37-1.41-.55-1.65Z"/>&#xa;      <path class="cls-7" d="M33.54,93.62c.47.29,0,2.38-.86,1.63-.93-.81,0-2.16.86-1.63Z"/>&#xa;      <path class="cls-7" d="M35.08,94.04c-.27.43-1.12.11-1.29-.45-.27-.86.87-1.69,1.24-.91.1.21.15,1.22.05,1.37Z"/>&#xa;      <g>&#xa;        <path class="cls-7" d="M37.73,59.74c-.28.09-1.01.53-.77.77.17.17.83-.48.77-.77Z"/>&#xa;        <path class="cls-7" d="M33.17,93.3c.84-.13.41-1.22.39-1.71-1.64-.67-1.65,1.9-.39,1.71Z"/>&#xa;      </g>&#xa;      <path class="cls-6" d="M38.51,59.74c-.7.15-.67,1.28-1.45,1.09-.16-.04-.09-.3-.1-.31.17.17.83-.48.77-.77.39-.12.5-.03.77,0Z"/>&#xa;      <path class="cls-6" d="M30.62,87.26c.27.05.57-.25.33.26-.17.38-.48,1.09-.95,1.14.1-.44.42-.95.62-1.39Z"/>&#xa;      <path class="cls-6" d="M33.56,88.5c-.63.4-.35.39-1.08.46l1.08-1.01v.54Z"/>&#xa;      <path class="cls-6" d="M30,89.11c-.07-.01-.13.01-.15-.08l.15-.08v.15Z"/>&#xa;      <path class="cls-5" d="M35.88,1.75c-.07.15-.3-.31-.23-.46.17.14.28.23.23.46Z"/>&#xa;      <path class="cls-4" d="M35.72,61.13l.77-.46c.09.1-.44.86-.54,1.08-.13.31.02.83-.38.93.04-.39-.06-.87,0-1.24.1-.08.1-.23.15-.31Z"/>&#xa;      <path class="cls-4" d="M37.73,62.83c-.7.42-1.05.79-2.01.62v.46c.11.12,1.12-.55,1.39-.23,0,.1-1.19.5-1.39.54-.22.04-.53-.03-.77,0-.12-.32.3-.29.32-.41.03-.3-.34-.51.19-.72.35-.13.48.17.78.16.42-.02.83-.42,1.5-.43Z"/>&#xa;      <path class="cls-4" d="M36.34,96.69c-.14.24-.02.72-.38.62-.16-.04-.15-.48-.23-.62.14.04.44,0,.62,0Z"/>&#xa;      <path class="cls-4" d="M35.88,65.15c-.19.13-.36.35-.63.4-.24.05-.29-.09-.3-.09v-.15c.3-.09.61-.17.93-.15Z"/>&#xa;      <path class="cls-4" d="M35.72,96.69c-.09-.02-.11-.09-.15-.15.11.03.11.08.15.15Z"/>&#xa;      <path class="cls-4" d="M34.18,33.3v9.59l-.93-.08.16,1.16.46-.15-.46.77c.52.03.9-.22.77.46-.59-.59-.47.1-1.08.15.04-.15-.16-.32-.16-.39v-11.52h1.24Z"/>&#xa;      <path class="cls-4" d="M34.02,66.85c.2-.05.41-.01.62-.15l.31,9.59c-.25.26-1.41-1.45-1.38-1.79l-.16-7.49c.2-.05.42-.11.62-.15Z"/>&#xa;      <path class="cls-4" d="M34.33,62.98c-.11.09-.59-.19-.62-.16,0,.31.12.55-.31.46l-.31-5.1c.38.04,1.23-.18,1.37.25.05.16.17,3.01.14,3.34-.02.15-.23,1.16-.27,1.2Z"/>&#xa;      <path class="cls-4" d="M32.94,67.16h.15l.08,6.8c-.44-1.01-.92-2.05-1.01-3.17-.06-.76-.02-2.88.4-3.48.11-.16.37-.14.38-.15Z"/>&#xa;      <path class="cls-4" d="M34.33,56.33c-.59-.35-.3.33-1.08,0l.62-.62-.77-.23.92-.31c-.31-.48-.93.2-.93-.47v-2.24c0-.07,1.24-.19,1.24.08v3.79Z"/>&#xa;      <path class="cls-4" d="M35.11,79.68h-1.24s-.15-3.25-.15-3.25c1.78.23,1.12,1.93,1.39,3.25Z"/>&#xa;      <path class="cls-4" d="M35.57,85.25c.19.18-.24.42-.36.49-.81.55-1.87,1.02-2.73,1.52-.07-.33.16-.35.36-.49.29-.21,2.59-1.65,2.73-1.52Z"/>&#xa;      <path class="cls-4" d="M32.32,31.44l-.62.31.16.46c1.12-.83.63.51-.54.16-.15-.04,0-.78-.39-.47-.03.02-.19.73-.47.46-.15-.14.51-.71.57-.74.31-.13.93-.14,1.28-.19Z"/>&#xa;      <path class="cls-4" d="M37.27,81.85c.07.08-.64,1.72-.77,1.94-.06.11-.27.6-.47.38-.08-.09.72-1.78.85-2.01.05-.09.14-.59.38-.3Z"/>&#xa;      <path class="cls-4" d="M36.03,86.02s.06.8.17.98l-.78.57c0-.17.25-1.97.62-1.55Z"/>&#xa;      <path class="cls-4" d="M38.35,85.25c.25.19,0,.28-.23.31-.46.06-1-.04-1.47,0v-.46s1.7.15,1.7.15Z"/>&#xa;      <path class="cls-4" d="M33.1,65.3c-.4.07-.28-.06-.35-.33-.2-.71-.04-1.14.05-1.83l.31,2.16Z"/>&#xa;      <path class="cls-4" d="M33.25,82.78c.25-.25,1.32,1.08,1.44,1.19.19.17.79.21.88.67"/>&#xa;      <path class="cls-4" d="M34.33,56.8c.11.51-.93.38-1.24.46v-.62s1.24.15,1.24.15Z"/>&#xa;      <path class="cls-8" d="M34.95,64.22c.24-.03.55.04.77,0v.15c-.3.07-.65.44-1.08.31-.04-.03-.22.02-.31,0-.04-.46.27-.42.62-.46Z"/>&#xa;      <path class="cls-8" d="M34.8,64.99c.05,0,.11,0,.15,0v.46c-.15,0-.31,0-.46,0-.2,0-.42-.02-.62,0l-.15-.31c.36-.17.75-.1,1.08-.16Z"/>&#xa;      <path class="cls-4" d="M35.72,64.37c.13-.03.32.02.46,0-.17.36-.78.53-1.24.62-.05,0-.1,0-.15,0-.06-.08-.1-.27-.15-.31.43.13.78-.24,1.08-.31Z"/>&#xa;      <path class="cls-8" d="M34.33,65.77c-.05.12-.27.59-.38.59-.65,0-1.05-.47-.39-.59.22-.04.53.03.77,0Z"/>&#xa;      <path class="cls-8" d="M34.02,66.85c-.2.05-.42.1-.62.15-.1.03-.2.12-.31.15h-.15c.04-.07-.1-.42.08-.47.2-.05.88-.05,1,.16Z"/>&#xa;      <path class="cls-4" d="M33.87,65.46c.19-.02.42,0,.62,0,0,.13-.12.22-.15.31-.24.03-.55-.04-.77,0-.64-.01-.17-.25.31-.31Z"/>&#xa;      <path class="cls-4" d="M32.48,65.92s-.27.06-.31-.1c-.09-.34.06-.91,0-1.29.69-.09-.06.96.31,1.39.02.03.64.09.31.46-.35.4-.29-.43-.31-.46Z"/>&#xa;      <path class="cls-4" d="M34.18,51.54l.16.62-.62-.16c-.05-.28.17-.51.46-.46Z"/>&#xa;      <path class="cls-4" d="M38.97,61.28c-.04.21-.48.59-.62.46-.24-.22.35-.5.62-.46Z"/>&#xa;      <polyline class="cls-4" points="34.33 57.88 33.87 57.88 33.87 57.57"/>&#xa;      <path class="cls-4" d="M39.9,37.47c.1.05-.09.26-.31.15-.1-.05.09-.26.31-.15Z"/>&#xa;      <path class="cls-4" d="M34.18,44.43c-.05.1-.26-.09-.15-.31.05-.1.26.09.15.31Z"/>&#xa;      <path class="cls-8" d="M34.26,66.54c.1.05.1.1,0,.15v-.15Z"/>&#xa;      <path class="cls-4" d="M38.3,92.85c1.04-.34,1.63.51.63.94-.89.38-1.16-.77-.63-.94Z"/>&#xa;      <path class="cls-4" d="M38.66,90.51c.13.52-.35,1.44-.94,1.01-.63-.46.38-1.18.94-1.01Z"/>&#xa;      <path class="cls-7" d="M40.67,46.13l-.39.47h-4.71c-.25-.2,0-.28.23-.31,1.51-.19,3.32.19,4.87-.15Z"/>&#xa;      <path class="cls-3" d="M45,121.58c-.21.04-.41.13-.62.16h-2.87c-.28-.05-.59.14-.84.15.01-.45.12-.49-.39-.47-.47.02-.88.18-1.39.17-.65,0-2.15-.65-2.09.46-.36.01-.72-.01-1.08,0v-.47c-.54.09-1.42-.32-1.24.47h-.61c0-.42-.19-.44-.54-.48-.92-.09-2.33-.23-3.21-.1-.29.04-.7.19-.89.42-.11,0-.21.01-.31,0,.2-.68-.81-.72-.62,0-.37-.02-.75-.14-.93-.15.07-.55-.17-.2-.41-.22-.94-.08-1.91-.09-2.8-.43-.38-2.05-.12-4.17-.19-6.24,0-.3.16-.62-.31-.53.23-26.14-1.14-52.37-.15-78.47.14-3.54,0-7.12.77-10.6.09.05.41,0,.67.18,1.14.76,3.2,2.47,4.28,2.99.77.36,2.06.56,2.87.84.36.13,1.49.8,1.68.8,1.15.01,2.89-1.33,4.24-1.35l5.02-3.34.57.19c.28,1.93.69,3.67.83,5.7,1.13,15.78.41,31.98.4,47.87,0,13.04.29,26.12.32,39.12.01,1.09-.3,2.21-.16,3.33Z"/>&#xa;      <path class="cls-7" d="M33.25,46.13c-.05.1-.26-.09-.15-.31.05-.1.26.09.15.31Z"/>&#xa;      <path class="cls-8" d="M39.13,17.68c.4-.1.27.26.46.62.3.56.64,1.12.93,1.7-.03.06-.11.45-.15.62-1.55,1.82-3.16,3.27-5.41,4.17-.09-.06-1.88-.15-2.16-.15-1.45-.85-3.58-1.74-4.64-3.09-.16-.21-.42-1.02-.46-1.08.37-.61.86-1.28.93-2.01.06.03.19-.02.31.08.17.15.27.81.31.08.06.27.8,1.39,1.02,1.69.48.65,3.08.71,3.71.73.24,0,.45.03.67-.02,1.11-.26,4.27-1.46,4.47-2.36.07-.33.01-.65.03-.97Z"/>&#xa;      <path class="cls-1" d="M38.08,16.15c.3-.46,3.03-3.08,3.05-3.61,0-.23-.15-.34-.15-.36,0-.2-.03-.45,0-.62.13-.66.58-1.56.29-2.38-.08-.22-.42-.19-.44-.35-.22-1.38.44-3.12.31-4.47-.07-.73-.29-.9-.72-1.38-.07-.08-.03-.29-.09-.35-.11-.11-1.07-.37-1.34-.6-.27-.23-.33-.61-.53-.78-.16-.14-1.47-1.13-1.56-1.14-2.06-.24-4.13-.11-6.07.58l-.81.82c-.26.04-.67.26-.86.45-.1.1-1.04,1.49-1.13,1.66-.2.4-.29,1.38-.33,1.45,0,.01-.24-.07-.3.11-.11.33-.16,1.14-.16,1.51,0,.29-.14.63.31.54-.01.49.06,1.08,0,1.55-.02.18-.18.48-.31.62.02.41.14.81.15,1.08,0,.15,0,.31,0,.46,0,.05,0,.1,0,.15.01.36-.02.72,0,1.08,0,.1,1.01,2.71,2.44,3.65M27.37,13.26v.15c0,.05-.01.11,0,.15.45-.17.39.57.46.62M29.38,2.9h-.15c-.08-.64.23-.64.15,0ZM35.65,1.21c.17.14.28.23.23.46-.07.15-.3-.31-.23-.46Z"/>&#xa;    </g>&#xa;  </g>&#xa;</svg></g></g></g><g data-cell-id="3sGnDGBDs-SrtWcaNYYb-250"><g><g><svg height="155.26" width="67.43" id="svg-image-MamX4IwtinqY9vg-oL9k" data-name="Capa 2" viewBox="0.24853229522705078 0.12691974639892578 43.306880950927734 98.50568389892578" xmlns="http://www.w3.org/2000/svg" x="256.22" y="290" style="font-family: initial;">&#xa;  <defs>&#xa;    <style>#svg-image-MamX4IwtinqY9vg-oL9k .cls-1 { fill: rgb(67, 41, 24); stroke: rgb(67, 41, 24); }&#xa;#svg-image-MamX4IwtinqY9vg-oL9k .cls-1, #svg-image-MamX4IwtinqY9vg-oL9k .cls-2, #svg-image-MamX4IwtinqY9vg-oL9k .cls-3, #svg-image-MamX4IwtinqY9vg-oL9k .cls-4, #svg-image-MamX4IwtinqY9vg-oL9k .cls-5, #svg-image-MamX4IwtinqY9vg-oL9k .cls-6, #svg-image-MamX4IwtinqY9vg-oL9k .cls-7 { stroke-miterlimit: 10; }&#xa;#svg-image-MamX4IwtinqY9vg-oL9k .cls-1, #svg-image-MamX4IwtinqY9vg-oL9k .cls-3, #svg-image-MamX4IwtinqY9vg-oL9k .cls-7 { stroke-width: 0.25px; }&#xa;#svg-image-MamX4IwtinqY9vg-oL9k .cls-8, #svg-image-MamX4IwtinqY9vg-oL9k .cls-2 { fill: rgb(255, 255, 255); }&#xa;#svg-image-MamX4IwtinqY9vg-oL9k .cls-2, #svg-image-MamX4IwtinqY9vg-oL9k .cls-4, #svg-image-MamX4IwtinqY9vg-oL9k .cls-5 { stroke-width: 0.5px; }&#xa;#svg-image-MamX4IwtinqY9vg-oL9k .cls-2, #svg-image-MamX4IwtinqY9vg-oL9k .cls-4, #svg-image-MamX4IwtinqY9vg-oL9k .cls-5, #svg-image-MamX4IwtinqY9vg-oL9k .cls-6 { stroke: rgb(29, 29, 27); }&#xa;#svg-image-MamX4IwtinqY9vg-oL9k .cls-3 { fill: none; stroke: rgb(112, 111, 111); }&#xa;#svg-image-MamX4IwtinqY9vg-oL9k .cls-4, #svg-image-MamX4IwtinqY9vg-oL9k .cls-6 { fill: rgb(210, 27, 50); }&#xa;#svg-image-MamX4IwtinqY9vg-oL9k .cls-5 { fill: rgb(244, 207, 160); }&#xa;#svg-image-MamX4IwtinqY9vg-oL9k .cls-6 { stroke-width: 0.75px; }&#xa;#svg-image-MamX4IwtinqY9vg-oL9k .cls-7 { fill: rgb(29, 29, 27); stroke: rgb(60, 60, 59); }&#xa;</style>&#xa;  </defs>&#xa;  <g id="Capa_1-2" data-name="Capa 1">&#xa;    <path class="cls-2" d="M4.48,31.46c-11.34,24.04,2.74,19.04,11.53,21.04-.97-.08,1.86-7.5,1.54-7.53-6.87-.68-11.9-.86-6.87-10.05"/>&#xa;    <path class="cls-2" d="M37.79,30.16c15.22,24.87-3.65,21.72-11.28,22.34.97-.08-1.34-7.5-1.02-7.53,6.87-.68,11.9,3.79,5.84-10.64"/>&#xa;    <path class="cls-5" d="M20.35,47.3c-.04,2.24-1.55,3.12-3.04,3.06-1.75-.06-2.98-.79-3.04-3.06-.04-1.69,1.36-3.06,3.04-3.06s3.07,1.37,3.04,3.06Z"/>&#xa;    <path class="cls-5" d="M27.08,47.3c-.04,2.24-1.55,3.12-3.04,3.06-1.75-.06-2.98-.79-3.04-3.06-.04-1.69,1.36-3.06,3.04-3.06s3.07,1.37,3.04,3.06Z"/>&#xa;    <path class="cls-5" d="M16.93,21.26v2.32c3.94,2.75,6.04,1.3,8.22,0v-2c-2.42,1.29-5.37,1.14-8.22-.31"/>&#xa;    <ellipse class="cls-7" cx="11.95" cy="94.11" rx="1.95" ry="6.96" transform="translate(-81.57 78.17) rotate(-73.09)"/>&#xa;    <ellipse class="cls-7" cx="29.27" cy="95.14" rx="6.96" ry="1.95" transform="translate(-20.97 9.21) rotate(-13.21)"/>&#xa;    <path class="cls-6" d="M6.54,72.58c-.48,11.24-1.74,17.42-1.79,21.02,9.9,2.21,33.03,2.27,34.34.37-.34-5.6-2.51-14.15-2.6-21.39H6.54Z"/>&#xa;    <path class="cls-5" d="M32.11,11.56c-.15,8.12-5.61,11.29-11,11.1-6.34-.22-10.8-2.88-11-11.1C9.95,5.43,15.03.46,21.11.46s11.12,4.97,11,11.1Z"/>&#xa;    <path class="cls-2" d="M39.56,74.58l-5.98-36.83c0-1.49,4.45-6.65,4.17-8.17-.39-2.13-3.43-3.81-5.92-3.81H11.41c-8.12,1.34-8.07,6.99-8.06,8.56.01,1.13,1.45,12.1,4.99,2.94l-4.61,37.3h35.84Z"/>&#xa;    <path class="cls-4" d="M14.17,25.91c-3.67,8.8,19.06,9.19,14.08-.17l-3.11-.08v-2.42c-1.21.41-2.42.68-3.62.76-.08,0-.9.02-.96.02-1.22-.02-2.43-.25-3.65-.73l.07,2.47-2.82.14Z"/>&#xa;    <line class="cls-3" x1="14.69" y1="37.28" x2="12.72" y2="72.58"/>&#xa;    <line class="cls-3" x1="27.08" y1="36.94" x2="32.67" y2="72.64"/>&#xa;    <path class="cls-1" d="M10.01,11.07c-1.02,1.83,3.08,13.69,7.57,10.84,13.17,5.81,15.38-10.39,14.31-12.95C25.87-5.56,10.61-.26,10.01,11.07Z"/>&#xa;    <ellipse class="cls-8" cx="5.22" cy="37.84" rx="2.81" ry="4.13"/>&#xa;    <ellipse class="cls-8" cx="35.73" cy="34.04" rx="2.81" ry="5.12"/>&#xa;  </g>&#xa;</svg></g></g></g><g data-cell-id="3sGnDGBDs-SrtWcaNYYb-251"><g><g><svg height="155.26" width="67.43" id="svg-image-P0C6ab9Dyp5a7l4hhBwI" data-name="Capa 2" viewBox="0.24853229522705078 0.12691974639892578 43.306880950927734 98.50568389892578" xmlns="http://www.w3.org/2000/svg" x="-0.71" y="290" style="font-family: initial;">&#xa;  <defs>&#xa;    <style>#svg-image-P0C6ab9Dyp5a7l4hhBwI .cls-1 { fill: rgb(67, 41, 24); stroke: rgb(67, 41, 24); }&#xa;#svg-image-P0C6ab9Dyp5a7l4hhBwI .cls-1, #svg-image-P0C6ab9Dyp5a7l4hhBwI .cls-2, #svg-image-P0C6ab9Dyp5a7l4hhBwI .cls-3, #svg-image-P0C6ab9Dyp5a7l4hhBwI .cls-4, #svg-image-P0C6ab9Dyp5a7l4hhBwI .cls-5, #svg-image-P0C6ab9Dyp5a7l4hhBwI .cls-6, #svg-image-P0C6ab9Dyp5a7l4hhBwI .cls-7 { stroke-miterlimit: 10; }&#xa;#svg-image-P0C6ab9Dyp5a7l4hhBwI .cls-1, #svg-image-P0C6ab9Dyp5a7l4hhBwI .cls-3, #svg-image-P0C6ab9Dyp5a7l4hhBwI .cls-7 { stroke-width: 0.25px; }&#xa;#svg-image-P0C6ab9Dyp5a7l4hhBwI .cls-8, #svg-image-P0C6ab9Dyp5a7l4hhBwI .cls-2 { fill: rgb(255, 255, 255); }&#xa;#svg-image-P0C6ab9Dyp5a7l4hhBwI .cls-2, #svg-image-P0C6ab9Dyp5a7l4hhBwI .cls-4, #svg-image-P0C6ab9Dyp5a7l4hhBwI .cls-5 { stroke-width: 0.5px; }&#xa;#svg-image-P0C6ab9Dyp5a7l4hhBwI .cls-2, #svg-image-P0C6ab9Dyp5a7l4hhBwI .cls-4, #svg-image-P0C6ab9Dyp5a7l4hhBwI .cls-5, #svg-image-P0C6ab9Dyp5a7l4hhBwI .cls-6 { stroke: rgb(29, 29, 27); }&#xa;#svg-image-P0C6ab9Dyp5a7l4hhBwI .cls-3 { fill: none; stroke: rgb(112, 111, 111); }&#xa;#svg-image-P0C6ab9Dyp5a7l4hhBwI .cls-4, #svg-image-P0C6ab9Dyp5a7l4hhBwI .cls-6 { fill: rgb(210, 27, 50); }&#xa;#svg-image-P0C6ab9Dyp5a7l4hhBwI .cls-5 { fill: rgb(244, 207, 160); }&#xa;#svg-image-P0C6ab9Dyp5a7l4hhBwI .cls-6 { stroke-width: 0.75px; }&#xa;#svg-image-P0C6ab9Dyp5a7l4hhBwI .cls-7 { fill: rgb(29, 29, 27); stroke: rgb(60, 60, 59); }&#xa;</style>&#xa;  </defs>&#xa;  <g id="Capa_1-2" data-name="Capa 1">&#xa;    <path class="cls-2" d="M4.48,31.46c-11.34,24.04,2.74,19.04,11.53,21.04-.97-.08,1.86-7.5,1.54-7.53-6.87-.68-11.9-.86-6.87-10.05"/>&#xa;    <path class="cls-2" d="M37.79,30.16c15.22,24.87-3.65,21.72-11.28,22.34.97-.08-1.34-7.5-1.02-7.53,6.87-.68,11.9,3.79,5.84-10.64"/>&#xa;    <path class="cls-5" d="M20.35,47.3c-.04,2.24-1.55,3.12-3.04,3.06-1.75-.06-2.98-.79-3.04-3.06-.04-1.69,1.36-3.06,3.04-3.06s3.07,1.37,3.04,3.06Z"/>&#xa;    <path class="cls-5" d="M27.08,47.3c-.04,2.24-1.55,3.12-3.04,3.06-1.75-.06-2.98-.79-3.04-3.06-.04-1.69,1.36-3.06,3.04-3.06s3.07,1.37,3.04,3.06Z"/>&#xa;    <path class="cls-5" d="M16.93,21.26v2.32c3.94,2.75,6.04,1.3,8.22,0v-2c-2.42,1.29-5.37,1.14-8.22-.31"/>&#xa;    <ellipse class="cls-7" cx="11.95" cy="94.11" rx="1.95" ry="6.96" transform="translate(-81.57 78.17) rotate(-73.09)"/>&#xa;    <ellipse class="cls-7" cx="29.27" cy="95.14" rx="6.96" ry="1.95" transform="translate(-20.97 9.21) rotate(-13.21)"/>&#xa;    <path class="cls-6" d="M6.54,72.58c-.48,11.24-1.74,17.42-1.79,21.02,9.9,2.21,33.03,2.27,34.34.37-.34-5.6-2.51-14.15-2.6-21.39H6.54Z"/>&#xa;    <path class="cls-5" d="M32.11,11.56c-.15,8.12-5.61,11.29-11,11.1-6.34-.22-10.8-2.88-11-11.1C9.95,5.43,15.03.46,21.11.46s11.12,4.97,11,11.1Z"/>&#xa;    <path class="cls-2" d="M39.56,74.58l-5.98-36.83c0-1.49,4.45-6.65,4.17-8.17-.39-2.13-3.43-3.81-5.92-3.81H11.41c-8.12,1.34-8.07,6.99-8.06,8.56.01,1.13,1.45,12.1,4.99,2.94l-4.61,37.3h35.84Z"/>&#xa;    <path class="cls-4" d="M14.17,25.91c-3.67,8.8,19.06,9.19,14.08-.17l-3.11-.08v-2.42c-1.21.41-2.42.68-3.62.76-.08,0-.9.02-.96.02-1.22-.02-2.43-.25-3.65-.73l.07,2.47-2.82.14Z"/>&#xa;    <line class="cls-3" x1="14.69" y1="37.28" x2="12.72" y2="72.58"/>&#xa;    <line class="cls-3" x1="27.08" y1="36.94" x2="32.67" y2="72.64"/>&#xa;    <path class="cls-1" d="M10.01,11.07c-1.02,1.83,3.08,13.69,7.57,10.84,13.17,5.81,15.38-10.39,14.31-12.95C25.87-5.56,10.61-.26,10.01,11.07Z"/>&#xa;    <ellipse class="cls-8" cx="5.22" cy="37.84" rx="2.81" ry="4.13"/>&#xa;    <ellipse class="cls-8" cx="35.73" cy="34.04" rx="2.81" ry="5.12"/>&#xa;  </g>&#xa;</svg></g></g></g></g></g></g></svg>