<?xml version="1.0" encoding="UTF-8"?>
<svg id="Capa_1" data-name="Capa 1" xmlns="http://www.w3.org/2000/svg" viewBox="0 0 372.34 408.77">
  <path
    d="m185.53,0c6.13,1.61,12.41,2.79,18.36,4.91,9.54,3.42,18.1,8.56,25.7,15.47,10.76,9.76,18.54,21.32,22.35,35.28,1.65,6.07,2.43,12.44,2.99,18.73,1.25,14.24-1.89,27.6-8.57,40.28-6.09,11.56-14.71,20.69-25.25,28.18-1.35.96-2.76,1.85-4.71,3.15,3.37,1.19,6.36,2.26,9.36,3.31,14.59,5.1,27.78,12.6,39.94,22.17,12.93,10.17,23.72,22.11,32.16,36.2,1.43,2.39,2.97,2.81,5.71,1.6,13.24-5.87,26.58-11.52,39.92-17.16,5.29-2.24,10.63.9,11.37,6.55.19,1.44.21,2.91.21,4.37.01,39.25-.15,78.51.09,117.76.09,14.17-2.34,13.08-12.34,17.69-11.05,5.1-22.36,9.62-33.57,14.38-13.94,5.92-27.9,11.76-41.82,17.73-12.02,5.15-23.96,10.49-35.97,15.65-14.6,6.27-29.24,12.43-43.85,18.66-1.55.66-3.03,1.48-4.5,2.31-6.98,3.93-12.65-.56-18.49-3.04-28.32-11.98-56.59-24.09-84.85-36.22-17.73-7.61-35.4-15.38-53.11-23.03-6.95-3-13.99-5.78-20.91-8.84C2.16,334.5-.01,331.96,0,327.54c.11-42.71.06-85.42.08-128.14,0-6.38,4.77-9.68,10.68-7.23,11.13,4.62,22.18,9.41,33.28,14.12,1.17.5,2.38.93,3.57,1.39,7.58,2.93,7.32,2.76,11.81-4.04,3.57-5.41,7.72-10.46,11.87-15.46,10.89-13.1,24.27-23.28,39.24-31.12,8-4.19,16.81-6.85,25.26-10.21.59-.23,1.13-.59,1.42-.74-5.12-4.35-10.48-8.46-15.32-13.11-11.9-11.42-18.98-25.65-21.66-41.73-3.89-23.28,1.86-44.51,16.71-62.78,11.66-14.36,26.97-23.33,45.27-26.92C164.4,1.14,166.57.53,168.76,0c5.59,0,11.18,0,16.77,0Zm.14,277.85c-.04,7.16-.13,14.32-.12,21.48.02,29.31.08,58.61.12,87.92.22.22.43.45.65.67,1.75-.72,3.5-1.42,5.24-2.17,16.24-6.94,32.49-13.88,48.72-20.85,14.03-6.02,28.02-12.12,42.05-18.12,17.7-7.57,35.41-15.13,53.17-22.55,2.7-1.13,3.63-2.56,3.62-5.53-.11-34.33-.07-68.65-.07-102.98v-4.33c-3.82,1.61-7.11,2.96-10.36,4.37-13.88,6.05-27.73,12.17-41.64,18.16-14.94,6.44-29.92,12.77-44.9,19.13-10.16,4.31-20.36,8.51-30.49,12.88-8.48,3.66-16.89,7.48-25.33,11.23-.22.23-.44.45-.65.68Zm-16.91,110.09c.22-.23.44-.46.66-.68.04-35.64.05-71.28.19-106.92.01-2.62-1.45-3.3-3.29-4.07-5.31-2.23-10.62-4.47-15.9-6.75-17.46-7.54-34.91-15.13-52.38-22.64-20.34-8.74-40.72-17.41-61.07-26.12-6.82-2.92-13.64-5.85-20.72-8.88-.09.97-.19,1.6-.19,2.22,0,35.38.03,70.75-.08,106.13,0,2.54,1.21,3.31,3.1,4.12,17.01,7.31,33.99,14.7,51,21.99,28.25,12.11,56.51,24.2,84.79,36.24,4.56,1.94,9.26,3.58,13.89,5.36Zm116.24-170.95c-11.74-19.33-27.15-33.92-46.22-44.45-25.25-13.94-52.43-18.72-80.89-14.37-38.36,5.85-67.4,26.1-88.38,58.76.92.49,1.46.83,2.04,1.08,9.62,4.2,19.23,8.43,28.86,12.59,23.35,10.08,46.74,20.08,70.06,30.24,4.1,1.78,7.81,3.05,12.13.4,3.26-1.99,6.96-3.27,10.5-4.79,14.27-6.11,28.54-12.21,42.83-18.25,10.4-4.4,20.86-8.64,31.24-13.09,5.89-2.52,11.67-5.31,17.83-8.12ZM176.97,16.77c-34.65-1.44-60.26,28.1-61.7,57.46-1.93,39.43,29.02,64.91,58.67,66.3,35.08,1.64,68.67-27.38,65.21-68.56-2.28-27.12-27.45-56.81-62.17-55.2Z"/>
  <path
    d="m273.84,151.69c-1.67-.38-3.36-.68-5-1.14-7.18-2-13.05-5.83-16.77-12.45-1.61-2.87-2.46-6.07-2.24-9.36.3-4.55,2.05-8.54,5.07-12.06,3.74-4.35,8.55-6.88,13.89-8.43,4.12-1.19,8.39-1.24,12.7-.78,4.53.47,8.68,1.89,12.65,4,.07.04.18,0,.41-.02v-1.63c0-32.26.01-64.52-.02-96.78,0-2.48.7-4.52,2.98-5.64,3.24-1.59,7.44.36,8.07,4.18.46,2.74,2.11,4.94,3.6,7.19,3.98,5.98,9.38,10.39,15.26,14.39,4.85,3.3,9.64,6.76,14.1,10.57,5.25,4.47,8.43,10.4,10.32,17.02,1.1,3.87,1.7,7.82,1.38,11.81-.91,11.31-4.39,21.73-11.12,30.96-1.09,1.49-2.33,2.87-4.2,3.45-3.24,1-5.84-1.37-6.7-3.61-.78-2.02-.25-3.86,1.05-5.53.54-.69,1.13-1.36,1.53-2.13.31-.6.6-1.4.46-2-1.95-8.32-5.87-15.56-12.31-21.26-3.86-3.41-8.27-5.99-13.21-7.88v1.6c0,20.71,0,41.41,0,62.12,0,5.38-1.65,10.12-5.41,14.1-4.57,4.85-10.13,7.71-16.67,8.77-.73.12-1.45.37-2.17.55h-7.64Z"/>
</svg>
